<?xml version="1.0" standalone="no"?>
<!DOCTYPE svg PUBLIC "-//W3C//DTD SVG 20010904//EN"
 "http://www.w3.org/TR/2001/REC-SVG-20010904/DTD/svg10.dtd">
<svg version="1.0" xmlns="http://www.w3.org/2000/svg"
 width="235.000000pt" height="95.000000pt" viewBox="0 0 235.000000 95.000000"
 preserveAspectRatio="xMidYMid meet">

<g transform="translate(0.000000,95.000000) scale(0.100000,-0.100000)"
fill="#000000" stroke="none">
<path d="M282 715 c-53 -23 -100 -64 -134 -119 -31 -48 -33 -56 -33 -146 0
-79 4 -102 22 -136 28 -52 114 -130 153 -139 16 -4 32 -11 35 -16 4 -5 25 -9
49 -9 34 0 48 6 71 30 l29 30 -29 30 c-19 19 -43 33 -68 37 -139 22 -190 193
-86 288 21 19 45 35 52 35 6 0 19 5 27 10 12 8 10 14 -15 40 l-29 30 22 20
c12 12 22 23 22 25 0 10 -57 4 -88 -10z"/>
<path d="M827 584 c-8 -8 1 -24 14 -24 5 0 9 7 9 15 0 15 -12 20 -23 9z"/>
<path d="M1117 553 c-4 -3 -7 -41 -7 -84 0 -73 2 -80 25 -95 14 -9 32 -13 41
-10 15 6 15 9 -4 27 -31 28 -30 91 1 112 l22 15 -27 11 c-16 6 -28 15 -28 21
0 11 -13 13 -23 3z"/>
<path d="M827 524 c-4 -4 -7 -41 -7 -81 0 -66 2 -74 18 -71 14 3 17 15 17 77
0 69 -9 93 -28 75z"/>
<path d="M910 451 c0 -48 4 -83 11 -87 17 -10 29 16 29 66 0 56 10 73 41 68
22 -3 25 -9 29 -63 4 -47 9 -61 23 -63 14 -3 17 4 17 50 0 29 -3 63 -6 76 -8
27 -46 39 -79 24 -15 -7 -26 -8 -30 -2 -4 6 -13 10 -21 10 -11 0 -14 -17 -14
-79z"/>
<path d="M1245 505 c-62 -61 6 -161 94 -138 32 8 25 23 -12 23 -38 0 -73 22
-63 38 4 7 31 12 62 12 48 0 54 2 54 20 0 32 -44 70 -80 70 -19 0 -40 -9 -55
-25z m84 -18 c14 -18 4 -27 -29 -27 -33 0 -43 9 -29 27 15 17 43 17 58 0z"/>
<path d="M1443 515 c-27 -19 -37 -63 -23 -101 14 -36 26 -44 68 -44 21 0 32
-5 32 -15 0 -17 -41 -30 -71 -22 -15 4 -19 1 -17 -11 4 -22 51 -27 90 -11 38
16 48 43 48 134 0 57 -3 74 -16 79 -29 11 -89 6 -111 -9z m82 -65 c0 -39 -3
-45 -23 -48 -44 -7 -65 34 -41 79 7 14 19 19 37 17 25 -3 27 -7 27 -48z"/>
<path d="M1626 523 c-9 -10 -7 -136 3 -152 16 -26 31 0 31 54 0 44 4 57 22 69
12 9 20 17 17 19 -9 8 -67 16 -73 10z"/>
<path d="M1757 523 c-15 -15 -5 -22 36 -25 60 -4 58 -31 -3 -38 -38 -4 -46 -9
-54 -33 -12 -33 9 -59 45 -58 13 0 41 1 62 2 l37 1 0 63 c0 55 -3 66 -22 79
-22 16 -89 22 -101 9z m78 -108 c0 -13 -8 -21 -24 -23 -28 -4 -46 11 -37 33 9
25 61 16 61 -10z"/>
</g>
</svg>
