<?xml version="1.0" encoding="utf-8"?>
<!-- Generator: Adobe Illustrator 25.2.1, SVG Export Plug-In . SVG Version: 6.00 Build 0)  -->
<svg version="1.1" id="图层_1" xmlns="http://www.w3.org/2000/svg" xmlns:xlink="http://www.w3.org/1999/xlink" x="0px" y="0px"
	 viewBox="0 0 651.97 340.16" style="enable-background:new 0 0 651.97 340.16;" xml:space="preserve">
<style type="text/css">
	.st0{fill:#F9C400;}
	.st1{fill:#C6CD00;}
	.st2{fill:#EB8200;}
	.st3{fill:#9D8F85;}
	.st4{fill:#0C9AA7;}
</style>
<g>
	<g id="_x23_f9c213ff">
		<path id="path5" class="st0" d="M194.5,13.55h8.67c7.29,0.7,14.54,2.36,21.17,5.51c10.71,5.05,18.97,14.28,24.45,24.6
			c5.59,10.59,8.45,22.45,9.48,34.33c-16.04-12.73-36.86-18.49-57.19-18.05c-23.08,0.78-45.94,5.05-68.07,11.51
			c5.36-13.96,12.84-27.27,23.17-38.19C166.04,22.41,179.77,14.81,194.5,13.55z"/>
		<path id="path7" class="st0" d="M181.01,69.26c12.49-1.55,25.22-2.31,37.71-0.31c7.19,1.12,14.21,3.29,20.81,6.37
			c6.87,3.27,12.97,7.92,18.7,12.88c-0.15,2.87-0.53,5.71-1.04,8.53c-3.14-1.86-5.58-4.64-8.42-6.88
			c-13.86-11.3-31.74-17.22-49.55-17.54c-19.49-0.47-38.87,2.82-57.7,7.58c-4.34,1.08-8.53,2.74-12.96,3.47
			c0.82-1.19,1.35-2.92,2.9-3.35C147.61,74.96,164.2,71.28,181.01,69.26z"/>
		<path id="path9" class="st0" d="M129.53,90.56c16.67-5.54,33.96-9.2,51.45-10.91c10.45-0.42,21.03-1.08,31.39,0.75
			c16.39,2.83,31.64,11.63,42.21,24.45c-1.04,2.65-2.08,5.3-3.11,7.95c-4.51-4.89-9.14-9.75-14.56-13.65
			c-12.22-8.83-27.09-13.53-42.06-14.58c-10.52-0.88-21.05,0.34-31.46,1.74c-12.55,1.77-24.83,5.01-36.91,8.76
			C126.18,92.96,127.54,91.11,129.53,90.56z"/>
		<path id="path11" class="st0" d="M171.61,91.13c15.83-1.96,32.38-1.29,47.32,4.7c11.11,4.41,20.9,11.87,28.37,21.14
			c1.27,2.93-1.01,6.23-3.66,7.5c-0.83-0.63-1.49-1.44-2.18-2.21c-11.44-12.74-27.22-21.49-44.15-24.23
			c-9.96-1.68-20.11-1.51-30.14-0.83c-12.97,1.27-25.88,3.71-38.16,8.12c-0.44-1.47-0.9-2.93-1.34-4.39
			C141.9,96.11,156.65,92.72,171.61,91.13z"/>
		<path id="path13" class="st0" d="M131.29,109.49c18.25-5.69,37.46-9.03,56.63-7.71c20.44,1.16,40.61,11.02,52.93,27.52
			c-1.89,1.91-3.77,3.82-5.67,5.71c-6.16-7.2-13.68-13.27-22.18-17.51c-15.3-7.49-32.75-9.69-49.62-8.45
			c-9.8,0.69-19.49,2.5-28.99,4.99C133.36,112.53,132.32,111.01,131.29,109.49z"/>
		<path id="path15" class="st0" d="M137.75,117.23c17.57-4.39,36.12-6.39,54.02-2.8c13.79,2.73,27.2,8.96,36.98,19.22
			c1.14,1.25,2.7,2.48,2.61,4.35c-2.15,1.46-4.41,2.75-6.73,3.92c-10.25-11.57-25.47-17.32-40.46-19.55
			c-7.27-0.93-14.6-1.9-21.95-1.54c-6.27,0.2-12.49,1.1-18.7,2C141.48,121.08,139.47,119.29,137.75,117.23z"/>
		<path id="path17" class="st0" d="M147.04,125.29c18.59-2.74,38.06-1.86,55.69,4.96c7.03,3.05,14.19,6.76,18.84,13.07
			c-12.49,4.66-26.32,3.09-38.82-0.72C170.06,138.73,157.79,133.13,147.04,125.29z"/>
	</g>
	<g id="_x23_bece1fff">
		<path id="path20" class="st1" d="M35.44,108.69c14.69-9.59,32.23-15.48,49.91-14.63c-5.53,5.33-11.51,10.34-15.81,16.77
			c-7.16,10.21-10.56,22.98-9.36,35.38c1.58,18.76,8.06,36.75,16.35,53.54c-16.98-3.4-33.35-11.02-45.87-23.1
			c-8.66-8.26-14.75-19.44-15.93-31.42v-6.25C16.05,126.18,25.08,115.63,35.44,108.69z"/>
		<path id="path22" class="st1" d="M89.33,101.07c2.68-1.92,5.21-4.56,8.8-4.36c-1.31,2.63-4.14,3.78-6.31,5.56
			c-10.03,7.5-18.57,17.76-21.62,30.1c-2.14,7.44-1.04,15.22-1.14,22.83c-1.19-3.5-1.18-7.23-1.28-10.88
			c-0.09-4.68-0.2-9.47,1.18-14C72.06,118.56,79.85,108.48,89.33,101.07z"/>
		<path id="path24" class="st1" d="M86.18,116.66c5.33-6.19,12.03-11.02,18.97-15.24c0.87,0.24,1.74,0.48,2.61,0.73
			c0.08,0.36,0.25,1.06,0.33,1.42c-11.72,6.58-22.77,15.79-27.89,28.54c-3.44,7.87-3.41,16.7-2.29,25.06
			c2.08,11.79,6.28,23.16,11.81,33.77c1.36,2.58,2.87,5.12,3.6,7.97c-2.6-2.12-3.78-5.36-5.26-8.26
			c-7.08-14.44-12.32-30.12-12.63-46.32C75.37,134.16,79.48,124.24,86.18,116.66z"/>
		<path id="path26" class="st1" d="M109.9,109.17c1.05-0.61,2.6-1.29,3.59-0.19c0.38,0.84,0.66,1.73,0.95,2.6
			c-10.99,5.45-21.09,13.9-26.03,25.35c-4.42,10.07-3.01,21.6,0.12,31.83c2.18,7.03,5.4,13.68,8.86,20.17
			c0.93,1.77,2.09,3.43,2.73,5.34c-2.7,0.53-3.52-2.44-4.54-4.26c-7.01-13.75-13.18-28.7-12.51-44.42
			c0.21-10.54,6.14-20.1,13.77-27.04C100.79,114.91,105.24,111.84,109.9,109.17z"/>
		<path id="path28" class="st1" d="M100.59,127.34c4.65-4.84,10.28-8.65,16.25-11.69c0.55,1.56,1.1,3.12,1.64,4.69
			c-8.69,4.86-16.96,11.41-21.37,20.54c-3.41,6.86-3.68,14.87-2.07,22.24c1.9,8.83,6.17,16.92,10.63,24.7
			c-0.98,0.36-1.96,0.72-2.94,1.09c-6.31-11.87-12.39-24.62-12.25-38.36C90.39,141.81,94.54,133.49,100.59,127.34z"/>
		<path id="path30" class="st1" d="M108.46,132.01c3.12-2.93,6.7-5.32,10.41-7.45c0.55,2.18,0.66,4.44,0.68,6.68
			c-8.77,4.76-15.89,13.49-16.72,23.66c-1.02,8.17,2.23,16.06,6,23.13c0.96,1.61,0.65,4.64-1.71,4.63
			c-5.38-9.56-9.88-20.32-8.81-31.52C98.79,143.68,103.04,136.97,108.46,132.01z"/>
		<path id="path32" class="st1" d="M106.6,150.64c1.93-6.93,7.17-12.38,13.03-16.3c-0.67,14.22-3.21,28.41-8.36,41.72
			C106.73,168.57,103.97,159.29,106.6,150.64z"/>
	</g>
	<g id="_x23_ee850fff">
		<path id="path35" class="st2" d="M279.72,141.35c1.44,0.04,3.06-0.36,4.41,0.05c2.77,15.62,2.7,31.61,1.53,47.38
			c-1.64,19.36-6.4,38.81-16.48,55.6c-1.62-0.47-3.25-0.96-4.87-1.45c1.69-4.13,4.48-7.68,6.33-11.74
			c8.91-18.2,11.58-38.69,11.95-58.73C282.99,162.01,281.14,151.67,279.72,141.35z"/>
		<path id="path37" class="st2" d="M291.77,140.74c13.55,1.03,27.65,4.38,38.24,13.32c8.38,6.8,12.66,17.78,12.33,28.41
			c-0.35,8.78-1.96,17.53-4.98,25.8c-4.29,11.75-11.85,22.62-22.48,29.48c-11.04,7.07-24.57,9.37-37.5,8.57
			c2.05-5.37,5.12-10.29,7-15.72c7.55-20.12,9.94-41.78,9.85-63.14C294.33,158.5,293.07,149.59,291.77,140.74z"/>
		<path id="path39" class="st2" d="M267.1,143.85c1.9-0.43,3.8-0.86,5.71-1.28c4.02,18.62,3.85,37.98,0.79,56.72
			c-2.2,14.16-7.19,27.98-15.25,39.88c-2.13-0.68-3.96-1.95-5.63-3.38c11.3-14.23,16.24-32.4,17.71-50.23
			C271.61,171.63,271.12,157.33,267.1,143.85z"/>
		<path id="path41" class="st2" d="M255.45,147.46c2.07-0.78,4.13-1.9,6.41-1.6c4.83,18.2,4.04,37.44,0.35,55.78
			c-2.54,10.93-6.73,21.74-14.02,30.42c-1.61-1.89-3.19-3.79-4.72-5.74c10.62-12.71,14.91-29.49,15.64-45.74
			C259.85,169.44,258.85,158.13,255.45,147.46z"/>
		<path id="path43" class="st2" d="M244.59,152.51c2.15-1.05,4.2-2.27,6.37-3.27c2.89,8.66,3.9,17.86,3.57,26.95
			c-0.14,16.27-3.92,33.08-13.81,46.31c-1.43-2.23-3.53-4.18-4.05-6.87c-0.26-1.12,0.31-2.13,0.91-3.02
			c7.19-10.87,10.26-24.06,10.18-36.98C247.76,167.82,246.51,160.07,244.59,152.51z"/>
		<path id="path45" class="st2" d="M234.24,160.51c2.08-2.16,4.36-4.15,6.98-5.62c3.6,13.8,4.02,28.68-0.38,42.34
			c-1.46,4.31-3.25,8.56-5.79,12.35c-0.4,0.02-1.17,0.08-1.57,0.1c-1.47-3.48-3.93-7.45-2.06-11.26
			C237.14,186.68,237.04,173.02,234.24,160.51z"/>
		<path id="path47" class="st2" d="M226.81,174.99c0.63-4.32,2.39-8.47,5.11-11.9c2.38,11.24,1.86,23.31-2.76,33.92
			C227.16,189.88,225.66,182.39,226.81,174.99z"/>
	</g>
	<g id="_x23_938982ff">
		<path id="path50" class="st3" d="M548.91,173.89c4.13-4.34,10.29-5.81,16.08-6.2c6.4-0.42,12.77,0.63,19.04,1.83
			c0.02,3.25-0.05,6.52-0.04,9.78c-5.53-2.67-11.48-4.84-17.7-4.87c-3.53,0.04-7.26,1.55-9.2,4.6c-1.68,2.64-1.52,6.15,0.06,8.78
			c1.83,3.18,5.13,5.05,8.17,6.93c6.85,4.03,14.66,7.04,19.83,13.34c4.86,5.9,4.97,14.62,1.88,21.35
			c-3.3,6.48-10.65,9.75-17.6,10.48c-8.13,0.63-16.52,0.37-24.23-2.46c0.11-3.62,0.11-7.24,0.17-10.86
			c6.46,3.32,13.44,6.57,20.89,6.18c3.41-0.3,7.28-1.03,9.51-3.9c3.08-4.08,2.42-10.4-1.32-13.86c-7.41-7.03-18.19-9.31-25.17-16.89
			C543.13,191.71,542.63,180.39,548.91,173.89z"/>
		<path id="path52" class="st3" d="M373,168.81c3.61-0.28,7.23-0.15,10.84-0.03c0.03,10.2-0.09,20.39,0.12,30.58
			c7.85-9.92,14.33-20.84,22.16-30.78c3.34,0.1,6.68,0.12,10.02,0.16c-6.95,10.97-14.74,21.37-22.26,31.94
			c8.44,8.41,13.34,19.45,20.14,29.09c1.62,2.2,3.09,4.71,5.62,5.99c7.5-22.43,14.66-44.99,22.74-67.22
			c3.71,0.18,7.43,0.16,11.14,0.05c8.43,23.42,16.06,47.12,23.88,70.75c-3.87,0-7.72,0-11.58,0c-2.45-6.9-4.36-13.98-6.65-20.93
			c-7.58-0.02-15.16,0.01-22.74-0.02c-0.35,0.05-1.04,0.16-1.38,0.21c-2.49,6.69-3.91,13.74-6.65,20.35c-4.62,0.86-9.34,0.15-14,0.4
			c-2.23-0.04-4.95,0.46-6.6-1.41c-8.97-10.15-13.46-23.64-23.66-32.8c-0.62,11.37-0.08,22.78-0.34,34.16
			c-3.73,0.11-7.45,0.01-11.17-0.16c-0.01-22.64,0-45.28,0-67.91C372.56,170.4,372.78,169.6,373,168.81 M446.78,180.25
			c-3.22,10.38-6.31,20.81-9.53,31.2c6.58,0.01,13.17-0.02,19.75,0.02c-2.66-9.26-5.57-18.44-8.26-27.68
			C448.41,182.45,447.65,181.29,446.78,180.25z"/>
		<path id="path54" class="st3" d="M484.35,213.81c0-15.05-0.07-30.1,0.1-45.15c3.8,0.06,7.59,0.01,11.39,0.03
			c0.02,16.27,0.05,32.54,0.05,48.81c0.04,4.51,0.36,9.45,3.31,13.1c3.09,3.48,8.26,3.91,12.59,3.1c2.47-0.32,4.82-1.59,6.23-3.67
			c2.5-3.64,2.81-8.24,2.85-12.52c0.05-16.27,0.06-32.55,0.08-48.83c3.75,0,7.5-0.06,11.26-0.09c0.47,15.26,0.14,30.53,0.22,45.8
			c0,6.96-0.61,14.76-5.66,20.09c-5.38,5.32-13.49,6.02-20.67,5.73c-6.39-0.06-13.33-2.04-17.36-7.32
			C484.82,227.38,484.38,220.35,484.35,213.81z"/>
		<path id="path56" class="st3" d="M592.97,168.79c15.13-0.2,30.26-0.14,45.38-0.1c0.01,2.32,0.01,4.64,0.01,6.96
			c-5.62,0.02-11.25,0-16.87-0.04c-0.05,21.14-0.04,42.28,0.04,63.42c-3.84,0.41-7.7,0.32-11.55,0.27
			c-0.16-21.27,0.23-42.55-0.27-63.82c-5.57,0.16-11.14,0.09-16.7,0.18C593,173.37,592.96,171.08,592.97,168.79z"/>
	</g>
	<g id="_x23_139da7ff">
		<path id="path59" class="st4" d="M130.69,198.44c11.01-3.33,22.5-6.14,34.1-5.03c17.35,1.48,34.94,7.2,47.94,19.12
			c-23.96,10.18-52.8,6.88-74.35-7.48C135.61,203.12,132.37,201.51,130.69,198.44z"/>
		<path id="path61" class="st4" d="M122.33,201.87c1.57-0.61,3.15-1.21,4.72-1.84c14.7,12.72,33.7,21.09,53.33,21.13
			c11.73,0.27,23.76-1.25,34.44-6.36c2.28,2.48,4.38,5.12,6.21,7.94c-12.12,6.74-26.37,8.48-40.04,7.75
			c-18.56-0.46-36.27-8.58-50.45-20.21C127.59,207.7,124.33,205.31,122.33,201.87z"/>
		<path id="path63" class="st4" d="M114.57,205.8c1.28-0.61,2.58-1.19,3.89-1.75c13.84,14.97,32.36,25.9,52.57,29.43
			c17.56,2.9,36.08,0.63,52.1-7.22c1.15,2.72,2.25,5.45,3.28,8.21c-15.34,8.22-33.45,10.13-50.53,7.82
			C151.62,238.72,130.2,224.17,114.57,205.8z"/>
		<path id="path65" class="st4" d="M109.67,207.71c2.82,2.68,5.38,5.63,8.05,8.46c14.67,15.19,33.74,26.54,54.66,30.44
			c6.14,1.25,12.43,1.39,18.67,1.34c12.59-0.2,25.29-2.76,36.49-8.66c0.59,2.77,1.05,5.57,1.42,8.38
			c-16.85,7.97-36.29,9.79-54.52,6.32c-16.76-3.16-32.19-11.51-45.23-22.32c-4.3-3.61-8.51-7.37-12.21-11.61
			c-2.92-3.23-6.02-6.37-8.26-10.13C109.04,209.19,109.36,208.45,109.67,207.71z"/>
		<path id="path67" class="st4" d="M102.1,212.37c2.62,1.73,4.32,4.41,6.35,6.74c13.41,15.91,30.46,29.16,50.13,36.4
			c22.58,8.4,48.33,7.85,70.55-1.42c-0.09,2.61-0.2,5.23-0.31,7.85c-18.33,6.88-38.78,7.95-57.76,3.12
			c-17.65-4.5-33.6-14.25-47.02-26.39c-7.36-6.66-14.01-14.09-19.98-22.01C103.06,215.41,102.49,213.9,102.1,212.37z"/>
		<path id="path69" class="st4" d="M96.25,217.99c2.03,1.65,3.32,3.97,4.95,5.98c13.21,16.96,29.95,31.46,49.5,40.68
			c15.47,7.34,32.71,11.18,49.87,10.18c9.3-0.47,18.5-2.28,27.34-5.21c-0.18,2.05-0.37,4.11-0.55,6.16
			c-17.52,5.76-36.67,6.01-54.49,1.5c-18.06-4.56-34.51-14.26-48.45-26.44C113.57,241.25,104.01,230.19,96.25,217.99z"/>
		<path id="path71" class="st4" d="M86.58,227.22c1.17-1.38,2.6-2.5,4.09-3.5c11.96,17.54,26.88,33.28,44.7,44.97
			c9.29,6.09,19.35,11.05,29.93,14.48c19.19,6.12,40.01,6.25,59.57,1.78c-3.2,10.79-8.58,21.19-16.86,28.98
			c-7.28,6.9-16.85,11.12-26.72,12.64c-9.51,1.5-19.28,0.7-28.58-1.66c-14.15-3.26-27.89-8.44-40.51-15.63
			c-12.9-7.35-25.24-16.77-32.76-29.81c-5.1-9.01-7.87-19.93-5.25-30.15C76.25,241,81.08,233.68,86.58,227.22z"/>
	</g>
</g>
</svg>
