<?xml version="1.0" encoding="utf-8"?>
<!-- Generator: Adobe Illustrator 25.2.1, SVG Export Plug-In . SVG Version: 6.00 Build 0)  -->
<svg version="1.1" id="Capa_1" xmlns="http://www.w3.org/2000/svg" xmlns:xlink="http://www.w3.org/1999/xlink" x="0px" y="0px"
	 viewBox="0 0 113.39 56.69" style="enable-background:new 0 0 113.39 56.69;" xml:space="preserve">
<style type="text/css">
	.st0{fill:#2A7DE1;}
	.st1{fill:#FFDA00;}
	.st2{fill:#FFFFFF;}
	.st3{fill:#C9DEF7;}
</style>
<g>
	<g>
		<g>
			<path class="st0" d="M48.57,24.91c0.44-0.09,0.82-0.52,0.82-1.04c0-0.32-0.13-0.78-0.75-1.17c-0.09-0.06-0.17-0.1-0.24-0.13
				c0.45-0.16,0.69-0.48,0.69-0.92c0-0.29-0.23-0.52-0.52-0.52c-0.14,0-0.27,0.05-0.37,0.15c-0.08,0.09-0.14,0.19-0.15,0.31
				c-0.06,0.02-0.23,0.07-0.65,0.07c-0.16,0-0.33-0.03-0.5-0.08c0.08-0.03,0.4-0.3,0.51-0.4c0.11-0.11,0.41-0.19,0.54-0.41
				c0.35-0.6,0.48-0.91,0.61-1.46c0.07-0.27,0.1-0.52,0.1-0.75c0-0.21-0.03-0.37-0.05-0.52l-0.03-0.23
				c-0.02-0.19-0.06-0.68-0.49-0.82c0,0-0.74-1.12-0.77-1.15c-0.02-0.04-0.06-0.05-0.09-0.01c-0.03,0.03-0.32,0.37-0.32,0.37
				c-0.07,0-0.2,0.02-0.31,0.07c-0.02-0.03-0.05-0.05-0.07-0.08c-0.02-0.02-0.05-0.04-0.08-0.05l-0.13-0.85l-0.09,0.02
				c0,0-0.45,0.08-0.46,0.08c-0.02,0-0.13-0.02-0.26-0.08c-0.03-0.02-0.11-0.07-0.14-0.11c0-0.04,0.01-0.08,0.01-0.12
				c0-0.41-0.2-0.73-0.57-0.9c-0.24-0.11-0.7-0.23-1.15,0.22c-0.03,0-0.09-0.02-0.18-0.04c-0.13-0.05-0.19-0.11-0.2-0.12l-0.29-0.5
				l-0.69,0.41c-0.41-0.34-0.6-0.45-0.85-0.35c-0.1,0.04-0.17,0.11-0.27,0.21c0.03-0.05,0.05-0.11,0.05-0.17
				c0-0.27-0.21-0.5-0.49-0.5c-0.03-0.02-0.07-0.04-0.1-0.06c-0.06-0.14-0.22-0.54-0.24-0.57c-0.02-0.04-0.07-0.05-0.11-0.02
				c-0.03,0.03-0.82,0.66-0.82,0.66c-0.11-0.5-0.46-0.86-0.89-0.96v-0.78h-0.4v-0.02c0-1.07-0.72-1.84-1.72-1.84
				c-0.04,0-0.1,0.01-0.16,0.02v-0.7h0.76V7.86H36.3V7.09h-1.23v0.77h-0.76v1.19h0.76v0.71c-0.09-0.02-0.17-0.03-0.24-0.03
				c-1.01,0-1.72,0.76-1.72,1.86h-0.47v0.79c-0.46,0.13-0.8,0.57-0.86,1.11l-0.36-0.3c-0.02-0.02-0.69-0.58-0.69-0.58l-0.07-0.06
				l-1.42,1.69c-0.16-0.11-0.38-0.17-0.65-0.17c-0.45,0-0.92,0.17-1.03,0.17c-0.46-0.47-0.94-0.36-1.18-0.24
				c-0.27,0.13-0.59,0.39-0.59,0.92c0,0.05,0,0.1,0.01,0.15c-0.02,0.02-0.07,0.06-0.18,0.14c0,0-0.08,0.06-0.08,0.06
				c-0.5,0.37-0.78,0.73-0.82,1.09h-2.21l0,2.04h1.53c-0.09,0.08-0.68,0.55-0.68,1.49c0,1.12,0.92,1.66,1.03,1.72
				c-0.18,0.05-0.35,0.08-0.51,0.08c-0.41,0-0.58-0.04-0.65-0.07c-0.03-0.26-0.25-0.47-0.52-0.47c-0.3,0-0.52,0.25-0.52,0.52
				c0,0.63,0.51,0.86,0.68,0.92c-0.07,0.03-0.98,0.43-0.98,1.29c0,0.55,0.39,0.96,0.83,1.05c-1.79,2.57-2.83,5.69-2.81,9.05
				c0.05,8.68,7.15,15.69,15.83,15.64c8.68-0.05,15.69-7.15,15.64-15.83C51.36,30.48,50.32,27.43,48.57,24.91z M23.69,23.66
				c-0.02-0.02-0.03-0.05-0.05-0.07c-0.08-0.08-0.15-0.12-0.25-0.12c-0.06,0,0.03-0.05,0.13-0.08c0.09-0.04,0.61-0.22,0.61-0.22
				C23.89,23.4,23.91,23.41,23.69,23.66z M25.55,17.86c-0.03,0-0.44,0.01-0.92,0.25c0-0.21,0-0.54,0-0.55c0.15,0,0.45,0,0.84,0
				c0.04,0.05,0.16,0.21,0.27,0.36C25.68,17.89,25.62,17.87,25.55,17.86z M30.85,17.99C30.85,17.99,30.85,17.99,30.85,17.99
				c-0.24,0-0.47-0.01-0.66-0.01c-0.02-0.11-0.02-0.18-0.05-0.35c0.24,0,0.42,0,0.49,0C30.66,17.73,30.73,17.87,30.85,17.99z
				 M30.24,14.94c0.01,0.01,0.26,0.22,0.42,0.35c-0.48,0.21-0.82,0.53-0.87,0.68l-0.09-0.4C29.96,15.28,30.15,15.05,30.24,14.94z
				 M26.58,19.99C26.58,19.98,26.58,19.98,26.58,19.99c-0.01-0.17-0.08-0.33-0.14-0.41c0.05-0.06,0.16-0.19,0.32-0.38
				c0.11,0.13,0.16,0.19,0.23,0.27C26.87,19.63,26.73,19.8,26.58,19.99z M27.15,20.64c0.24-0.28,0.44-0.54,0.6-0.74
				c0.15-0.19,0.37-0.47,0.44-0.53c0.11-0.04,0.28,0.11,0.32,0.15c0.12,0.13,0.31,0.17,0.48,0.11
				C28.35,19.92,27.73,20.26,27.15,20.64z M29.03,19.6c0.14-0.08,0.22-0.22,0.22-0.37c0-0.02-0.01-0.1-0.01-0.13
				c0-0.09,0.02-0.23,0.1-0.27c0.1-0.02,0.45-0.01,0.69,0c0.26,0.01,0.58,0.02,0.94,0.02C30.31,19.05,29.66,19.31,29.03,19.6z
				 M32.07,15.19c-0.16-0.05-0.32-0.08-0.47-0.08c-0.23,0-0.43,0.03-0.61,0.08l0.92-1.11c0,0,0.15,0.42,0.52,0.65
				C32.29,14.92,32.16,15.08,32.07,15.19z M34.72,14.36c0.3,0.21,0.62,0.34,0.93,0.34c0.31,0,0.62-0.13,0.92-0.34
				c0.07,0.11,0.13,0.23,0.17,0.35c-0.4,0.15-0.81,0.34-1.1,0.63c-0.29-0.29-0.7-0.48-1.1-0.63C34.59,14.6,34.65,14.48,34.72,14.36z
				 M32.93,13.23c0.06,0,0.12,0.16,0.12,0.21c0,0.1-0.03,0.28-0.16,0.55c-0.13-0.13-0.15-0.25-0.15-0.35
				C32.73,13.43,32.85,13.23,32.93,13.23z M32.82,15.62c0.11-0.14,0.24-0.3,0.37-0.48c0.11,0.05,0.22,0.09,0.33,0.12
				c-0.04,0.23-0.06,0.46-0.06,0.69c0,0.09,0.01,0.18,0.02,0.26c-0.09,0.03-0.11,0.03-0.21,0.06
				C33.07,15.81,32.83,15.63,32.82,15.62z M33.26,17.73c0.07-0.19,0.12-0.39,0.13-0.6c0.11-0.03,0.24-0.07,0.36-0.1
				c0.09,0.15,0.19,0.3,0.31,0.45C33.85,17.56,33.61,17.65,33.26,17.73z M33.73,14.44c-0.03-0.01-0.07-0.02-0.1-0.04
				c0.16-0.32,0.24-0.6,0.26-0.86c0.06,0.08,0.12,0.16,0.18,0.23C33.94,13.98,33.82,14.2,33.73,14.44z M34.41,15.96
				c-0.03,0.01-0.06,0.02-0.1,0.03c0-0.01,0-0.02,0-0.03c0-0.14,0.01-0.27,0.02-0.41c0.25,0.08,0.5,0.18,0.5,0.18
				S34.57,15.7,34.41,15.96z M34.81,17.03c-0.08-0.08-0.14-0.16-0.2-0.24c0.55-0.14,0.61-0.52,0.61-0.52S35.25,16.63,34.81,17.03z
				 M35.64,17.66c-0.05-0.02-0.1-0.06-0.16-0.09c0.06-0.06,0.11-0.12,0.16-0.18c0.05,0.06,0.1,0.12,0.16,0.18
				C35.74,17.6,35.69,17.64,35.64,17.66z M36.47,17.03c-0.45-0.39-0.41-0.75-0.41-0.75s0.06,0.37,0.61,0.52
				C36.62,16.87,36.55,16.95,36.47,17.03z M36.97,15.99c-0.04-0.01-0.07-0.02-0.1-0.03c-0.16-0.25-0.42-0.22-0.42-0.22
				s0.25-0.1,0.5-0.18c0.01,0.13,0.02,0.27,0.02,0.41C36.97,15.97,36.97,15.98,36.97,15.99z M37.39,13.56
				c0.02,0.25,0.11,0.53,0.26,0.84c-0.03,0.01-0.07,0.03-0.1,0.04c-0.09-0.23-0.2-0.45-0.34-0.66
				C37.27,13.71,37.33,13.63,37.39,13.56z M37.23,17.48c0.12-0.15,0.23-0.3,0.31-0.45c0.12,0.03,0.25,0.07,0.36,0.1
				c0.01,0.21,0.06,0.42,0.13,0.6C37.67,17.65,37.43,17.56,37.23,17.48z M38.02,16.28c-0.1-0.03-0.11-0.03-0.21-0.06
				c0.01-0.09,0.02-0.18,0.02-0.26c0-0.23-0.02-0.47-0.06-0.69c0.11-0.04,0.21-0.08,0.33-0.12c0.13,0.18,0.26,0.34,0.37,0.48
				C38.45,15.63,38.21,15.81,38.02,16.28z M38.4,13.99c-0.13-0.27-0.17-0.45-0.17-0.55c0-0.05,0.05-0.21,0.12-0.21
				c0.08,0,0.2,0.2,0.2,0.41C38.55,13.74,38.53,13.86,38.4,13.99z M40.68,16.3c0.28-0.22,0.47-0.43,0.59-0.57l0.05-0.02l0.08-0.02
				l0.01,0.03c0.01,0.06,0.02,0.12,0.03,0.16l0,0.02l-0.01,0.01c-0.26,0.21-0.54,0.47-0.64,0.93l-0.02,0.1l-0.04-0.09l-0.01-0.03
				c0-0.02-0.01-0.16-0.01-0.16c0-0.02,0-0.04,0-0.06c0-0.09-0.01-0.18-0.03-0.27l-0.01-0.02L40.68,16.3z M39.03,17.73
				c-0.25-0.24-0.29-0.59-0.29-0.73c0,0,0,0,0-0.01c0-0.11,0.02-0.21,0.04-0.3c0.07,0.05,0.16,0.08,0.25,0.08
				c0.03,0.03,0.1,0.1,0.1,0.1c-0.06,0.14-0.2,0.31-0.2,0.31l-0.05,0.24C38.89,17.43,39,17.6,39.03,17.73z M39.22,15.19
				c-0.09-0.11-0.22-0.27-0.36-0.46c0.46-0.36,0.54-0.71,0.54-0.71s0.17,0.18,0.41,0.23c0.07,0.17,0.19,0.31,0.31,0.42
				c0,0.01,0,0.01,0,0.01c-0.05,0.06-0.3,0.29-0.46,0.43C39.49,15.11,39.32,15.15,39.22,15.19z M39.85,17.88
				c-0.01-0.14-0.03-0.26-0.05-0.38c0.01-0.01,0.01-0.06,0.01-0.13c0.08-0.1,0.17-0.21,0.17-0.21L40,17.28
				c0.02,0.02,0.11,0.13,0.11,0.13s0.05,0.01,0.08,0.02c0.01,0,0.05,0.02,0.08,0.05l0.31,0.28c0,0,0.18,0.03,0.26,0.04
				c0,0,0.01,0.01,0.01,0.01c0.03,0.06,0.07,0.12,0.1,0.18c-0.29,0.01-0.64,0.02-1.01,0C39.94,17.98,39.89,17.92,39.85,17.88z
				 M40.31,18.84c0.35,0,0.68-0.01,0.93-0.02c0.2-0.01,0.47-0.02,0.61-0.01c0.06,0.04,0.11,0.08,0.16,0.12
				c0.02,0.05,0.01,0.16,0.01,0.29c0,0.13,0.08,0.29,0.21,0.36C41.62,19.3,40.98,19.05,40.31,18.84z M42.32,19.62
				c0.16,0.06,0.36-0.03,0.46-0.11c0.1-0.08,0.14-0.12,0.19-0.14c0.06,0.01,0.13,0.03,0.19,0.05c0.1,0.11,0.26,0.32,0.38,0.47
				c0.16,0.21,0.36,0.47,0.6,0.74C43.55,20.26,42.95,19.92,42.32,19.62z M44.98,20.3c-0.21-0.24-0.4-0.47-0.56-0.68
				c0.1,0.02,0.18,0.02,0.27,0.01c0.02,0.04,0.03,0.05,0.05,0.08c0,0.11,0.01,0.26,0.12,0.36l0.24,0.09
				C45.09,20.16,45.03,20.23,44.98,20.3z M47.61,23.66c-0.21-0.25-0.3-0.34-0.53-0.58l0.67,0.29c0.13,0.05,0.17,0.1,0.16,0.1
				C47.7,23.49,47.63,23.64,47.61,23.66z"/>
			<g>
				<path class="st1" d="M35.73,49.23c-8.47,0.05-15.4-6.8-15.45-15.27c-0.02-3.39,1.07-6.53,2.92-9.09
					c0.11-0.04,0.22-0.1,0.31-0.19c0.12-0.11,0.25-0.3,0.29-0.59c2.8-3.39,7.02-5.56,11.75-5.59c4.79-0.03,9.09,2.15,11.93,5.58
					c0.08,0.57,0.49,0.74,0.6,0.78c1.82,2.51,2.9,5.58,2.92,8.91C51.05,42.25,44.2,49.18,35.73,49.23z"/>
				<g>
					<path class="st1" d="M29.58,15.24c0.01,0.01,0.01,0.02,0.02,0.02l0.71-0.85l0.27,0.23l-0.11,0.13l0.29,0.24l0.41-0.49
						l-0.29-0.24l-0.11,0.13l-0.27-0.23l0.31-0.37l0.27,0.23l-0.11,0.13l0.29,0.24l0.41-0.49l-0.29-0.24l-0.11,0.13l-0.27-0.23
						l0.11-0.13l-0.42-0.35l-1.36,1.62C29.34,14.98,29.41,15.09,29.58,15.24z"/>
					<path class="st1" d="M23.55,17.62h-0.17v-0.35h0.49v0.35h-0.16V18l0.64,0v-0.38h-0.16v-0.35h1.14c0-0.23-0.04-0.36-0.32-0.55
						h-2.1v0.55h0.16l0,0.35h-0.16V18h0.64L23.55,17.62z"/>
					<path class="st1" d="M30.85,17.37c0,0.3,0.24,0.63,0.63,0.63c0.41,0,0.55-0.34,0.58-0.42c0.08-0.03,0.41-0.17,0.41-0.58
						c0-0.41-0.33-0.55-0.41-0.58C32.03,16.34,31.88,16,31.48,16c-0.35,0-0.63,0.28-0.63,0.63c0,0.02,0,0.04,0.01,0.06l-1.01,0
						l-0.01,0.02c-0.08,0.21-0.03,0.37,0.14,0.54c0.02,0.01,0.02,0.03,0.03,0.04l0.01,0.02h0.83
						C30.85,17.33,30.85,17.35,30.85,17.37z M31.31,16.72c0-0.14,0.06-0.23,0.18-0.23c0.2,0,0.17,0.21,0.23,0.28
						C31.8,16.83,32,16.81,32,17c0,0.19-0.2,0.17-0.27,0.24c-0.07,0.07-0.05,0.28-0.23,0.28c-0.12,0-0.18-0.1-0.18-0.23V16.72z"/>
					<path class="st1" d="M26.49,18.56c-0.12-0.13-0.29-0.16-0.29-0.16l-0.61,0.74c-0.01-0.02-0.03-0.03-0.04-0.04
						c-0.11-0.1-0.26-0.15-0.4-0.15c-0.02,0-0.04,0-0.05,0c-0.17,0.01-0.32,0.09-0.43,0.22c-0.11,0.13-0.16,0.29-0.14,0.46
						c0.01,0.08,0.07,0.21,0.09,0.25c-0.01,0.04-0.04,0.15-0.04,0.23c0,0.33,0.29,0.61,0.63,0.61c0.13,0,0.26-0.07,0.31-0.09
						c0.04,0.01,0.18,0.05,0.26,0.05c0.28,0,0.58-0.25,0.58-0.68c0-0.15-0.08-0.31-0.22-0.43c-0.01-0.01-0.03-0.02-0.05-0.04
						l0.55-0.66C26.6,18.88,26.59,18.67,26.49,18.56z M25.81,20.15c-0.13,0.15-0.27,0-0.36,0c-0.1,0.01-0.21,0.18-0.36,0.06
						c-0.15-0.12,0-0.26-0.01-0.36c-0.01-0.1-0.18-0.21-0.06-0.36c0.08-0.09,0.19-0.08,0.3,0.01l0.43,0.36
						C25.86,19.95,25.89,20.06,25.81,20.15z"/>
					<path class="st1" d="M28.62,14.45c-0.46,0-0.84,0.18-1.08,0.18c-0.08,0-0.15-0.02-0.19-0.07c-0.15-0.18-0.4-0.39-0.8-0.21
						c-0.4,0.19-0.39,0.52-0.36,0.75c0.02,0.16-0.2,0.32-0.35,0.42l-0.07,0.05c-0.55,0.4-0.79,0.76-0.63,1.02
						c0.59,0.97,2.21,2.86,2.21,2.86c0,0,0.56-0.55,1.18-0.84c0.71-0.33,1.4-0.37,1.4-0.37c0,0-0.4-2.46-0.77-3.53
						C29.11,14.53,28.91,14.45,28.62,14.45z M25.68,16.41c0.03-0.06,0.13-0.19,0.42-0.4l0.06-0.04c0.19-0.13,0.59-0.41,0.59-0.84
						c0-0.04,0-0.08-0.01-0.12c-0.01-0.04-0.01-0.07-0.01-0.09c0-0.04,0-0.04,0.05-0.07c0.02-0.01,0.04-0.02,0.05-0.02
						c0.01,0,0.03,0.01,0.1,0.09c0.15,0.17,0.35,0.26,0.61,0.26c0.2,0,0.39-0.05,0.5-0.08l0.08-0.02c0.2-0.05,0.36-0.07,0.48-0.07
						c0.04,0,0.07,0,0.09,0.01c0.02,0.06,0.05,0.18,0.1,0.37c-0.36,0.07-0.71,0.18-1.06,0.31c-0.1-0.1-0.23-0.16-0.37-0.16
						c-0.07,0-0.15,0.02-0.21,0.05c-0.18,0.08-0.29,0.26-0.29,0.46c0,0.02,0,0.03,0.01,0.05c-0.34,0.19-0.67,0.4-0.97,0.64
						C25.78,16.56,25.72,16.46,25.68,16.41z M26.32,17.29c0.37-0.3,0.8-0.58,1.25-0.78c0.45-0.21,0.94-0.36,1.4-0.45
						c0,0,0.09,0.42,0.11,0.47c-0.28,0.05-0.56,0.13-0.83,0.23c-0.1-0.11-0.23-0.17-0.38-0.17c-0.07,0-0.14,0.02-0.21,0.05
						c-0.18,0.08-0.3,0.27-0.3,0.46c0,0.02,0,0.04,0.01,0.06c-0.27,0.15-0.52,0.32-0.76,0.51L26.32,17.29z M29.3,17.68
						c-0.19,0.04-0.37,0.09-0.55,0.15c-0.1-0.11-0.24-0.18-0.39-0.18c-0.07,0-0.14,0.02-0.21,0.05c-0.12,0.06-0.22,0.16-0.26,0.29
						c-0.02,0.05-0.03,0.11-0.03,0.18c0,0.03,0,0.05,0.01,0.07c-0.18,0.11-0.35,0.23-0.52,0.36l-0.31-0.38
						c0.3-0.24,0.65-0.47,1.02-0.64c0.37-0.17,0.77-0.3,1.15-0.37L29.3,17.68z"/>
					<path class="st1" d="M48.49,22.97c-0.14-0.09-0.24-0.13-0.38-0.19c0,0,0,0-0.6-0.27c-0.01-0.01-0.16-0.08-0.25-0.13l0.16,0.01
						c0.41,0,1.37,0,1.38-0.74c0-0.12-0.09-0.21-0.21-0.21c-0.06,0-0.11,0.02-0.15,0.06c-0.04,0.04-0.06,0.09-0.06,0.15
						c0,0.15-0.11,0.32-0.96,0.32c-0.53,0-1.02-0.23-1.36-0.43c0.33-0.03,0.66-0.17,0.94-0.41c0.36-0.3,0.57-0.69,0.61-1.13
						c0-0.05,0.01-0.1,0.01-0.16c0-0.39-0.13-0.76-0.34-1c-0.07-0.08-0.15-0.12-0.22-0.12c-0.05,0-0.1,0.02-0.14,0.06
						c-0.03,0.03-0.05,0.08-0.05,0.13c0,0.07,0.03,0.14,0.08,0.2c0.11,0.13,0.25,0.4,0.25,0.74c0,0.04,0,0.07,0,0.11
						c-0.03,0.33-0.19,0.62-0.46,0.85c-0.09,0.08-0.45,0.3-0.84,0.3c-0.03,0-0.06,0-0.09,0c0,0-0.05,0-0.05-0.01l-0.1-0.02
						c0,0,0.06,0.24-0.02,0.35c-0.08,0.1-0.36,0.01-0.36,0.01l-0.04,0.03l0.16,0.12c0.4,0.36,0.79,0.65,1.2,0.91l0.02,0.01h0
						c0.1,0.05,0.73,0.37,0.73,0.38l0.62,0.27c0.14,0.06,0.21,0.09,0.33,0.16c0.27,0.17,0.4,0.34,0.4,0.54
						c0,0.21-0.16,0.34-0.27,0.34c-0.08,0-0.2-0.06-0.2-0.27c0-0.12-0.09-0.21-0.21-0.21c-0.12,0-0.21,0.09-0.21,0.21
						c0,0.41,0.26,0.69,0.63,0.69c0.4,0,0.68-0.39,0.68-0.76C49.08,23.52,48.88,23.22,48.49,22.97z"/>
					<path class="st1" d="M28.3,19.07c0.23,0.04,0.41,0.24,0.42,0.25c0.04,0.05,0.11,0.06,0.17,0.04c0.06-0.03,0.09-0.09,0.08-0.15
						c0,0-0.04-0.29,0.09-0.49C28.82,18.77,28.49,18.93,28.3,19.07z"/>
					<path class="st1" d="M27.17,19.6c-0.11,0.14-0.52,0.66-0.84,1l-0.05,0.04c-0.27,0.33-0.58,0.49-0.91,0.49
						c-0.4,0-0.71-0.24-0.8-0.31c-0.27-0.23-0.43-0.52-0.46-0.85c-0.03-0.38,0.11-0.69,0.24-0.85c0.52-0.61,1.2-0.62,1.2-0.62
						c0.12,0,0.21-0.09,0.21-0.21c0-0.11-0.09-0.21-0.21-0.21c-0.04,0-0.89,0.01-1.52,0.77c-0.25,0.29-0.38,0.74-0.34,1.16
						c0.04,0.44,0.25,0.83,0.61,1.13c0.28,0.23,0.61,0.38,0.94,0.41c-0.34,0.2-0.83,0.43-1.36,0.43c-0.18,0-0.73,0-0.9-0.17
						c-0.04-0.04-0.06-0.08-0.06-0.15c0-0.12-0.09-0.21-0.21-0.21c-0.13,0-0.21,0.11-0.21,0.21c0,0.51,0.44,0.74,1.38,0.74
						l0.15-0.01l-0.25,0.13l-0.6,0.26c-0.15,0.06-0.24,0.1-0.39,0.19c-0.4,0.25-0.6,0.54-0.6,0.88c0,0.44,0.34,0.77,0.64,0.77
						c0.33,0,0.67-0.21,0.67-0.69c0-0.12-0.09-0.21-0.21-0.21c-0.06,0-0.11,0.02-0.15,0.06c-0.04,0.04-0.06,0.09-0.06,0.15
						c0,0.1-0.03,0.27-0.23,0.27c-0.1,0-0.24-0.14-0.25-0.31c-0.01-0.21,0.11-0.39,0.4-0.57c0.11-0.07,0.18-0.1,0.33-0.16l0.62-0.27
						l0,0c0.05-0.02,0.19-0.1,0.77-0.39c0.45-0.28,0.89-0.62,1.3-1.01c0.01-0.01,0.01-0.01,0.09-0.08c0.63-0.6,1.04-1.13,1.36-1.54
						C27.62,19.69,27.28,19.46,27.17,19.6z"/>
					<path class="st1" d="M41.2,18.2c-0.24,0-1.11,0.01-1.11,0.01v0.07l0,0.01l0,0.01c0.01,0.03,0.02,0.07,0.02,0.11
						c0,0.04-0.01,0.08-0.03,0.12l-0.04,0.09l1.24-0.03C41.51,18.6,41.43,18.2,41.2,18.2z"/>
					<path class="st1" d="M44.9,20.55l-0.1-0.11c-0.29-0.33-0.56-0.67-0.78-0.96c-0.07-0.09-0.52,0.01-0.33,0.26
						c0.19,0.25,0.44,0.57,0.72,0.89l0.05,0.03l0.05-0.03c0.03-0.02,0.14-0.07,0.24-0.08H44.9z"/>
					<path class="st1" d="M39.33,18.35c0,0-0.11-0.09-0.14-0.12l-0.02-0.16l-0.03-0.02c-0.59-0.29-0.61-0.98-0.61-1.05
						c0-0.2,0.04-0.4,0.13-0.58l0.01-0.02l-0.01-0.03c-0.01-0.02-0.01-0.05-0.01-0.06c0-0.19,0.13-0.34,0.28-0.34h0.04
						c0,0,0.05-0.22,0.36-0.45l0.24-0.2c0,0-0.39,0.11-0.42,0.12c-0.09-0.1-0.34-0.38-0.6-0.76c0.44-0.27,0.64-0.6,0.64-1.03
						c0-0.57-0.38-1.05-0.84-1.05c-0.43,0-0.76,0.45-0.76,0.85c0,0.41,0.25,0.9,0.35,1.07c-0.11,0.05-0.33,0.14-0.53,0.2
						c-0.05-0.14-0.18-0.51-0.43-0.87l-0.05-0.07l-0.06,0.06c-0.07,0.07-0.14,0.13-0.21,0.2l-0.04,0.04l0.03,0.05
						c0.15,0.24,0.29,0.52,0.36,0.73c-0.54,0.19-1.09,0.39-1.38,0.83c-0.28-0.41-0.85-0.65-1.38-0.83c0.04-0.11,0.14-0.39,0.36-0.74
						l0.03-0.05l-0.04-0.04c-0.07-0.06-0.14-0.13-0.2-0.2l-0.06-0.06l-0.05,0.07c-0.24,0.35-0.37,0.7-0.44,0.88
						c-0.18-0.06-0.36-0.13-0.53-0.2c0.1-0.17,0.35-0.65,0.35-1.07c0-0.4-0.32-0.85-0.75-0.85c-0.45,0-0.84,0.48-0.84,1.05
						c0,0.6,0.46,0.93,0.64,1.04c-0.09,0.13-0.33,0.47-0.59,0.75c-0.09-0.04-0.3-0.11-0.54-0.11c-1,0-1.55,0.65-1.57,0.67
						c-0.04,0.04-0.05,0.1-0.05,0.15c0.01,0.06,0.03,0.11,0.07,0.14c0.04,0.03,0.09,0.05,0.14,0.05c0.06,0,0.12-0.03,0.16-0.07
						c0-0.01,0.44-0.52,1.25-0.52c0.21,0,0.54,0.1,0.81,0.36c0.23,0.23,0.35,0.54,0.35,0.9c0,0.58-0.34,1.21-1.3,1.21l-0.1,0
						c-0.34,0-1.02,0-1.16,0c-0.14,0-0.12,0.4-0.01,0.4c0.29,0.01,0.69,0.02,1.01,0.02c2.01,0,3.31-0.65,3.55-0.78
						c0.17,0.12,0.7,0.49,0.88,0.49c0.17,0,0.71-0.36,0.88-0.49c0.19,0.12,1.04,0.59,2.78,0.73l0.19,0.02l-0.08-0.08L39.33,18.35z
						 M38.35,13.01c0.21,0,0.42,0.31,0.42,0.63c0,0.38-0.31,0.61-0.44,0.69c-0.09-0.15-0.31-0.56-0.31-0.89
						C38.02,13.29,38.14,13.01,38.35,13.01z M38.17,14.87c0.22,0.33,0.48,0.64,0.59,0.77c-0.15,0.11-0.48,0.4-0.61,0.9
						c0,0-0.38-0.1-0.59-0.16c0.02-0.08,0.05-0.23,0.05-0.42c0-0.41-0.06-0.71-0.08-0.84C37.65,15.08,37.92,14.98,38.17,14.87z
						 M32.51,13.64c0-0.32,0.2-0.63,0.42-0.63c0.21,0,0.34,0.28,0.34,0.43c0,0.33-0.23,0.74-0.31,0.89
						C32.83,14.25,32.51,14.02,32.51,13.64z M32.51,15.64c0.11-0.12,0.38-0.44,0.59-0.77c0.26,0.11,0.53,0.21,0.64,0.25
						c-0.03,0.12-0.08,0.42-0.08,0.84c0,0.19,0.03,0.34,0.05,0.42c-0.21,0.06-0.47,0.13-0.59,0.16C33,16.04,32.66,15.75,32.51,15.64
						z M32.84,18.05c0.14-0.19,0.35-0.56,0.34-1.09c0.38-0.1,0.57-0.15,0.68-0.19c0.18,0.38,0.44,0.66,0.56,0.78
						C34.21,17.65,33.65,17.9,32.84,18.05z M34.79,17.33c-0.23-0.21-0.41-0.43-0.53-0.66l0.41-0.12c0.25-0.09,0.39-0.3,0.34-0.5
						c-0.03-0.09-0.11-0.16-0.2-0.16c-0.02,0-0.04,0-0.05,0.01c-0.09,0.02-0.16,0.11-0.16,0.2c0,0.01,0,0.02,0,0.02
						c-0.01,0.01-0.04,0.02-0.07,0.03l-0.42,0.12c-0.02-0.1-0.03-0.21-0.03-0.31c0-0.24,0.02-0.48,0.06-0.7
						c0.66,0.23,1.25,0.48,1.25,1.04C35.4,16.68,35.2,17.03,34.79,17.33z M35.64,17.91c-0.2-0.1-0.41-0.24-0.51-0.31
						c0.12-0.09,0.34-0.3,0.51-0.6c0.17,0.3,0.4,0.51,0.52,0.6C36.05,17.67,35.85,17.81,35.64,17.91z M36.49,17.33
						c-0.41-0.3-0.61-0.64-0.61-1.03c0-0.55,0.59-0.81,1.25-1.04c0.04,0.23,0.06,0.46,0.06,0.7c0,0.1-0.01,0.21-0.03,0.31
						l-0.42-0.12c-0.03-0.01-0.05-0.02-0.06-0.03c0-0.01,0-0.01,0-0.02c0-0.09-0.06-0.18-0.16-0.2c-0.02,0-0.04-0.01-0.05-0.01
						c-0.09,0-0.18,0.06-0.2,0.15c-0.05,0.2,0.09,0.41,0.34,0.5l0.42,0.12C36.9,16.89,36.72,17.12,36.49,17.33z M36.87,17.55
						c0.13-0.12,0.39-0.4,0.56-0.78c0.1,0.03,0.3,0.09,0.68,0.19c-0.01,0.53,0.2,0.9,0.34,1.09C37.63,17.9,37.07,17.65,36.87,17.55z
						"/>
					<path class="st1" d="M45.31,16.39l0-0.02c-0.16-0.04-0.3-0.1-0.35-0.12c-0.18-0.08-0.64-0.4-0.64-0.85c0-0.03,0-0.07,0.01-0.1
						c0-0.03,0.01-0.05-0.01-0.09c-0.01,0-0.02,0.02-0.06,0.06c-0.14,0.16-0.33,0.24-0.56,0.24c-0.17,0-0.34-0.04-0.49-0.09
						c-0.07-0.02-0.24-0.09-0.4-0.22l-0.01,0.01c0,0,0.11,0.51-0.12,0.83c-0.3,0.44-0.65,0.55-0.83,0.86
						c-0.18,0.31,0.04,0.61,0.2,0.74c0.01,0.01,0.28,0.2,0.3,0.22c0.21,0.14,0.4,0.28,0.53,0.44l0.01,0c0.23,0,0.48,0.07,0.67,0.13
						l0.34,0.09c0.06,0.01,0.11,0.02,0.17,0.02c0.15,0,0.4-0.06,0.55-0.34c0.12-0.22-0.07-0.79,0.17-1.27
						C44.99,16.51,45.31,16.39,45.31,16.39z M43.8,17.18l-0.08,0.66l-0.33-0.59l-0.67,0.13l0.47-0.49l-0.32-0.58l0,0l0.61,0.28
						l0.47-0.49l-0.09,0.66l0.61,0.29L43.8,17.18z"/>
					<path class="st1" d="M45.38,21.27l0.06-0.03c-0.03-0.14-0.14-0.29-0.18-0.33l0.29-0.52c0.02,0,0.07,0,0.1,0.04
						c0.05,0.08,0.1,0.16,0.1,0.16l0.17-0.37l-0.1,0.55c0.02,0.01,0.16,0.13,0.16,0.13c0,0,0,0,0,0l0.2-0.04c0,0,0.01,0,0.01,0
						c0-0.01,0.13-0.58,0.12-0.65c0-0.05,0-0.25,0-0.33c0.02,0,0.06,0,0.11,0c0.15-0.01,0.36-0.25,0.46-0.31
						c-0.04,0.1-0.1,0.29-0.1,0.35c0,0.09-0.03,0.23-0.03,0.25c-0.04,0.12-0.1,0.26-0.13,0.39c0,0.01-0.01,0.03-0.01,0.05
						c0.21-0.18,0.33-0.41,0.35-0.66l0-0.09c0-0.26-0.1-0.49-0.19-0.59c-0.09-0.1-0.14-0.22-0.14-0.35c0-0.1,0.04-0.2,0.1-0.28
						c0.08-0.09,0.19-0.13,0.3-0.13c0.09,0,0.24,0.03,0.38,0.2c0.26,0.28,0.4,0.7,0.4,1.15l-0.01,0.18
						c-0.01,0.11-0.03,0.22-0.06,0.33c0.22-0.4,0.34-0.68,0.44-1.13c0.17-0.72,0.04-0.99,0.01-1.38c-0.02-0.22-0.04-0.51-0.35-0.51
						c-0.32-0.01-0.27,0.8-0.77,0.82c-0.05,0-0.15-0.05-0.18-0.07l0.03-0.23c0.07-0.02,0.28-0.1,0.26-0.32
						c0-0.04-0.01-0.07-0.02-0.09c0.19-0.16,0.22-0.31,0.22-0.45l0.25-0.08l-0.13-0.07l0.03-0.12L47.4,16.7l0.02-0.15l-0.12,0.01
						l-0.03-0.18l-0.18,0.21c-0.07-0.03-0.12-0.01-0.2,0.01c-0.03,0-0.17-0.01-0.22,0.09l-0.05,0.1c0.16-0.05,0.23,0.03,0.23,0.11
						c0,0.08,0.07,0.18,0.1,0.22l-0.05,0.07c-0.05-0.02-0.2-0.08-0.32-0.08c-0.12,0-0.23,0.11-0.32,0.17
						c-0.03,0-0.12-0.01-0.19,0.05l-0.05,0.05c-0.03-0.03-0.09-0.09-0.09-0.19c0-0.1,0.29-0.2,0.33-0.41
						c-0.15,0.07-0.35,0.21-0.45,0.28c-0.19,0.13-0.22,0.23-0.22,0.76c0,0.59-0.1,0.76-0.1,0.76s0.03,0.44,0.01,0.49
						c-0.04,0.09-0.39,0.34-0.44,0.39l-0.19-0.35c0.01-0.02,0.01-0.05,0.02-0.08c0.01-0.01,0.03-0.02,0.05-0.03
						c0.15-0.13,0.25-0.27,0.31-0.41c0.12-0.26,0.12-0.53,0.12-0.78c0-0.77,0.04-0.76,0.78-1.16l-0.15-0.94l-0.19,0.03
						c-0.11,0.02-0.31-0.04-0.46-0.12c-0.12-0.05-0.39-0.27-0.37-0.42c0.06-0.35-0.06-0.58-0.34-0.72c-0.29-0.13-0.54-0.07-0.77,0.2
						c-0.04,0.04-0.12,0.06-0.21,0.06c-0.58,0-0.81-0.52-0.81-0.52l-0.62,0.37c-0.03-0.03-0.14-0.19-0.3-0.28
						c-0.09-0.06-0.23-0.24-0.35-0.2c-0.06,0.02-0.21,0.22-0.27,0.27c-0.04,0.03-0.15,0.17-0.19,0.21
						c-0.03-0.07-0.28-0.32-0.42-0.42c-0.08-0.06-0.17-0.12-0.17-0.15c0-0.04,0.35-0.1,0.3-0.27c-0.03-0.1-0.21-0.11-0.25-0.11
						c-0.08-0.05-0.15-0.1-0.24-0.11l-0.13-0.31l-0.05,0.2l-0.14-0.13l-0.02,0.22l-0.17-0.09l0.06,0.17l-0.22-0.04l0.19,0.17
						l-0.29,0.04c0.04,0.14,0.35,0.21,0.45,0.22c0,0.02,0.01,0.05,0.02,0.08c0.05,0.16,0.2,0.32,0.33,0.44l0.05,0.22
						c-0.02,0.04-0.16,0.28-0.43,0.47c-0.09,0.06-0.16,0.13-0.23,0.19c-0.13,0.12-0.22,0.22-0.23,0.24
						c-0.03,0.02-0.23,0.15-0.32,0.32c-0.06,0.11-0.09,0.24-0.08,0.36c-0.05,0.02-0.13,0.04-0.15-0.01c-0.01-0.01,0-0.04,0-0.05
						c0.01-0.11-0.07-0.09-0.1-0.01c-0.01,0.03-0.02,0.08,0,0.12c0.06,0.14,0.19,0.14,0.29,0.11c0.04,0.07,0.09,0.12,0.14,0.17
						c0.04,0.04,0.1,0.09,0.12,0.14c0.05,0.13-0.14,0.41-0.23,0.52l-0.02,0.07c0,0,0.06,0.11,0.1,0.22c0.06,0.17,0.07,0.35,0.1,0.52
						l0.14,0.13l0.04,0.11l0.06,0.04c0.06,0.04,0.15,0.08,0.22,0.06c0.05-0.02,0.05-0.07,0.04-0.09c-0.02-0.05-0.16-0.2-0.2-0.26
						c-0.04-0.06-0.09-0.11-0.1-0.13c-0.02-0.2-0.04-0.4-0.08-0.6c0.05-0.04,0.22-0.19,0.32-0.33c0.09-0.14,0.21-0.3,0.25-0.35
						c0.03,0.02,0.09,0.06,0.12,0.13c0.03,0.09,0.02,0.22,0.01,0.23l0.07,0.08c0.2,0.05,0.45,0.33,0.45,0.33l0.26,0.04l0.08,0.09
						l0.03,0c0.08,0.23,0.23,0.44,0.44,0.61l0.03,0.02l0.41,0.29c0.11,0.08,0.22,0.16,0.3,0.23c0.09,0.19,0.06,0.37,0.06,0.44
						c0,0.06,0.02,0.12,0.08,0.15c0.06,0.03,0.12,0,0.17-0.03c0.05-0.03,0.28-0.21,0.39-0.24c0.11,0.02,0.23,0.05,0.35,0.08
						l0.49,0.13l0.01,0c0.22,0.05,0.43,0.04,0.63-0.01c0,0,0,0.01,0,0.01l0.03,0.04c0.13,0.03,0.22,0.02,0.37-0.03l0.19,0.32
						c0.01,0.05-0.02,0.25,0.06,0.25c0.08,0,0.37-0.11,0.41-0.11c0.02,0,0,0.05,0.01,0.12c0.01,0.16-0.1,0.18-0.09,0.41l-0.28,0.56
						c-0.14,0-0.21-0.09-0.35-0.08c-0.06,0-0.14,0.05-0.14,0.05l0,0.05c0,0,0.1,0,0.15-0.01c0.02,0,0.05,0.02,0.07,0.05
						c-0.13,0.02-0.26,0.14-0.26,0.14l0.02,0.06c0.03-0.02,0.17-0.08,0.24-0.09c0.05,0,0.1,0.01,0.13,0.02
						c-0.05,0.08-0.08,0.16-0.08,0.18l0.06,0.03c0.02-0.03,0.14-0.16,0.21-0.17C45.27,21.08,45.37,21.24,45.38,21.27z M41.52,14.68
						c0.04-0.13,0.12-0.2,0.17-0.2c0.12,0,0.35,0.29,0.37,0.33c0,0,0.09,0.34,0.09,0.63c0,0.18-0.17,0.35-0.23,0.4
						c0,0,0-0.56-0.04-0.69c-0.03-0.09-0.39-0.08-0.57-0.08l0-0.04C41.33,14.99,41.47,14.79,41.52,14.68z M41,17.16
						c0,0.06,0.01,0.12,0.02,0.18c0,0,0,0,0,0c-0.04-0.01-0.27-0.08-0.38-0.17c-0.06-0.05-0.18-0.24-0.18-0.37
						c0-0.15,0.02-0.34-0.07-0.57c0.05-0.04,0.38-0.28,0.77-0.74l0.39-0.08c0.09-0.02,0.08,0.01,0.09,0.07l0.08,0.45
						c-0.01,0.04-0.04,0.12-0.04,0.12S41,16.47,41,17.16z M44.63,18.58c-0.16,0.14-0.35,0.21-0.57,0.21c-0.07,0-0.14-0.01-0.22-0.02
						l-0.35-0.09c-0.19-0.05-0.42-0.12-0.61-0.12l-0.13,0.01l-0.05-0.06c-0.11-0.15-0.3-0.29-0.51-0.43c0,0-0.3-0.22-0.3-0.22
						c-0.23-0.18-0.35-0.42-0.35-0.69c0-0.15,0.03-0.26,0.07-0.36c0.08-0.18,0.23-0.3,0.39-0.43c0.14-0.11,0.29-0.23,0.41-0.4
						c0.02-0.02,0.03-0.04,0.05-0.07l0.05-0.08c0.04-0.08,0.06-0.19,0.06-0.31c0-0.12-0.02-0.23-0.04-0.33l-0.02-0.1l0.09-0.05
						c0.05-0.03,0.13-0.08,0.14-0.08l0.09-0.06l0.08,0.07c0.15,0.14,0.33,0.2,0.37,0.22c0.12,0.03,0.26,0.07,0.4,0.07
						c0.16,0,0.28-0.05,0.37-0.15c0.06-0.07,0.13-0.14,0.23-0.14c0.05,0,0.09,0.02,0.13,0.03c0.06,0.03,0.16,0.07,0.16,0.23
						c0,0.03,0,0.06-0.01,0.11c0,0.03-0.01,0.05-0.01,0.07c0,0.32,0.39,0.57,0.49,0.62c0.04,0.02,0.2,0.09,0.37,0.12l0.1,0.02
						l0.05,0.35l-0.09,0.07c-0.18,0.1-0.38,0.22-0.48,0.43l-0.03,0.09l0,0c-0.01,0.03-0.02,0.06-0.02,0.09
						c-0.04,0.17-0.04,0.3-0.04,0.42l0,0.25c0,0.17-0.01,0.32-0.08,0.46C44.79,18.41,44.72,18.5,44.63,18.58z"/>
					<rect x="32.93" y="11.87" class="st1" width="5.36" height="0.41"/>
					<path class="st1" d="M34,11.59c0.02-0.48,0.26-0.97,0.92-0.97c0.38,0,0.61,0.23,0.73,0.43c0.14-0.2,0.38-0.43,0.74-0.43
						c0.61,0,0.9,0.5,0.92,0.97h0.5c0-0.01,0-0.01,0-0.02c0-0.86-0.55-1.45-1.34-1.45c-0.2,0-0.37,0.04-0.51,0.1V8.69h0.76V8.21
						h-0.76V7.44h-0.52v0.77h-0.76v0.48h0.76v1.55c-0.16-0.08-0.35-0.13-0.59-0.13c-0.8,0-1.33,0.58-1.33,1.45c0,0.01,0,0.01,0,0.02
						H34z"/>
					<path class="st1" d="M33.78,12.57c0.43,0.92,1.25,1.74,1.87,1.74c0.62,0,1.44-0.82,1.87-1.74h-0.55
						c-0.35,0.66-0.9,1.24-1.32,1.24c-0.42,0-0.97-0.57-1.32-1.24H33.78z"/>
				</g>
			</g>
			<polygon class="st0" points="24.33,19.96 24.33,19.97 24.33,19.96 			"/>
			<polygon class="st0" points="24.33,19.96 24.33,19.97 24.33,19.96 			"/>
			<g>
				<path class="st0" d="M24.04,33.88c0,6.41,5.22,11.63,11.63,11.63c6.41,0,11.63-5.22,11.63-11.63c0-6.41-5.22-11.63-11.63-11.63
					C29.26,22.25,24.04,27.47,24.04,33.88z"/>
			</g>
			<g>
				<path class="st2" d="M36.53,38.42c0,0.48,0.39,0.86,0.86,0.86c0.48,0,0.86-0.39,0.86-0.86H36.53z"/>
				<path class="st2" d="M39.49,38.6c-0.18-0.04-0.33-0.1-0.42-0.15c-0.14,0.21-1.24,1.97-1.38,2.18c0.08,0.05,0.21,0.11,0.38,0.16
					c0.25,0.07,0.53,0.05,0.8,0.02c0.24-0.02,0.47-0.05,0.66,0.01c0.21,0.07,0.34,0.23,0.44,0.46c0,0,0.12-0.1,0.2-0.11l-0.18-2.53
					C39.82,38.65,39.66,38.65,39.49,38.6z"/>
				<path class="st2" d="M44.22,36.28c0,0,0.01,0,0.01,0c0.19,0,0.35-0.16,0.35-0.35c0-0.19-0.16-0.35-0.35-0.35
					c-0.19,0-0.35,0.16-0.35,0.35c0,0.01,0,0.02,0,0.02c-0.63,0.04-1.91,0.08-2.79-0.57c0.08-0.09,0.13-0.21,0.13-0.34
					c0-0.27-0.22-0.5-0.5-0.5s-0.5,0.22-0.5,0.5c0,0.13,0.05,0.25,0.13,0.34c-0.88,0.65-2.16,0.61-2.79,0.57c0-0.01,0-0.02,0-0.02
					c0-0.19-0.16-0.35-0.35-0.35c-0.19,0-0.35,0.16-0.35,0.35c0,0.19,0.16,0.35,0.35,0.35c0,0,0.01,0,0.01,0h2.91l0.45,6.35
					c0,0.07,0.06,0.13,0.13,0.13c0.07,0,0.13-0.06,0.13-0.13l0.45-6.35H44.22z"/>
				<path class="st2" d="M42.06,39.06c-0.15-0.1-0.28-0.19-0.45-0.23c-0.05-0.01-0.1-0.02-0.14-0.02l-0.2,2.66
					c0.26,0.13,0.49,0.33,0.64,0.36c0.15,0.04,0.32,0.02,0.32,0.02s0.9-2.04,1.04-2.38c-0.12-0.01-0.39-0.06-0.56-0.1
					C42.42,39.31,42.23,39.18,42.06,39.06z"/>
				<path class="st2" d="M44.07,39.28c0.48,0,0.86-0.39,0.86-0.86h-1.73C43.21,38.9,43.59,39.28,44.07,39.28z"/>
			</g>
			<g>
				<path class="st2" d="M40.81,26.68c0.51,0,0.92-0.41,0.92-0.92c0-0.51-0.41-0.92-0.92-0.92c-0.51,0-0.92,0.41-0.92,0.92
					C39.88,26.27,40.3,26.68,40.81,26.68z M40.81,25.43c0.18,0,0.33,0.15,0.33,0.33c0,0.18-0.15,0.33-0.33,0.33
					c-0.18,0-0.33-0.15-0.33-0.33C40.48,25.58,40.63,25.43,40.81,25.43z"/>
				<polygon class="st2" points="38.38,32.58 39.03,32.58 39.03,30.99 38.38,32.12 				"/>
				<path class="st2" d="M39.81,29.63l-0.37,0.65v2.29h0.64V30.2c0-0.11,0.09-0.2,0.2-0.2c0.11,0,0.2,0.09,0.2,0.2v2.38h0.64V30.2
					c0-0.11,0.09-0.2,0.2-0.2c0.11,0,0.2,0.09,0.2,0.2v2.38h0.64v-2.3l-0.37-0.64H39.81z"/>
				<path class="st2" d="M40.27,26.94c-0.17-0.08-0.31-0.19-0.43-0.32c-0.78,1.99-2.54,6.46-2.54,6.46c0,0,0.09,0.05,0.09,0.05
					l3.21-5.61L40.27,26.94z"/>
				<path class="st2" d="M38.21,29.49c0-0.36-0.19-0.58-0.51-0.58c-0.15,0-0.32,0.09-0.32,0.28c0,0.19,0.13,0.22,0.22,0.22
					c0.1,0,0.19,0.08,0.19,0.19c0,0.1-0.08,0.19-0.19,0.19c-0.35,0-0.6-0.25-0.6-0.6c0-0.38,0.3-0.66,0.7-0.66
					c0.38,0,0.67,0.2,0.8,0.53l0.37-0.93h-1.05c-0.73,0-1.19,0.43-1.19,1.12c0,0.5,0.41,0.91,0.91,0.91
					C37.93,30.15,38.21,29.87,38.21,29.49z"/>
				<polygon class="st2" points="41.59,29.25 40.95,28.12 40.67,28.12 40.02,29.25 				"/>
				<polygon class="st2" points="42.58,32.58 43.23,32.58 43.23,32.11 42.58,30.99 				"/>
				<path class="st2" d="M44.98,29.24c0-0.69-0.45-1.12-1.19-1.12h-1.05l0.37,0.93c0.13-0.32,0.42-0.52,0.8-0.52
					c0.4,0,0.7,0.28,0.7,0.66c0,0.35-0.25,0.6-0.6,0.6c-0.1,0-0.19-0.09-0.19-0.19c0-0.1,0.09-0.19,0.19-0.19
					c0.08,0,0.22-0.03,0.22-0.22c0-0.19-0.16-0.28-0.32-0.28c-0.32,0-0.51,0.22-0.51,0.58c0,0.38,0.28,0.66,0.66,0.66
					C44.57,30.15,44.98,29.74,44.98,29.24z"/>
				<path class="st2" d="M40.81,27.06c-0.03,0-0.05-0.01-0.08-0.01l3.48,6.08l0.09-0.05c0,0-1.75-4.47-2.53-6.46
					C41.53,26.89,41.19,27.06,40.81,27.06z"/>
			</g>
			<g>
				<path class="st2" d="M27.51,29.04c0,0.51,0.4,0.8,0.75,1.05c0.23,0.17,0.52,0.31,0.64,0.5l0.74-0.2c0,0,0.3-0.2,0.44-0.3
					c0.35-0.25,0.75-0.54,0.75-1.05v-0.38h-3.33V29.04z"/>
				<path class="st2" d="M28.65,31.36l1.12-0.31c0.1-0.03,0.16-0.13,0.13-0.23c-0.03-0.1-0.13-0.16-0.23-0.13l-1.12,0.31
					c-0.1,0.03-0.16,0.13-0.13,0.23C28.44,31.33,28.55,31.38,28.65,31.36z"/>
				<path class="st2" d="M29.7,31.45l-1.13,0.31c-0.1,0.03-0.16,0.13-0.13,0.23c0.03,0.1,0.13,0.16,0.23,0.13l1.12-0.31
					c0.1-0.03,0.16-0.13,0.13-0.23C29.91,31.48,29.81,31.43,29.7,31.45z"/>
				<polygon class="st2" points="33.02,23.93 31.98,23.93 31.98,26.03 30.15,26.03 30.15,27.07 31.98,27.07 31.98,33.07 
					33.02,33.07 33.02,27.07 34.84,27.07 34.84,26.03 33.02,26.03 				"/>
				<path class="st2" d="M28.73,27.67c-0.25-0.06-0.47-0.08-0.76-0.08c-0.61,0-1.34,0.51-1.34,1.45c0,1.09,0.85,1.58,1.58,1.85
					c0.06-0.08,0.15-0.15,0.25-0.17l0.05-0.01c-0.11-0.09-0.39-0.22-0.79-0.52c-0.35-0.26-0.69-0.56-0.69-1.15
					c0-0.68,0.53-1.05,0.94-1.05c0.24,0,0.5,0.03,0.7,0.1c0.19,0.06,0.42,0.24,0.7,0.24c0.47,0,0.63-0.2,0.63-0.2l0.03-0.18
					c0,0-0.35-0.34-0.68-0.34C29.05,27.61,28.74,27.67,28.73,27.67z M29.51,27.91c0,0.05-0.04,0.1-0.1,0.1c-0.05,0-0.1-0.04-0.1-0.1
					s0.04-0.1,0.1-0.1C29.47,27.81,29.51,27.86,29.51,27.91z"/>
				<path class="st2" d="M29.39,32.23l-0.52,0.14c-0.2,0.2-0.68,0.44-0.68,0.64v0.05h1.96v-0.05C30.15,32.77,29.4,32.46,29.39,32.23
					z"/>
			</g>
			<g>
				<path class="st0" d="M26.31,42.24c-0.04-0.05-0.14-0.18-0.25-0.3c-0.02-0.03-0.05-0.04-0.07-0.02
					c-0.02,0.02-0.01,0.04,0.01,0.06c0.13,0.15,0.13,0.19-0.16,0.44l-0.95,0.82c-0.03,0.02-0.04,0.03-0.11-0.05
					c-0.16-0.19-0.12-0.41,0.1-0.59c0.19-0.16,0.41-0.13,0.52-0.01c0.04,0.05,0.07,0.05,0.08,0.04c0.03-0.03-0.02-0.08-0.03-0.1
					c-0.24-0.28-0.6-0.32-0.88-0.08c-0.24,0.2-0.16,0.51,0.05,0.76c0.08,0.09,0.18,0.2,0.24,0.27c0.05,0.05,0.14,0.18,0.23,0.28
					c0.03,0.04,0.05,0.04,0.07,0.03c0.02-0.02,0.02-0.04-0.01-0.06c-0.1-0.12-0.11-0.17,0.02-0.28l0.92-0.79
					c0.24-0.21,0.29-0.21,0.37-0.1c0.02,0.02,0.04,0.04,0.06,0.02c0.02-0.02,0.02-0.04-0.01-0.07
					C26.46,42.4,26.35,42.28,26.31,42.24z"/>
				<path class="st0" d="M24.93,40.29c-0.33-0.55-0.93-0.67-1.43-0.38c-0.49,0.3-0.6,0.82-0.28,1.37c0.39,0.66,1.02,0.62,1.39,0.4
					C25,41.46,25.31,40.92,24.93,40.29z M23.38,41.28c-0.21-0.35-0.08-0.8,0.39-1.08c0.61-0.37,0.89-0.06,0.97,0.08
					c0.24,0.41,0.04,0.86-0.4,1.12C23.83,41.72,23.53,41.52,23.38,41.28z"/>
				<path class="st0" d="M24.1,39.02c0.01,0.04,0.03,0.05,0.05,0.04c0.03-0.01,0.03-0.04,0.01-0.08c-0.04-0.12-0.09-0.23-0.1-0.25
					c-0.02-0.05-0.04-0.14-0.1-0.3c-0.01-0.04-0.04-0.06-0.06-0.05c-0.02,0.01-0.02,0.02-0.01,0.06c0.05,0.15,0.03,0.22-0.2,0.31
					l-0.96,0.35l0.83-1.7c0.02-0.04,0.03-0.08,0.02-0.11c-0.01-0.03-0.04-0.04-0.1-0.02l-1.5,0.5c-0.15,0.05-0.2,0.04-0.25-0.08
					c-0.01-0.04-0.03-0.05-0.05-0.05c-0.03,0.01-0.02,0.04-0.01,0.08c0.04,0.12,0.08,0.21,0.09,0.23c0.02,0.05,0.05,0.17,0.09,0.29
					c0.02,0.05,0.04,0.07,0.06,0.06c0.03-0.01,0.02-0.03,0.01-0.06c-0.06-0.16-0.03-0.21,0.15-0.27l1.03-0.39l-0.85,1.68
					c-0.02,0.04-0.05,0.1-0.03,0.15c0.01,0.03,0.05,0.03,0.1,0.01l1.45-0.49C24.03,38.85,24.05,38.89,24.1,39.02z"/>
				<path class="st0" d="M21.87,37.07c0.03,0,0.05-0.01,0.05-0.05c0-0.02-0.02-0.03-0.05-0.03c-0.09,0-0.16-0.05-0.19-0.25
					l-0.07-0.35l1.23-0.2c0.39-0.06,0.43-0.05,0.45,0.09c0,0.03,0.02,0.05,0.04,0.04c0.02,0,0.03-0.02,0.03-0.07
					c-0.02-0.1-0.05-0.26-0.06-0.31c-0.01-0.07-0.03-0.23-0.06-0.39c-0.01-0.04-0.02-0.06-0.05-0.05c-0.03,0-0.03,0.03-0.02,0.06
					c0.03,0.2,0.01,0.23-0.4,0.3l-1.21,0.2l-0.04-0.3c-0.03-0.22,0.01-0.29,0.11-0.31c0.05-0.01,0.06-0.03,0.05-0.05
					c-0.01-0.02-0.02-0.03-0.06-0.02c-0.06,0.01-0.24,0.03-0.29,0.04c-0.05,0.01-0.06,0.02-0.06,0.04c0,0.02,0.04,0.08,0.07,0.23
					l0.18,1.12c0.02,0.12-0.01,0.21-0.01,0.23c0,0.02,0.02,0.03,0.06,0.03C21.6,37.07,21.81,37.08,21.87,37.07z"/>
				<path class="st0" d="M21.33,34.87c-0.01-0.14,0.03-0.16,0.13-0.17c0.08-0.01,0.15-0.01,0.53-0.03l0.44-0.02
					c0.24-0.01,0.44-0.02,0.54-0.01c0.11,0.01,0.13,0.04,0.13,0.15c0,0.03,0.01,0.05,0.03,0.05c0.02,0,0.04-0.02,0.04-0.07
					c-0.01-0.1-0.02-0.26-0.02-0.32c0-0.07,0-0.23-0.01-0.39c0-0.04-0.02-0.06-0.04-0.06c-0.02,0-0.03,0.03-0.03,0.05
					c0.01,0.14-0.01,0.21-0.11,0.22c-0.11,0.01-0.3,0.02-0.54,0.03l-0.44,0.02c-0.38,0.02-0.45,0.02-0.52,0.02
					c-0.11-0.01-0.14-0.04-0.14-0.15c0-0.02-0.01-0.05-0.04-0.05c-0.02,0-0.03,0.03-0.03,0.07c0,0.1,0.02,0.24,0.02,0.31
					c0,0.07,0,0.23,0.01,0.33c0,0.05,0.02,0.07,0.04,0.07C21.32,34.92,21.33,34.89,21.33,34.87z"/>
				<path class="st0" d="M21.26,33.4c0.02,0,0.03-0.02,0.03-0.05c0.01-0.18,0.04-0.2,0.3-0.18l1.12,0.08
					c0.35,0.03,0.36,0.06,0.35,0.19c0,0.03,0,0.05,0.03,0.05c0.03,0,0.04-0.02,0.04-0.06c0.01-0.1,0.01-0.26,0.02-0.32
					c0.01-0.07,0.02-0.22,0.04-0.38c0-0.05-0.01-0.07-0.03-0.07c-0.03,0-0.03,0.02-0.04,0.05c-0.01,0.19-0.02,0.23-0.38,0.2
					l-0.4-0.03c-0.01,0-0.01-0.01-0.01-0.02c0-0.04,0.02-0.29,0.03-0.36c0.02-0.09,0.09-0.12,0.17-0.12c0.02,0,0.05-0.01,0.05-0.03
					c0-0.03-0.03-0.04-0.06-0.04c-0.19-0.01-0.28-0.05-0.33-0.06c-0.02,0-0.03,0-0.04,0.02c0,0.04,0.07,0.04,0.06,0.16l-0.03,0.41
					c0,0.01,0,0.02-0.01,0.02l-0.72-0.05c-0.01,0-0.02-0.01-0.02-0.02l0.03-0.38c0.01-0.09,0.05-0.14,0.08-0.15
					c0.03-0.01,0.06-0.01,0.09-0.01c0.04,0,0.05-0.01,0.06-0.03c0-0.02-0.02-0.03-0.04-0.04c-0.03-0.01-0.18-0.02-0.2-0.03
					c-0.03-0.01-0.06-0.01-0.1-0.02c0,0-0.01,0-0.02,0c-0.02,0-0.04,0.01-0.04,0.03c0,0.01,0,0.02,0.01,0.03l0,0.01
					c0.01,0.03,0,0.08,0,0.11c0,0.06-0.04,0.57-0.05,0.66c-0.01,0.07-0.02,0.23-0.03,0.36C21.22,33.37,21.23,33.4,21.26,33.4z"/>
				<path class="st0" d="M21.49,31.48c0.03-0.14,0.07-0.15,0.16-0.14c0.08,0.01,0.15,0.03,0.52,0.09l0.43,0.08
					c0.24,0.05,0.43,0.08,0.53,0.12c0.11,0.03,0.12,0.07,0.1,0.17c-0.01,0.03,0,0.05,0.02,0.06c0.02,0,0.04-0.01,0.05-0.05
					c0.02-0.1,0.04-0.26,0.05-0.31c0.01-0.07,0.05-0.22,0.08-0.38c0.01-0.04,0-0.07-0.03-0.07c-0.02,0-0.04,0.02-0.04,0.05
					c-0.03,0.14-0.06,0.2-0.16,0.19c-0.11-0.01-0.3-0.05-0.54-0.09l-0.43-0.08c-0.37-0.07-0.44-0.08-0.51-0.1
					c-0.11-0.03-0.13-0.07-0.1-0.18c0-0.02,0-0.05-0.03-0.06c-0.02,0-0.03,0.02-0.04,0.06c-0.02,0.1-0.04,0.24-0.05,0.3
					c-0.01,0.07-0.05,0.23-0.07,0.32c-0.01,0.05,0,0.07,0.02,0.08C21.48,31.53,21.49,31.5,21.49,31.48z"/>
				<path class="st0" d="M22.59,30.27c0.67,0.24,1.15-0.19,1.36-0.78c0.05-0.15,0.1-0.34,0.1-0.45c0-0.05-0.02-0.07-0.05-0.1
					c-0.07-0.05-0.27-0.15-0.3-0.16c-0.03-0.01-0.05-0.01-0.06,0.02c-0.01,0.03,0,0.04,0.04,0.06c0.18,0.12,0.22,0.26,0.1,0.6
					c-0.14,0.42-0.53,0.64-1.09,0.45c-0.44-0.17-0.67-0.47-0.51-0.92c0.1-0.28,0.3-0.53,0.55-0.44c0.04,0.01,0.07,0.01,0.08-0.02
					c0.01-0.03-0.01-0.04-0.05-0.06c-0.05-0.02-0.17-0.07-0.25-0.1c-0.08-0.04-0.11-0.05-0.13-0.06c-0.02-0.01-0.04,0-0.05,0.03
					c-0.05,0.12-0.18,0.28-0.27,0.56C21.86,29.47,22.02,30.07,22.59,30.27z"/>
				<path class="st0" d="M22.72,27.63c0.06-0.12,0.11-0.12,0.19-0.08c0.08,0.03,0.14,0.07,0.47,0.24l0.39,0.2
					c0.21,0.11,0.39,0.2,0.47,0.26c0.09,0.06,0.09,0.1,0.04,0.19c-0.01,0.03-0.02,0.05,0,0.06c0.02,0.01,0.04,0,0.07-0.04
					c0.04-0.09,0.11-0.24,0.14-0.29c0.03-0.06,0.11-0.2,0.19-0.34c0.02-0.04,0.01-0.06-0.01-0.08c-0.02-0.01-0.04,0.01-0.05,0.03
					c-0.06,0.12-0.11,0.18-0.2,0.14c-0.1-0.04-0.28-0.13-0.49-0.24l-0.39-0.2c-0.34-0.17-0.4-0.2-0.47-0.24
					c-0.09-0.06-0.1-0.1-0.05-0.2c0.01-0.02,0.02-0.05-0.01-0.07c-0.02-0.01-0.04,0.01-0.06,0.05c-0.04,0.09-0.11,0.22-0.14,0.28
					c-0.03,0.07-0.11,0.2-0.16,0.29c-0.02,0.05-0.02,0.07,0,0.08C22.69,27.68,22.71,27.65,22.72,27.63z"/>
				<path class="st0" d="M24.73,27.13c0.1,0.16,0.11,0.23,0.02,0.36c-0.01,0.02-0.02,0.04,0,0.05c0.02,0.02,0.04,0.01,0.07-0.03
					c0.07-0.11,0.15-0.22,0.17-0.25c0.04-0.06,0.11-0.15,0.16-0.22c0.02-0.03,0.03-0.05,0-0.06c-0.02-0.02-0.04-0.01-0.07,0.04
					c-0.05,0.07-0.08,0.07-0.11,0.05c-0.02-0.01-0.06-0.06-0.1-0.12l-0.15-0.23c-0.01-0.01,0-0.02,0-0.03l0.35-0.5
					c0.01-0.01,0.01-0.01,0.02-0.01l0.44,0.11c0.02,0.01-0.04,0.12-0.04,0.13c-0.01,0.02-0.02,0.04,0,0.05
					c0.02,0.01,0.05,0,0.09-0.06c0.03-0.04,0.11-0.17,0.15-0.23c0.04-0.06,0.11-0.14,0.15-0.19c0.06-0.09,0.06-0.12,0.04-0.13
					c-0.02-0.01-0.04-0.01-0.05,0.02c-0.07,0.1-0.22,0.08-0.37,0.05c-0.4-0.08-1.47-0.33-1.61-0.36c-0.07-0.01-0.1-0.01-0.12,0.01
					c-0.01,0.02,0,0.06,0.04,0.13L24.73,27.13z M24.18,25.95l0.01,0l0.74,0.19l-0.31,0.43L24.18,25.95
					C24.18,25.95,24.18,25.95,24.18,25.95L24.18,25.95z"/>
				<path class="st0" d="M27.68,23.04l-0.41-0.49c-0.16-0.19-0.18-0.23-0.06-0.33c0.03-0.03,0.04-0.05,0.02-0.07
					c-0.02-0.02-0.04-0.01-0.07,0.02c-0.07,0.06-0.15,0.13-0.21,0.19c-0.05,0.04-0.13,0.1-0.23,0.18c-0.04,0.03-0.04,0.05-0.03,0.07
					c0.02,0.02,0.04,0.02,0.07-0.01c0.14-0.12,0.17-0.09,0.33,0.1l0.44,0.53c0.31,0.39,0.38,0.64,0.1,0.87
					c-0.32,0.27-0.58,0.08-0.83-0.22l-0.47-0.56c-0.16-0.19-0.16-0.24-0.06-0.32c0.03-0.02,0.03-0.04,0.02-0.06
					c-0.01-0.02-0.04-0.02-0.08,0.01c-0.07,0.06-0.16,0.15-0.23,0.21c-0.1,0.09-0.19,0.14-0.29,0.23c-0.04,0.03-0.04,0.05-0.03,0.07
					c0.01,0.02,0.03,0.02,0.06-0.01c0.13-0.11,0.17-0.11,0.34,0.09l0.47,0.57c0.37,0.45,0.74,0.48,1.15,0.14
					C28.12,23.89,28.05,23.47,27.68,23.04z"/>
				<path class="st0" d="M28.76,22.98c0.12,0.22,0.08,0.25-0.03,0.31c-0.03,0.02-0.04,0.03-0.03,0.05c0.01,0.03,0.04,0.02,0.08,0
					c0.11-0.06,0.22-0.13,0.23-0.14c0.04-0.02,0.14-0.07,0.28-0.15c0.04-0.02,0.06-0.05,0.04-0.07c-0.01-0.01-0.03-0.02-0.06,0
					c-0.14,0.07-0.21,0.07-0.33-0.14l-0.5-0.89l1.82,0.54c0.04,0.01,0.08,0.02,0.11,0.01c0.02-0.01,0.03-0.05,0-0.1l-0.74-1.39
					c-0.07-0.14-0.08-0.2,0.04-0.26c0.03-0.02,0.05-0.04,0.04-0.06c-0.01-0.02-0.04-0.02-0.08,0c-0.11,0.06-0.19,0.11-0.21,0.13
					c-0.05,0.03-0.16,0.07-0.27,0.14c-0.04,0.03-0.06,0.05-0.05,0.07c0.01,0.02,0.04,0.02,0.06,0c0.15-0.08,0.2-0.07,0.29,0.1
					l0.55,0.95l-1.8-0.56c-0.04-0.01-0.11-0.03-0.15-0.01c-0.03,0.01-0.02,0.05,0.01,0.1L28.76,22.98z"/>
				<path class="st0" d="M30.42,20.49c0.13-0.05,0.16-0.02,0.2,0.07c0.03,0.08,0.05,0.14,0.19,0.5l0.15,0.41
					c0.08,0.23,0.15,0.41,0.17,0.51c0.03,0.11,0,0.14-0.1,0.17c-0.03,0.01-0.05,0.02-0.04,0.05c0.01,0.02,0.03,0.03,0.07,0.02
					c0.09-0.04,0.24-0.1,0.3-0.12c0.06-0.02,0.22-0.07,0.37-0.12c0.04-0.01,0.05-0.04,0.05-0.06c-0.01-0.02-0.04-0.02-0.06-0.01
					c-0.13,0.05-0.2,0.06-0.24-0.04c-0.04-0.1-0.11-0.28-0.2-0.51l-0.15-0.41c-0.13-0.36-0.16-0.42-0.18-0.5
					c-0.03-0.11-0.01-0.14,0.1-0.18c0.02-0.01,0.05-0.02,0.04-0.06c-0.01-0.02-0.03-0.02-0.07-0.01c-0.09,0.03-0.23,0.09-0.29,0.11
					c-0.07,0.03-0.22,0.07-0.31,0.11c-0.05,0.02-0.07,0.04-0.06,0.06C30.37,20.5,30.4,20.5,30.42,20.49z"/>
				<path class="st0" d="M33.59,19.62c0.04-0.01,0.05-0.02,0.05-0.04c0-0.02-0.03-0.03-0.07-0.02c-0.07,0.02-0.14,0.04-0.23,0.06
					c-0.07,0.01-0.14,0.02-0.26,0.05c-0.06,0.01-0.08,0.03-0.07,0.06c0,0.02,0.03,0.02,0.06,0.02c0.08-0.02,0.12-0.01,0.13,0.02
					c0,0.02,0.01,0.06,0,0.09l-0.22,1.3l-0.65-1c-0.06-0.08-0.09-0.15-0.1-0.17c-0.01-0.06,0.05-0.07,0.1-0.08
					c0.03-0.01,0.05-0.02,0.04-0.04c0-0.02-0.04-0.03-0.08-0.02c-0.12,0.03-0.24,0.06-0.3,0.07c-0.09,0.02-0.23,0.04-0.36,0.07
					c-0.05,0.01-0.08,0.03-0.07,0.05c0.01,0.02,0.02,0.03,0.05,0.02c0.16-0.03,0.24,0.03,0.31,0.13l0.97,1.4
					c0.04,0.06,0.08,0.09,0.1,0.09c0.04-0.01,0.05-0.05,0.07-0.15l0.34-1.61C33.44,19.7,33.47,19.64,33.59,19.62z"/>
				<path class="st0" d="M35.46,20.92c-0.03,0-0.03,0.02-0.04,0.05c-0.01,0.1-0.03,0.15-0.09,0.18c-0.06,0.03-0.25,0.05-0.32,0.05
					c-0.18,0.01-0.2,0.01-0.22-0.16c0-0.07-0.02-0.29-0.04-0.57c0-0.01,0-0.01,0.01-0.01c0.02,0,0.3-0.01,0.34-0.02
					c0.12-0.01,0.15,0.09,0.15,0.16c0,0.02,0.01,0.04,0.04,0.03c0.03,0,0.03-0.04,0.03-0.06c-0.01-0.13,0.01-0.32,0.01-0.35
					c0-0.02-0.02-0.03-0.03-0.03c-0.02,0-0.03,0.03-0.06,0.05c-0.02,0.01-0.08,0.05-0.21,0.06c-0.11,0.01-0.23,0.01-0.27,0.01
					c-0.01,0-0.02,0-0.02-0.02l-0.04-0.67c0-0.01,0-0.01,0.01-0.01c0.49-0.03,0.51-0.02,0.54,0.14c0,0.02,0.01,0.05,0.04,0.04
					c0.03,0,0.04-0.02,0.04-0.04c-0.01-0.2,0.01-0.28,0.01-0.33c0-0.02-0.01-0.04-0.03-0.03c-0.02,0-0.06,0.03-0.15,0.04
					c-0.05,0-0.55,0.04-0.63,0.04c-0.07,0-0.23,0.01-0.36,0.02c-0.05,0-0.07,0.02-0.06,0.04c0,0.02,0.02,0.03,0.06,0.03
					c0.14-0.01,0.2,0.02,0.2,0.12c0,0.08,0.01,0.15,0.04,0.52l0.03,0.44c0.01,0.13,0.01,0.25,0.02,0.35c0.02,0.28,0,0.31-0.14,0.32
					c-0.03,0-0.05,0.01-0.05,0.04c0,0.02,0.02,0.04,0.06,0.03c0.1-0.01,0.26-0.02,0.32-0.03c0.27-0.02,0.52-0.02,0.76-0.04
					c0.05-0.01,0.07-0.02,0.09-0.08c0.01-0.05,0.02-0.22,0.01-0.28C35.49,20.94,35.49,20.92,35.46,20.92z"/>
				<path class="st0" d="M36.06,21.33c0.1,0.01,0.26,0.02,0.31,0.02c0.04,0,0.22,0.03,0.37,0.04c0.04,0,0.06-0.01,0.06-0.03
					c0-0.02-0.02-0.04-0.04-0.04c-0.2-0.02-0.22-0.07-0.19-0.33l0.04-0.39c0-0.01,0-0.01,0.01-0.01l0.22,0.03
					c0.02,0,0.03,0.01,0.04,0.02c0.08,0.12,0.15,0.24,0.21,0.36c0.17,0.29,0.31,0.45,0.59,0.47l0.24,0.02c0.04,0,0.06,0,0.06-0.03
					c0-0.02-0.02-0.04-0.04-0.04c-0.2-0.02-0.36-0.15-0.81-0.89c0.26-0.15,0.36-0.34,0.37-0.52c0.03-0.35-0.28-0.49-0.6-0.52
					c-0.08-0.01-0.27-0.01-0.35-0.02c-0.05-0.01-0.21-0.03-0.34-0.04c-0.05-0.01-0.07,0.01-0.07,0.03
					c-0.01,0.02,0.01,0.04,0.05,0.04c0.19,0.02,0.2,0.06,0.18,0.28l-0.11,1.19c-0.02,0.24-0.04,0.3-0.19,0.29
					c-0.03,0-0.05,0.01-0.06,0.03C35.99,21.31,36.01,21.32,36.06,21.33z M36.68,19.65c0-0.02,0.01-0.03,0.15-0.02
					c0.22,0.02,0.36,0.2,0.33,0.47c-0.02,0.23-0.12,0.4-0.35,0.37c-0.14-0.01-0.2-0.03-0.19-0.08L36.68,19.65z"/>
				<path class="st0" d="M39.29,21.32c0.14-0.57-0.58-0.83-0.49-1.19c0.03-0.14,0.16-0.22,0.33-0.17c0.19,0.05,0.29,0.21,0.25,0.34
					c-0.01,0.03,0,0.06,0.03,0.06c0.03,0.01,0.04-0.01,0.06-0.08c0.05-0.19,0.07-0.26,0.08-0.29c0-0.01,0-0.03-0.02-0.05
					c-0.05-0.04-0.17-0.08-0.33-0.12c-0.34-0.08-0.63,0.05-0.69,0.34c-0.13,0.55,0.57,0.79,0.47,1.22
					c-0.03,0.12-0.17,0.24-0.38,0.19c-0.25-0.06-0.32-0.27-0.28-0.44c0.01-0.03,0.01-0.05-0.02-0.06c-0.03-0.01-0.05,0.02-0.06,0.06
					l-0.09,0.34c-0.02,0.07,0.14,0.17,0.39,0.23C38.86,21.78,39.21,21.66,39.29,21.32z"/>
				<path class="st0" d="M40.45,22.23c0.01-0.02-0.01-0.04-0.04-0.05c-0.13-0.05-0.19-0.09-0.16-0.19c0.03-0.1,0.1-0.29,0.18-0.51
					l0.15-0.41c0.13-0.35,0.15-0.42,0.19-0.49c0.05-0.1,0.09-0.11,0.19-0.07c0.02,0.01,0.05,0.01,0.06-0.02
					c0-0.02-0.01-0.04-0.05-0.05c-0.09-0.03-0.23-0.08-0.29-0.1c-0.07-0.03-0.21-0.09-0.31-0.12c-0.05-0.02-0.07-0.01-0.08,0.01
					c-0.01,0.03,0.02,0.05,0.04,0.05c0.13,0.05,0.13,0.09,0.11,0.18c-0.02,0.08-0.05,0.14-0.18,0.5l-0.15,0.41
					c-0.08,0.23-0.15,0.41-0.2,0.5c-0.05,0.1-0.09,0.1-0.19,0.07c-0.03-0.01-0.05-0.01-0.06,0.01c-0.01,0.02,0.01,0.04,0.05,0.06
					c0.1,0.03,0.25,0.08,0.3,0.1c0.06,0.02,0.21,0.09,0.36,0.15C40.41,22.26,40.44,22.26,40.45,22.23z"/>
				<path class="st0" d="M40.91,22.39c-0.01,0.02,0,0.04,0.04,0.06c0.09,0.05,0.23,0.12,0.28,0.15c0.11,0.06,0.29,0.2,0.45,0.29
					c0.55,0.31,1.15,0.27,1.48-0.32c0.33-0.59,0.01-1.06-0.65-1.43c-0.13-0.07-0.27-0.15-0.34-0.18c-0.06-0.03-0.2-0.12-0.31-0.19
					c-0.04-0.02-0.07-0.02-0.08,0c-0.01,0.02,0,0.04,0.03,0.06c0.12,0.07,0.15,0.12,0.1,0.21c-0.04,0.07-0.07,0.13-0.26,0.46
					l-0.21,0.38c-0.31,0.55-0.34,0.57-0.44,0.51C40.95,22.38,40.93,22.37,40.91,22.39z M41.63,22.26l0.57-1.01
					c0.04-0.07,0.05-0.08,0.21,0c0.48,0.27,0.67,0.73,0.41,1.21c-0.27,0.49-0.61,0.56-1.07,0.31
					C41.46,22.61,41.47,22.54,41.63,22.26z"/>
				<path class="st0" d="M44.41,24.39c0.12-0.4,0.45-1.43,0.49-1.58c0.02-0.07,0.02-0.1,0-0.12c-0.02-0.02-0.06-0.01-0.14,0.03
					l-1.48,0.8c-0.16,0.09-0.24,0.09-0.36-0.01c-0.02-0.01-0.04-0.02-0.05,0c-0.02,0.02-0.01,0.04,0.02,0.07
					c0.1,0.08,0.21,0.17,0.23,0.18c0.06,0.05,0.14,0.13,0.2,0.18c0.03,0.02,0.05,0.03,0.07,0.01c0.02-0.02,0.01-0.04-0.04-0.07
					c-0.06-0.05-0.06-0.08-0.04-0.11c0.02-0.02,0.07-0.06,0.12-0.09l0.24-0.13c0.01-0.01,0.02,0,0.03,0l0.47,0.39
					c0.01,0.01,0.01,0.02,0.01,0.02l-0.14,0.43c-0.01,0.02-0.12-0.05-0.13-0.05c-0.02-0.01-0.04-0.02-0.05,0
					c-0.02,0.02,0,0.05,0.05,0.09c0.04,0.03,0.16,0.12,0.22,0.17c0.05,0.04,0.13,0.12,0.18,0.16c0.08,0.07,0.11,0.07,0.12,0.06
					c0.01-0.02,0.01-0.04-0.02-0.06C44.33,24.68,44.37,24.53,44.41,24.39z M44.25,23.8l-0.41-0.34l0.66-0.38
					c0-0.01,0.01-0.01,0.01-0.01l0,0l0,0.01L44.25,23.8z"/>
				<path class="st0" d="M45.25,25.81c0.4,0.49,0.98,0.66,1.49,0.23c0.52-0.43,0.39-0.99-0.1-1.57c-0.1-0.12-0.2-0.23-0.25-0.29
					c-0.04-0.05-0.14-0.18-0.22-0.28c-0.03-0.04-0.06-0.05-0.07-0.03c-0.02,0.02-0.02,0.03,0.01,0.07c0.09,0.1,0.1,0.17,0.02,0.24
					c-0.06,0.05-0.11,0.1-0.4,0.34l-0.34,0.28c-0.48,0.4-0.52,0.41-0.59,0.32c-0.04-0.05-0.06-0.06-0.08-0.05
					c-0.02,0.02-0.02,0.04,0.01,0.07c0.06,0.08,0.17,0.19,0.21,0.24C45.01,25.47,45.13,25.67,45.25,25.81z M45.43,25.19l0.89-0.74
					c0.06-0.05,0.08-0.06,0.19,0.07c0.35,0.42,0.36,0.92-0.06,1.28c-0.43,0.36-0.77,0.31-1.11-0.1
					C45.14,25.46,45.17,25.4,45.43,25.19z"/>
				<path class="st0" d="M47.46,29.46c0.04,0.03,0.06,0.04,0.1,0.03c0.09-0.01,0.3-0.07,0.33-0.09c0.02-0.01,0.04-0.03,0.03-0.05
					c-0.01-0.02-0.02-0.03-0.07-0.02c-0.21,0.03-0.34-0.04-0.48-0.37c-0.18-0.4-0.05-0.83,0.49-1.07c0.44-0.18,0.81-0.12,1,0.32
					c0.12,0.27,0.14,0.59-0.1,0.7c-0.04,0.02-0.06,0.04-0.04,0.06c0.01,0.02,0.04,0.02,0.08,0.01c0.05-0.01,0.17-0.07,0.25-0.1
					c0.08-0.03,0.11-0.04,0.13-0.04c0.02-0.01,0.03-0.03,0.02-0.06c-0.05-0.13-0.06-0.32-0.18-0.59c-0.24-0.54-0.76-0.88-1.32-0.63
					c-0.66,0.28-0.71,0.93-0.46,1.5C47.29,29.21,47.38,29.38,47.46,29.46z"/>
				<path class="st0" d="M47.65,29.8c0-0.02-0.02-0.04-0.04-0.03c-0.03,0.01-0.03,0.02-0.02,0.07c0.03,0.13,0.07,0.26,0.08,0.29
					c0.02,0.07,0.04,0.18,0.06,0.26c0.01,0.03,0.02,0.05,0.05,0.04c0.03-0.01,0.03-0.02,0.01-0.08c-0.02-0.08,0-0.1,0.04-0.11
					c0.03-0.01,0.09-0.01,0.15,0l0.27,0.04c0.01,0,0.02,0.01,0.02,0.02l0.15,0.59c0,0.01,0,0.02,0,0.02l-0.37,0.27
					c-0.02,0.01-0.06-0.11-0.07-0.12c-0.01-0.02-0.02-0.04-0.04-0.03c-0.02,0.01-0.03,0.04-0.02,0.1c0.01,0.05,0.06,0.2,0.08,0.27
					c0.02,0.06,0.03,0.17,0.05,0.24c0.03,0.1,0.05,0.12,0.07,0.12c0.03-0.01,0.03-0.02,0.02-0.05c-0.03-0.12,0.09-0.22,0.21-0.31
					c0.33-0.25,1.21-0.89,1.33-0.98c0.06-0.05,0.07-0.07,0.07-0.09c-0.01-0.03-0.04-0.04-0.13-0.05l-1.67-0.23
					C47.75,30,47.69,29.95,47.65,29.8z M49.18,30.38c0.01,0,0.01,0,0.01,0l0,0L49.18,30.38l-0.63,0.43l-0.13-0.52L49.18,30.38z"/>
				<path class="st0" d="M49.67,31.74c-0.03,0-0.05,0.01-0.05,0.04c0,0.02,0.02,0.04,0.04,0.04c0.09,0.01,0.15,0.06,0.17,0.26
					l0.04,0.36l-1.24,0.11c-0.39,0.04-0.43,0.01-0.44-0.12c0-0.03-0.01-0.05-0.04-0.05c-0.02,0-0.04,0.02-0.03,0.06
					c0.01,0.1,0.03,0.26,0.04,0.32c0.01,0.07,0.01,0.23,0.03,0.39c0,0.04,0.02,0.06,0.04,0.06c0.03,0,0.03-0.03,0.03-0.05
					c-0.02-0.2,0-0.23,0.42-0.27l1.22-0.11l0.02,0.3c0.02,0.22-0.03,0.28-0.13,0.3c-0.05,0.01-0.06,0.02-0.06,0.05
					c0,0.02,0.02,0.03,0.06,0.03c0.06,0,0.24-0.01,0.29-0.02c0.05-0.01,0.07-0.02,0.06-0.04c0-0.02-0.03-0.08-0.05-0.24L50,32.04
					c-0.01-0.12,0.02-0.21,0.02-0.23c0-0.02-0.02-0.03-0.06-0.04C49.94,31.76,49.73,31.74,49.67,31.74z"/>
				<path class="st0" d="M50.41,35.42c-0.01-0.02-0.22-0.37-0.31-0.52c-0.02-0.65-0.5-0.94-0.9-0.97c-0.45-0.04-1.01,0.22-1.07,0.95
					c-0.05,0.64,0.37,1.09,0.94,1.14c0.57,0.05,0.96-0.31,1.02-0.92c0.05,0.2,0.12,0.45,0.12,0.46c0,0.03,0.04,0.04,0.07,0.03
					c0.06-0.03,0.07-0.04,0.1-0.06C50.42,35.5,50.44,35.47,50.41,35.42z M49.97,34.97c-0.04,0.4-0.39,0.7-0.95,0.65
					c-0.71-0.06-0.76-0.46-0.74-0.63c0.04-0.47,0.46-0.73,0.98-0.68C49.87,34.35,49.99,34.69,49.97,34.97z"/>
				<path class="st0" d="M49.75,36.86c-0.04,0.17-0.08,0.17-0.37,0.09l-0.95-0.24c-0.39-0.1-0.44-0.12-0.4-0.27
					c0.01-0.03,0.01-0.05-0.02-0.06c-0.02-0.01-0.04,0.01-0.05,0.05c-0.02,0.1-0.06,0.25-0.07,0.31c-0.05,0.2-0.11,0.36-0.2,0.71
					c-0.03,0.13-0.02,0.15,0.03,0.18c0.07,0.04,0.28,0.11,0.31,0.12c0.04,0.01,0.06,0,0.06-0.02c0.01-0.03-0.02-0.04-0.04-0.05
					c-0.16-0.07-0.21-0.14-0.15-0.4c0.08-0.31,0.11-0.33,0.44-0.24l0.95,0.24c0.31,0.08,0.31,0.1,0.27,0.26
					c-0.01,0.04,0,0.06,0.02,0.06c0.02,0.01,0.04-0.01,0.05-0.05c0.02-0.1,0.06-0.28,0.08-0.33c0.02-0.07,0.07-0.22,0.09-0.34
					c0.01-0.04,0.01-0.07-0.02-0.07C49.77,36.81,49.76,36.83,49.75,36.86z"/>
				<path class="st0" d="M49.16,38.86c-0.05,0.13-0.1,0.13-0.18,0.1c-0.08-0.03-0.14-0.05-0.49-0.19l-0.41-0.16
					c-0.22-0.09-0.41-0.16-0.5-0.21c-0.1-0.05-0.1-0.09-0.06-0.19c0.01-0.03,0.01-0.05-0.01-0.06c-0.02-0.01-0.04,0-0.06,0.04
					c-0.03,0.09-0.09,0.25-0.11,0.3c-0.02,0.06-0.09,0.21-0.15,0.36c-0.02,0.04-0.01,0.07,0.01,0.07c0.02,0.01,0.04-0.01,0.05-0.04
					c0.05-0.13,0.09-0.19,0.19-0.16c0.1,0.03,0.29,0.1,0.51,0.19l0.41,0.16c0.35,0.14,0.42,0.16,0.49,0.2
					c0.1,0.05,0.11,0.09,0.07,0.2c-0.01,0.02-0.01,0.05,0.02,0.06c0.02,0,0.04-0.01,0.05-0.05c0.04-0.09,0.08-0.23,0.11-0.29
					c0.03-0.07,0.09-0.21,0.13-0.3c0.02-0.05,0.01-0.07,0-0.08C49.19,38.81,49.17,38.84,49.16,38.86z"/>
				<path class="st0" d="M47.86,39.83c-0.61-0.36-1.17-0.03-1.48,0.52c-0.08,0.14-0.16,0.31-0.18,0.42c0,0.05,0,0.07,0.03,0.1
					c0.06,0.07,0.24,0.2,0.26,0.22c0.02,0.01,0.05,0.01,0.06-0.01c0.01-0.02,0.01-0.03-0.03-0.07c-0.15-0.15-0.16-0.3,0.01-0.61
					c0.22-0.38,0.64-0.53,1.15-0.24c0.4,0.25,0.57,0.58,0.33,1c-0.15,0.26-0.4,0.46-0.62,0.33c-0.04-0.02-0.06-0.02-0.08,0
					c-0.01,0.02,0,0.04,0.04,0.07c0.04,0.03,0.16,0.1,0.23,0.14c0.07,0.05,0.1,0.07,0.11,0.08c0.02,0.01,0.04,0.01,0.06-0.02
					c0.07-0.11,0.22-0.24,0.37-0.5C48.43,40.75,48.39,40.13,47.86,39.83z"/>
				<path class="st0" d="M46.03,41.49c-0.09-0.17-0.09-0.24,0.01-0.36c0.01-0.02,0.02-0.04,0-0.05c-0.02-0.02-0.04-0.01-0.07,0.02
					c-0.08,0.1-0.17,0.21-0.18,0.23c-0.05,0.06-0.12,0.14-0.18,0.2c-0.02,0.03-0.03,0.05-0.01,0.06c0.02,0.02,0.04,0.01,0.08-0.04
					c0.05-0.06,0.08-0.06,0.11-0.04c0.02,0.02,0.06,0.07,0.09,0.12l0.13,0.24c0.01,0.01,0,0.02,0,0.03l-0.39,0.47
					c-0.01,0.01-0.02,0.01-0.02,0.01l-0.43-0.14c-0.02-0.01,0.05-0.12,0.05-0.13c0.01-0.02,0.02-0.04,0-0.05
					c-0.02-0.01-0.05,0-0.09,0.05c-0.03,0.04-0.12,0.16-0.17,0.22c-0.04,0.05-0.12,0.13-0.16,0.18c-0.07,0.08-0.07,0.11-0.05,0.12
					c0.02,0.02,0.04,0.01,0.06-0.01c0.08-0.09,0.23-0.06,0.37-0.02c0.4,0.12,1.43,0.45,1.58,0.49c0.07,0.02,0.1,0.02,0.12,0
					c0.02-0.02,0.01-0.06-0.03-0.13L46.03,41.49z M45.76,42.45l0.34-0.41l0.38,0.66c0,0,0.01,0,0.01,0.01l-0.01,0L45.76,42.45z"/>
				<path class="st0" d="M28.99,44.55c-0.13-0.08-0.27-0.15-0.34-0.19c-0.06-0.04-0.19-0.13-0.3-0.2c-0.04-0.03-0.07-0.02-0.08,0
					c-0.01,0.02,0,0.04,0.03,0.06c0.12,0.07,0.15,0.13,0.1,0.22c-0.04,0.07-0.07,0.13-0.27,0.45l-0.23,0.38
					c-0.32,0.54-0.36,0.56-0.45,0.5c-0.05-0.03-0.08-0.04-0.09-0.02c-0.01,0.02,0,0.04,0.04,0.06c0.09,0.05,0.22,0.13,0.28,0.16
					c0.11,0.06,0.29,0.21,0.44,0.3c0.54,0.33,1.14,0.31,1.49-0.27C29.94,45.42,29.63,44.94,28.99,44.55z M29.25,45.88
					c-0.29,0.48-0.62,0.54-1.08,0.27c-0.28-0.17-0.27-0.23-0.1-0.51l0.6-0.99c0.04-0.07,0.06-0.08,0.21,0.01
					C29.35,44.93,29.52,45.4,29.25,45.88z"/>
				<path class="st0" d="M31.67,45.83c-0.04-0.02-0.51-0.19-0.59-0.22c-0.07-0.02-0.21-0.09-0.34-0.13
					c-0.04-0.02-0.07-0.01-0.08,0.01c-0.01,0.02,0,0.04,0.04,0.05c0.13,0.05,0.17,0.1,0.13,0.2c-0.03,0.08-0.05,0.14-0.18,0.49
					l-0.15,0.41c-0.05,0.12-0.09,0.24-0.13,0.33c-0.1,0.26-0.13,0.28-0.26,0.23c-0.03-0.01-0.05-0.01-0.06,0.01
					c-0.01,0.02,0,0.04,0.04,0.06c0.09,0.04,0.25,0.08,0.3,0.1c0.25,0.09,0.48,0.19,0.71,0.28c0.05,0.02,0.08,0.01,0.11-0.04
					c0.03-0.05,0.11-0.2,0.13-0.25c0.01-0.03,0.02-0.06-0.01-0.07c-0.03-0.01-0.04,0-0.05,0.03c-0.05,0.09-0.09,0.12-0.16,0.13
					c-0.07,0-0.25-0.06-0.31-0.08c-0.17-0.06-0.19-0.08-0.13-0.24c0.03-0.07,0.1-0.28,0.2-0.54c0-0.01,0.01-0.01,0.02-0.01
					c0.02,0.01,0.28,0.11,0.32,0.13c0.11,0.04,0.1,0.14,0.07,0.21c-0.01,0.02,0,0.04,0.02,0.05c0.03,0.01,0.05-0.02,0.06-0.04
					c0.05-0.13,0.14-0.28,0.15-0.32c0.01-0.02,0-0.04-0.02-0.04c-0.02-0.01-0.04,0.01-0.08,0.02c-0.02,0.01-0.09,0.01-0.22-0.03
					c-0.1-0.04-0.22-0.08-0.25-0.1c-0.01,0-0.02-0.01-0.01-0.02l0.23-0.63c0-0.01,0.01-0.01,0.01-0.01
					c0.46,0.17,0.47,0.19,0.43,0.35c0,0.02-0.01,0.04,0.02,0.06c0.02,0.01,0.04,0,0.05-0.02c0.07-0.19,0.12-0.25,0.14-0.29
					c0.01-0.02,0.01-0.04-0.01-0.04C31.8,45.85,31.75,45.86,31.67,45.83z"/>
				<path class="st0" d="M35.23,46.53c-0.13-0.02-0.31-0.1-0.6-0.13c-0.59-0.06-1.14,0.23-1.2,0.83c-0.08,0.71,0.45,1.08,1.08,1.14
					c0.16,0.02,0.35,0.02,0.46-0.01c0.05-0.02,0.06-0.03,0.08-0.07c0.04-0.08,0.09-0.3,0.09-0.33c0-0.03-0.01-0.05-0.03-0.05
					c-0.03,0-0.03,0.01-0.05,0.05c-0.08,0.2-0.2,0.27-0.56,0.24c-0.44-0.04-0.75-0.37-0.69-0.95c0.06-0.46,0.3-0.76,0.77-0.71
					c0.29,0.03,0.58,0.17,0.56,0.44c0,0.04,0.01,0.07,0.03,0.07c0.03,0,0.04-0.02,0.05-0.06c0.01-0.05,0.03-0.19,0.04-0.27
					c0.01-0.09,0.02-0.12,0.03-0.14C35.28,46.55,35.26,46.53,35.23,46.53z"/>
				<path class="st0" d="M38.31,48.11c-0.14,0.02-0.2,0.01-0.23-0.11c-0.03-0.11-0.05-0.3-0.07-0.53l-0.05-0.44
					c-0.04-0.37-0.05-0.44-0.05-0.52c0-0.11,0.03-0.14,0.14-0.15c0.04,0,0.06-0.02,0.05-0.04c0-0.02-0.02-0.03-0.07-0.03
					c-0.1,0.01-0.26,0.04-0.32,0.04c-0.07,0.01-0.23,0.02-0.36,0.03c-0.04,0-0.07,0.02-0.06,0.04c0,0.02,0.02,0.03,0.06,0.03
					c0.12-0.01,0.19-0.01,0.21,0.11c0.01,0.08,0.02,0.15,0.06,0.52l0.01,0.11c0,0.01,0,0.01-0.01,0.01l-0.95,0.1
					c-0.01,0-0.01,0-0.01-0.01l-0.01-0.11c-0.04-0.38-0.05-0.44-0.05-0.52c-0.01-0.11,0.03-0.14,0.13-0.15
					c0.04-0.01,0.06-0.02,0.06-0.04c0-0.02-0.02-0.03-0.07-0.03c-0.1,0.01-0.25,0.04-0.31,0.04c-0.07,0.01-0.23,0.01-0.36,0.03
					c-0.05,0.01-0.06,0.02-0.06,0.04c0,0.02,0.02,0.03,0.06,0.03c0.13-0.01,0.19,0.01,0.21,0.11c0.02,0.08,0.02,0.15,0.06,0.53
					l0.05,0.44c0.02,0.23,0.05,0.42,0.04,0.52c0,0.11-0.02,0.14-0.13,0.15c-0.03,0-0.05,0.01-0.05,0.04c0,0.02,0.02,0.03,0.07,0.03
					c0.1-0.01,0.26-0.04,0.32-0.04c0.07-0.01,0.23-0.02,0.39-0.04c0.04,0,0.06-0.02,0.06-0.04c0-0.02-0.03-0.03-0.05-0.03
					c-0.14,0.02-0.2,0.01-0.23-0.11c-0.02-0.11-0.04-0.3-0.07-0.53l-0.02-0.15c0-0.01,0-0.01,0.01-0.01l0.94-0.1
					c0,0,0.01,0,0.01,0.01l0.02,0.15c0.03,0.23,0.05,0.42,0.04,0.53c0,0.11-0.01,0.14-0.13,0.15c-0.03,0-0.05,0.01-0.05,0.04
					c0,0.02,0.02,0.03,0.07,0.03c0.1-0.01,0.25-0.03,0.31-0.04c0.07,0,0.23-0.02,0.39-0.03c0.04-0.01,0.06-0.02,0.06-0.04
					C38.36,48.11,38.33,48.11,38.31,48.11z"/>
				<path class="st0" d="M40.13,47.61c-0.14,0.04-0.21,0.04-0.24-0.05c-0.04-0.1-0.1-0.29-0.16-0.52l-0.13-0.42
					c-0.11-0.36-0.13-0.43-0.15-0.5c-0.02-0.11,0-0.14,0.11-0.18c0.02-0.01,0.05-0.02,0.04-0.05c-0.01-0.02-0.03-0.02-0.07-0.01
					c-0.09,0.03-0.23,0.08-0.29,0.09c-0.07,0.02-0.22,0.06-0.32,0.09c-0.05,0.01-0.07,0.03-0.06,0.05c0.01,0.03,0.04,0.03,0.06,0.02
					c0.13-0.04,0.16-0.01,0.2,0.08c0.03,0.08,0.05,0.14,0.16,0.5l0.12,0.42c0.07,0.23,0.12,0.42,0.14,0.52
					c0.02,0.11-0.01,0.14-0.11,0.16c-0.03,0.01-0.05,0.02-0.04,0.04c0.01,0.02,0.03,0.03,0.07,0.02c0.1-0.03,0.25-0.08,0.3-0.1
					c0.06-0.02,0.22-0.06,0.38-0.1c0.04-0.01,0.06-0.03,0.05-0.06C40.19,47.6,40.16,47.6,40.13,47.61z"/>
				<path class="st0" d="M42.22,46.4c-0.02-0.04-0.03-0.05-0.05-0.04c-0.03,0.01-0.02,0.04-0.02,0.06c0.05,0.17,0.03,0.25-0.22,0.36
					c-0.29,0.13-0.32,0.12-0.47-0.19l-0.41-0.89c-0.13-0.29-0.12-0.31,0.03-0.38c0.04-0.02,0.05-0.04,0.04-0.06
					c-0.01-0.02-0.03-0.02-0.07,0c-0.09,0.04-0.26,0.12-0.31,0.15c-0.06,0.03-0.21,0.09-0.32,0.14c-0.04,0.02-0.06,0.04-0.05,0.06
					c0.01,0.02,0.03,0.02,0.07,0.01c0.16-0.08,0.18-0.04,0.3,0.23l0.41,0.89c0.17,0.37,0.18,0.42,0.04,0.48
					c-0.03,0.01-0.05,0.03-0.03,0.05c0.01,0.02,0.03,0.03,0.07,0.01c0.09-0.04,0.23-0.11,0.28-0.14c0.19-0.09,0.35-0.14,0.68-0.29
					c0.12-0.05,0.13-0.08,0.12-0.14C42.31,46.64,42.23,46.43,42.22,46.4z"/>
				<path class="st0" d="M44.05,45.3c-0.02-0.03-0.04-0.05-0.06-0.03c-0.02,0.01-0.02,0.03-0.01,0.06c0.04,0.09,0.04,0.14,0.01,0.2
					c-0.04,0.06-0.19,0.17-0.25,0.2c-0.15,0.1-0.17,0.11-0.27-0.03c-0.04-0.06-0.16-0.25-0.32-0.48c0-0.01,0-0.01,0-0.02
					c0.02-0.01,0.25-0.16,0.29-0.19c0.1-0.07,0.17,0,0.21,0.07c0.01,0.01,0.03,0.03,0.05,0.01c0.03-0.02,0.01-0.05,0-0.07
					c-0.07-0.11-0.15-0.28-0.17-0.31c-0.01-0.02-0.03-0.02-0.04-0.01c-0.01,0.01-0.01,0.04-0.03,0.07
					c-0.01,0.02-0.04,0.09-0.15,0.16c-0.09,0.06-0.19,0.13-0.22,0.15c-0.01,0.01-0.02,0.01-0.03,0l-0.37-0.56
					c-0.01-0.01,0-0.01,0-0.02c0.41-0.27,0.43-0.27,0.54-0.14c0.01,0.01,0.03,0.04,0.05,0.02c0.02-0.01,0.02-0.04,0.01-0.06
					c-0.11-0.17-0.13-0.24-0.16-0.29c-0.01-0.02-0.03-0.03-0.04-0.02c-0.02,0.01-0.04,0.06-0.11,0.11c-0.04,0.03-0.46,0.3-0.52,0.35
					c-0.06,0.04-0.19,0.12-0.31,0.2c-0.04,0.03-0.05,0.05-0.04,0.07c0.01,0.02,0.03,0.02,0.07,0c0.12-0.08,0.18-0.08,0.24,0.01
					c0.04,0.07,0.08,0.12,0.29,0.44l0.24,0.37c0.07,0.11,0.14,0.21,0.19,0.3c0.16,0.23,0.15,0.27,0.04,0.35
					c-0.02,0.02-0.04,0.04-0.02,0.06c0.01,0.02,0.03,0.02,0.07,0c0.08-0.06,0.21-0.15,0.26-0.18c0.22-0.15,0.44-0.27,0.64-0.41
					c0.04-0.03,0.05-0.06,0.03-0.11C44.16,45.5,44.08,45.35,44.05,45.3z"/>
			</g>
			<g>
				<path class="st2" d="M28.56,37.17c-0.28,0.16-0.37,0.51-0.37,0.51s0.35,0.09,0.63-0.07c0.28-0.16,0.37-0.51,0.37-0.51
					S28.84,37.01,28.56,37.17z"/>
				<path class="st2" d="M32.35,39.72c0.16-0.06,0.31-0.13,0.42-0.19l0.04-0.88h-0.62l0.05,1.12
					C32.27,39.76,32.31,39.74,32.35,39.72z"/>
				<path class="st2" d="M27.45,37.62c0.28,0.16,0.63,0.07,0.63,0.07s-0.09-0.35-0.37-0.51c-0.28-0.16-0.63-0.07-0.63-0.07
					S27.17,37.46,27.45,37.62z"/>
				<path class="st2" d="M31.97,37c0,0,0,0.21,0,0.28c-0.06,0-0.2,0-0.26,0c0-0.07,0-0.28,0-0.28c0-0.11-0.09-0.2-0.2-0.2h-1.14
					v0.05c0,0.09,0.02,0.19,0.05,0.28h0.76v0.13h-0.71c0.1,0.21,0.29,0.38,0.6,0.38c0,0,0.22,0,0.29,0c0,0.06,0,0.2,0,0.26
					c-0.07,0-0.3,0-0.3,0l-0.12-0.01l-0.22,0v0.45h3.65v-0.45h-0.12c-0.01,0-0.13,0.01-0.13,0.01s-0.23,0-0.3,0c0-0.06,0-0.2,0-0.26
					c0.07,0,0.3,0,0.3,0c0.31,0,0.5-0.17,0.6-0.38h-0.73v-0.13h0.78c0.03-0.1,0.05-0.2,0.05-0.28V36.8h-1.14
					c-0.11,0-0.2,0.09-0.2,0.2c0,0,0,0.21,0,0.28c-0.06,0-0.2,0-0.26,0c0-0.07,0-0.28,0-0.28c0-0.17,0.09-0.33,0.25-0.41l0.07-0.04
					l-0.06-0.04c-0.28-0.2-0.6-0.31-0.93-0.31c-0.32,0-0.63,0.1-0.9,0.28l-0.08,0.05l0.09,0.03C31.85,36.64,31.97,36.81,31.97,37z"
					/>
				<path class="st2" d="M28.81,36.9c0.24-0.2,0.28-0.57,0.28-0.57s-0.36-0.03-0.61,0.17c-0.24,0.2-0.28,0.57-0.28,0.57
					S28.56,37.1,28.81,36.9z"/>
				<path class="st2" d="M25.89,36.65c0,0.9,0.54,1.53,1.5,1.73c0.39,0.08,0.52,0.17,0.54,0.32h0.41c0-0.04,0-0.09,0-0.14
					c0-0.13-0.08-0.38-0.54-0.49c-0.73-0.17-1.13-0.72-1.13-1.38c0-0.79,0.62-1.43,1.57-1.43c0.37,0,0.71,0.1,0.99,0.26l0.07-0.08
					c-0.37-0.35-0.91-0.57-1.5-0.57C26.67,34.88,25.89,35.67,25.89,36.65z"/>
				<path class="st2" d="M27.86,35.84c-0.19-0.22-0.52-0.25-0.52-0.25s-0.03,0.33,0.16,0.56c0.19,0.22,0.52,0.25,0.52,0.25
					S28.05,36.06,27.86,35.84z"/>
				<path class="st2" d="M28.92,35.58c0,0-0.33,0.03-0.52,0.25c-0.19,0.22-0.16,0.56-0.16,0.56s0.33-0.03,0.52-0.25
					C28.95,35.92,28.92,35.58,28.92,35.58z"/>
				<path class="st2" d="M27.18,36.33c0,0,0.03,0.36,0.28,0.57c0.25,0.21,0.61,0.17,0.61,0.17s-0.03-0.36-0.28-0.57
					C27.55,36.3,27.18,36.33,27.18,36.33z"/>
				<path class="st2" d="M27.86,39.07l-0.17,1.67c0,0.2,0.21,0.37,0.46,0.37c0.25,0,0.46-0.17,0.46-0.37l-0.17-1.67H27.86z"/>
				<path class="st2" d="M34.37,38.57c-0.32-0.01-0.76,0.16-1.14,0.93c-0.05,0.1-0.14,0.18-0.25,0.25c0,0,0,0,0,0
					c-0.13,0.09-0.31,0.16-0.52,0.25c-0.19,0.08-0.39,0.16-0.58,0.27c-0.23,0.14-0.4,0.34-0.4,0.64c0,0.24,0.15,0.42,0.34,0.56
					c0.11-0.08,0.23-0.15,0.35-0.22c-0.18-0.1-0.31-0.2-0.31-0.34c0-0.19,0.17-0.31,0.4-0.41v0.01c0.12-0.06,0.25-0.11,0.37-0.16
					c0.19-0.08,0.39-0.16,0.55-0.26c0.16-0.1,0.3-0.23,0.39-0.41c0.11-0.22,0.25-0.42,0.35-0.51c0.13-0.13,0.29,0.01,0.57,0.01
					c0.3,0,0.5-0.16,0.52-0.2l0.02-0.1C34.95,38.81,34.67,38.57,34.37,38.57z M34.51,38.96c-0.05,0-0.1-0.04-0.1-0.1
					c0-0.05,0.04-0.1,0.1-0.1c0.05,0,0.1,0.04,0.1,0.1C34.61,38.92,34.57,38.96,34.51,38.96z"/>
				<path class="st2" d="M32.66,40.88c0-0.09-0.08-0.17-0.17-0.17c-0.09,0-0.17,0.08-0.17,0.17c0,0.09,0.08,0.17,0.17,0.17
					C32.59,41.05,32.66,40.97,32.66,40.88z"/>
				<path class="st2" d="M32.87,40.57c0.16,0.09,0.26,0.19,0.26,0.34c0,0.15-0.17,0.26-0.39,0.37c-0.06,0.03-0.12,0.07-0.19,0.1
					c-0.19,0.1-0.4,0.2-0.56,0.33c0,0-0.01,0.01-0.01,0.01c-0.16,0.12-0.27,0.28-0.27,0.49c0,0.26,0.11,0.4,0.26,0.49
					c0.08-0.09,0.17-0.17,0.28-0.25c-0.1-0.06-0.16-0.12-0.16-0.24c0-0.07,0.05-0.13,0.12-0.2c0,0,0,0,0,0c0,0,0.01-0.01,0.01-0.01
					c0.01-0.01,0.02-0.02,0.03-0.02c0.16-0.11,0.3-0.18,0.48-0.27c0.05-0.03,0.1-0.05,0.15-0.08c0,0,0,0,0,0
					c0.3-0.16,0.62-0.38,0.62-0.72c0-0.23-0.1-0.39-0.25-0.52C33.13,40.45,33,40.51,32.87,40.57z"/>
				<path class="st2" d="M31.71,40.02c0.13-0.07,0.27-0.14,0.4-0.2c-0.16-0.08-0.29-0.18-0.36-0.32c-0.38-0.77-0.81-0.94-1.14-0.93
					c-0.29,0-0.57,0.23-0.65,0.3c0,0,0.02,0.1,0.02,0.1c0.01,0.04,0.22,0.2,0.52,0.2c0.28,0,0.45-0.14,0.57-0.01
					c0.09,0.09,0.23,0.29,0.34,0.51C31.48,39.82,31.59,39.93,31.71,40.02z M30.47,38.96c-0.05,0-0.1-0.04-0.1-0.1
					c0-0.05,0.04-0.1,0.1-0.1c0.05,0,0.1,0.04,0.1,0.1C30.56,38.92,30.52,38.96,30.47,38.96z"/>
				<path class="st2" d="M32.88,41.98c-0.03,0.01-0.06,0.03-0.09,0.04c0.07,0.06,0.11,0.12,0.11,0.18c0,0.08-0.03,0.13-0.08,0.18
					c-0.01,0.01-0.01,0.01-0.02,0.02c0,0-0.01,0.01-0.01,0.01c0,0,0,0,0,0c0,0-0.01,0-0.01,0.01c-0.01,0.01-0.02,0.01-0.03,0.02
					c-0.34,0.23-0.51,0.33-0.66,0.57c-0.04,0.08-0.07,0.15-0.07,0.24c0,0.19,0.14,0.35,0.34,0.4l0.01,0.21
					c0,0.07,0.06,0.13,0.13,0.13c0.07,0,0.13-0.06,0.13-0.13l0.01-0.21c0.19-0.05,0.34-0.21,0.34-0.4c0-0.05-0.01-0.09-0.02-0.13
					c-0.09,0.04-0.15,0.08-0.2,0.13c-0.06,0.06-0.16,0.05-0.21-0.01c-0.06-0.06-0.05-0.16,0.01-0.21c0.09-0.08,0.18-0.13,0.31-0.19
					c0.22-0.12,0.43-0.29,0.43-0.63c0-0.15-0.05-0.26-0.14-0.36C33.06,41.89,32.97,41.94,32.88,41.98z"/>
				<path class="st2" d="M24.74,35.76c-0.03,0.05-0.01,0.1,0.03,0.13l0.78,0.45l0.04-0.2l-0.73-0.42
					C24.82,35.69,24.76,35.71,24.74,35.76z"/>
				<path class="st2" d="M25.94,35.4l0.12-0.15l-0.51-0.43c-0.04-0.03-0.1-0.03-0.13,0.01c-0.03,0.04-0.03,0.1,0.01,0.13L25.94,35.4
					z"/>
				<path class="st2" d="M26.59,34.83l0.17-0.09l-0.44-0.53c-0.03-0.04-0.09-0.05-0.13-0.01c-0.04,0.03-0.04,0.09-0.01,0.13
					L26.59,34.83z"/>
				<path class="st2" d="M30.09,34.34c0.03-0.04,0.03-0.1-0.01-0.13c-0.04-0.03-0.1-0.03-0.13,0.01l-0.65,0.77l0.15,0.12
					L30.09,34.34z"/>
				<path class="st2" d="M30.84,34.85c-0.03-0.04-0.09-0.04-0.13-0.01l-1.32,1.11l0,0.24l1.44-1.21
					C30.87,34.95,30.88,34.89,30.84,34.85z"/>
				<path class="st2" d="M31.53,35.76c-0.03-0.05-0.09-0.06-0.13-0.03l-1.89,1.09l0,0.21l1.98-1.14
					C31.54,35.86,31.55,35.8,31.53,35.76z"/>
			</g>
			<g>
				<path class="st3" d="M24.42,33.66h11.07V22.63C29.44,22.73,24.54,27.61,24.42,33.66z M28.79,27.29c0,0,0.29-0.05,0.56-0.05
					c0.11,0,0.28,0.05,0.44,0.11v-1.67h1.83v-2.11h1.76c0,0,0,1.61,0,2.11c0.48,0,1.83,0,1.83,0v1.76c0,0-1.35,0-1.83,0
					c0,0.58,0,5.91,0,5.91h-1.76v-5.91h-1.64c0.14,0.09,0.38,0.32,0.45,0.38c0.09-0.02,0.21-0.05,0.27-0.05
					c0.17,0,0.29,0.15,0.39,0.15c0.07,0,0.14-0.01,0.14,0.04c0,0.03-0.05,0.1-0.16,0.1c-0.12,0-0.24-0.1-0.36-0.1
					c-0.09,0-0.22,0.05-0.31,0.1l-0.04,0.24h0.85v0.76c0,0.71-0.52,1.09-0.91,1.36c-0.06,0.05-0.15,0.09-0.23,0.14
					c0.05,0.05,0.08,0.12,0.11,0.19c0.03,0.12,0.02,0.25-0.04,0.36c-0.03,0.06-0.08,0.11-0.13,0.14c0.1,0.06,0.22,0.21,0.22,0.4
					c0,0.38-0.46,0.49-0.46,0.49c0,0.01,0,0.02,0,0.03c0.03,0.03,0.08,0.07,0.12,0.11c0.2,0.17,0.64,0.39,0.64,0.81v0.27h-2.72
					v-0.27c0-0.36,0.32-0.59,0.54-0.74c-0.09-0.06-0.15-0.15-0.18-0.26c-0.03-0.12-0.02-0.25,0.04-0.36
					c0.03-0.06,0.08-0.11,0.13-0.14c-0.1-0.06-0.21-0.2-0.21-0.31c-0.86-0.31-1.87-0.91-1.87-2.22c0-1.14,0.89-1.83,1.72-1.83
					C28.35,27.2,28.79,27.29,28.79,27.29z"/>
				<path class="st3" d="M43.17,38.08l0.66-1.46h-2.2l-0.13,1.88c0.06,0,0.13,0.01,0.19,0.02c0.23,0.05,0.4,0.17,0.56,0.28
					c0.16,0.11,0.31,0.22,0.54,0.27c0.11,0.03,0.22,0.04,0.31,0.05c-0.14-0.2-0.23-0.44-0.23-0.7v-0.34H43.17z"/>
				<polygon class="st3" points="36.79,38.08 37.99,38.08 37.39,36.74 				"/>
				<path class="st3" d="M37.63,36.62l0.66,1.46h0.31v0.34c0,0.07-0.01,0.14-0.02,0.21l0.31-0.47l0.09-0.14l0.13,0.1
					c0,0,0.17,0.12,0.45,0.19c0.13,0.03,0.26,0.04,0.39,0.03l-0.12-1.71L37.63,36.62z"/>
				<polygon class="st3" points="43.47,38.08 44.67,38.08 44.07,36.74 				"/>
				<path class="st3" d="M35.87,34.04v11.1c6.06-0.1,10.97-5.03,11.06-11.1H35.87z M44.07,39.63c-0.15,0-0.3-0.03-0.43-0.08l0,0.16
					l-1.11,2.73l-1.29-0.41l-0.04,0.61c0,0,0,0,0,0v0c0,0.26-0.21,0.46-0.47,0.46c-0.26,0-0.47-0.21-0.47-0.47l0,0.02l-0.06-0.88
					c-0.09,0.05-0.25,0.05-0.36,0.02c-0.15-0.04-0.36-0.18-0.33-0.3l-2.26-0.45l0.09-0.52l0-0.01l0.01-0.01l0-0.01h0l0.7-1.06
					c-0.19,0.12-0.41,0.2-0.65,0.2c-0.67,0-1.21-0.54-1.21-1.21v-0.34h0.31l0.66-1.46c-0.34-0.04-0.61-0.33-0.61-0.68
					c0-0.38,0.31-0.69,0.69-0.69c0.27,0,0.5,0.16,0.62,0.38c0.87,0.03,1.57-0.09,2.07-0.36c-0.02-0.07-0.03-0.14-0.03-0.21
					c0-0.46,0.38-0.84,0.84-0.84c0.46,0,0.84,0.38,0.84,0.84c0,0.07-0.01,0.14-0.03,0.21c0.51,0.28,1.21,0.4,2.08,0.36
					c0.11-0.23,0.35-0.38,0.62-0.38c0.38,0,0.69,0.31,0.69,0.69c0,0.35-0.26,0.64-0.61,0.68l0.66,1.47h0.31v0.34
					C45.27,39.08,44.73,39.63,44.07,39.63z"/>
			</g>
		</g>
	</g>
	<g>
		<path class="st0" d="M55.46,30.31c0-0.74,0-0.87-0.01-1.03c-0.01-0.16-0.05-0.24-0.2-0.27c-0.04-0.01-0.12-0.01-0.16-0.01
			c-0.02,0-0.04-0.01-0.04-0.03c0-0.03,0.02-0.04,0.08-0.04c0.21,0,0.5,0.01,0.55,0.01c0.04,0,0.33-0.01,0.47-0.01
			c0.05,0,0.08,0.01,0.08,0.04c0,0.02-0.02,0.03-0.04,0.03c-0.03,0-0.06,0-0.12,0.01c-0.13,0.02-0.17,0.1-0.18,0.27
			c-0.01,0.15-0.01,0.29-0.01,1.03v0.67c0,0.68,0.15,0.98,0.36,1.17c0.23,0.22,0.45,0.26,0.72,0.26c0.29,0,0.58-0.14,0.75-0.34
			c0.22-0.27,0.28-0.67,0.28-1.16v-0.59c0-0.74,0-0.87-0.01-1.03c-0.01-0.16-0.05-0.24-0.2-0.27c-0.04-0.01-0.12-0.01-0.16-0.01
			c-0.02,0-0.04-0.01-0.04-0.03c0-0.03,0.02-0.04,0.08-0.04c0.21,0,0.48,0.01,0.5,0.01c0.03,0,0.26-0.01,0.4-0.01
			c0.05,0,0.08,0.01,0.08,0.04c0,0.02-0.02,0.03-0.04,0.03c-0.03,0-0.06,0-0.12,0.01c-0.13,0.02-0.17,0.1-0.18,0.27
			c-0.01,0.15-0.01,0.29-0.01,1.03v0.51c0,0.51-0.06,1.08-0.44,1.42c-0.34,0.3-0.7,0.35-0.98,0.35c-0.16,0-0.64-0.02-0.98-0.34
			c-0.23-0.22-0.41-0.56-0.41-1.25V30.31z"/>
		<path class="st0" d="M59.84,31.87c0.01,0.39,0.06,0.51,0.19,0.55c0.09,0.02,0.19,0.03,0.24,0.03c0.02,0,0.04,0.01,0.04,0.03
			c0,0.03-0.03,0.04-0.09,0.04c-0.27,0-0.46-0.01-0.5-0.01c-0.04,0-0.24,0.01-0.46,0.01c-0.05,0-0.08,0-0.08-0.04
			c0-0.02,0.01-0.03,0.04-0.03c0.04,0,0.12,0,0.19-0.03c0.12-0.03,0.14-0.17,0.14-0.6l0-2.72c0-0.19,0.01-0.24,0.05-0.24
			c0.04,0,0.12,0.1,0.17,0.15c0.07,0.08,0.78,0.85,1.51,1.63c0.47,0.5,0.99,1.08,1.14,1.24l-0.05-2.41c0-0.31-0.04-0.41-0.19-0.45
			c-0.09-0.02-0.19-0.02-0.23-0.02c-0.03,0-0.04-0.01-0.04-0.03c0-0.03,0.04-0.03,0.09-0.03c0.21,0,0.44,0.01,0.49,0.01
			s0.21-0.01,0.4-0.01c0.05,0,0.09,0,0.09,0.03c0,0.02-0.02,0.03-0.05,0.03c-0.02,0-0.06,0-0.11,0.01
			c-0.16,0.03-0.18,0.14-0.18,0.42l-0.01,2.79c0,0.31-0.01,0.34-0.04,0.34c-0.04,0-0.09-0.05-0.35-0.3
			c-0.05-0.05-0.74-0.75-1.24-1.29c-0.55-0.59-1.09-1.19-1.24-1.36L59.84,31.87z"/>
		<path class="st0" d="M64.67,31.14c0,0.46,0,0.83,0.02,1.03c0.01,0.14,0.04,0.24,0.19,0.26c0.07,0.01,0.17,0.02,0.21,0.02
			c0.03,0,0.04,0.01,0.04,0.03c0,0.02-0.02,0.04-0.08,0.04c-0.26,0-0.56-0.01-0.58-0.01c-0.02,0-0.32,0.01-0.47,0.01
			c-0.05,0-0.08-0.01-0.08-0.04c0-0.01,0.01-0.03,0.04-0.03c0.04,0,0.1-0.01,0.14-0.02c0.1-0.02,0.12-0.12,0.14-0.26
			c0.02-0.2,0.02-0.58,0.02-1.03v-0.84c0-0.74,0-0.87-0.01-1.03c-0.01-0.16-0.06-0.24-0.16-0.27c-0.05-0.01-0.11-0.02-0.15-0.02
			c-0.02,0-0.04-0.01-0.04-0.03c0-0.03,0.02-0.04,0.08-0.04c0.16,0,0.46,0.01,0.48,0.01c0.02,0,0.32-0.01,0.47-0.01
			c0.05,0,0.08,0.01,0.08,0.04c0,0.02-0.02,0.03-0.04,0.03c-0.03,0-0.06,0-0.12,0.01c-0.13,0.02-0.17,0.1-0.18,0.27
			c-0.01,0.15-0.01,0.29-0.01,1.03V31.14z"/>
		<path class="st0" d="M67.67,31.94c0.28-0.64,0.91-2.3,1.02-2.64c0.02-0.07,0.04-0.14,0.04-0.18c0-0.04-0.01-0.09-0.06-0.11
			c-0.06-0.02-0.13-0.02-0.18-0.02c-0.03,0-0.05,0-0.05-0.03c0-0.03,0.03-0.04,0.1-0.04c0.19,0,0.41,0.01,0.47,0.01
			c0.03,0,0.23-0.01,0.37-0.01c0.05,0,0.08,0.01,0.08,0.03c0,0.02-0.02,0.03-0.06,0.03c-0.03,0-0.14,0-0.23,0.06
			c-0.06,0.04-0.13,0.12-0.26,0.45c-0.05,0.13-0.29,0.7-0.53,1.29c-0.29,0.69-0.5,1.21-0.61,1.44c-0.13,0.29-0.15,0.36-0.2,0.36
			c-0.06,0-0.08-0.07-0.17-0.29l-1.16-2.91c-0.1-0.27-0.18-0.32-0.34-0.37c-0.07-0.02-0.15-0.02-0.18-0.02
			c-0.03,0-0.04-0.01-0.04-0.03c0-0.03,0.05-0.03,0.12-0.03c0.23,0,0.5,0.01,0.56,0.01c0.05,0,0.26-0.01,0.44-0.01
			c0.09,0,0.13,0.01,0.13,0.03c0,0.02-0.01,0.03-0.05,0.03c-0.05,0-0.14,0-0.18,0.02c-0.05,0.02-0.06,0.06-0.06,0.09
			c0,0.06,0.06,0.21,0.13,0.39L67.67,31.94z"/>
		<path class="st0" d="M70.49,30.31c0-0.74,0-0.87-0.01-1.03c-0.01-0.16-0.05-0.24-0.2-0.27c-0.04-0.01-0.12-0.01-0.16-0.01
			c-0.02,0-0.04-0.01-0.04-0.03c0-0.03,0.02-0.04,0.08-0.04c0.21,0,0.51,0.01,0.54,0.01c0.03,0,0.98,0,1.09,0
			c0.09,0,0.17-0.01,0.2-0.02c0.02,0,0.04-0.02,0.07-0.02c0.01,0,0.02,0.02,0.02,0.04c0,0.03-0.02,0.09-0.04,0.22
			c0,0.05-0.01,0.26-0.02,0.31c0,0.02-0.01,0.05-0.03,0.05c-0.03,0-0.04-0.02-0.04-0.06c0-0.03,0-0.11-0.03-0.17
			c-0.03-0.08-0.08-0.13-0.34-0.16c-0.08-0.01-0.6-0.01-0.65-0.01c-0.02,0-0.03,0.01-0.03,0.05v1.31c0,0.03,0,0.05,0.03,0.05
			c0.06,0,0.65,0,0.76-0.01c0.11-0.01,0.18-0.02,0.22-0.07c0.03-0.04,0.05-0.06,0.07-0.06c0.01,0,0.02,0.01,0.02,0.04
			c0,0.03-0.02,0.11-0.04,0.27c-0.01,0.1-0.02,0.27-0.02,0.3c0,0.04,0,0.09-0.03,0.09c-0.02,0-0.03-0.02-0.03-0.04
			c0-0.05,0-0.1-0.02-0.16c-0.02-0.07-0.06-0.15-0.25-0.17c-0.13-0.01-0.6-0.02-0.68-0.02c-0.02,0-0.03,0.01-0.03,0.03v0.42
			c0,0.16-0.01,0.71,0,0.81c0.01,0.33,0.09,0.39,0.55,0.39c0.12,0,0.33,0,0.46-0.05c0.12-0.05,0.18-0.15,0.21-0.34
			c0.01-0.05,0.02-0.07,0.04-0.07c0.03,0,0.03,0.04,0.03,0.07c0,0.04-0.04,0.36-0.06,0.46c-0.03,0.12-0.07,0.12-0.26,0.12
			c-0.72,0-1.04-0.03-1.17-0.03c-0.02,0-0.32,0.01-0.47,0.01c-0.05,0-0.08-0.01-0.08-0.04c0-0.01,0.01-0.03,0.04-0.03
			c0.04,0,0.1-0.01,0.14-0.02c0.1-0.02,0.12-0.12,0.14-0.26c0.02-0.2,0.02-0.58,0.02-1.03V30.31z"/>
		<path class="st0" d="M73.42,30.31c0-0.74,0-0.87-0.01-1.03c-0.01-0.16-0.05-0.24-0.2-0.27c-0.04-0.01-0.12-0.01-0.16-0.01
			c-0.02,0-0.04-0.01-0.04-0.03c0-0.03,0.02-0.04,0.08-0.04c0.21,0,0.51,0.01,0.54,0.01c0.05,0,0.41-0.01,0.56-0.01
			c0.3,0,0.62,0.03,0.87,0.21c0.12,0.09,0.33,0.32,0.33,0.65c0,0.35-0.15,0.7-0.58,1.1c0.39,0.5,0.71,0.92,0.99,1.22
			c0.26,0.27,0.46,0.32,0.58,0.34c0.09,0.01,0.16,0.01,0.19,0.01c0.02,0,0.04,0.01,0.04,0.03c0,0.03-0.03,0.04-0.11,0.04h-0.34
			c-0.27,0-0.38-0.02-0.51-0.09c-0.2-0.11-0.37-0.34-0.64-0.7c-0.2-0.26-0.42-0.58-0.52-0.7C74.46,31.01,74.45,31,74.42,31
			l-0.58-0.01c-0.02,0-0.03,0.01-0.03,0.04v0.11c0,0.46,0,0.83,0.02,1.03c0.01,0.14,0.04,0.24,0.19,0.26
			c0.07,0.01,0.17,0.02,0.21,0.02c0.03,0,0.04,0.01,0.04,0.03c0,0.02-0.02,0.04-0.08,0.04c-0.26,0-0.56-0.01-0.58-0.01
			c0,0-0.3,0.01-0.45,0.01c-0.05,0-0.08-0.01-0.08-0.04c0-0.01,0.01-0.03,0.04-0.03c0.04,0,0.1-0.01,0.14-0.02
			c0.09-0.02,0.12-0.12,0.14-0.26c0.02-0.2,0.02-0.58,0.02-1.03V30.31z M73.8,30.72c0,0.02,0.01,0.04,0.03,0.06
			c0.07,0.04,0.29,0.08,0.5,0.08c0.11,0,0.25-0.01,0.36-0.09c0.17-0.11,0.29-0.37,0.29-0.73c0-0.59-0.31-0.95-0.82-0.95
			c-0.14,0-0.27,0.01-0.32,0.03c-0.02,0.01-0.04,0.03-0.04,0.06V30.72z"/>
		<path class="st0" d="M77.14,32.46c-0.07-0.03-0.07-0.05-0.07-0.18c0-0.24,0.02-0.43,0.02-0.5c0.01-0.05,0.01-0.08,0.04-0.08
			c0.03,0,0.03,0.01,0.03,0.05c0,0.04,0,0.11,0.01,0.18c0.07,0.35,0.39,0.48,0.7,0.48c0.46,0,0.68-0.33,0.68-0.63
			c0-0.33-0.14-0.52-0.55-0.86l-0.21-0.18c-0.5-0.41-0.62-0.71-0.62-1.03c0-0.51,0.38-0.86,0.98-0.86c0.19,0,0.32,0.02,0.44,0.05
			c0.09,0.02,0.13,0.02,0.17,0.02c0.04,0,0.05,0.01,0.05,0.03c0,0.02-0.02,0.18-0.02,0.5c0,0.08-0.01,0.11-0.03,0.11
			c-0.03,0-0.03-0.02-0.04-0.06c0-0.06-0.03-0.19-0.06-0.24c-0.03-0.05-0.16-0.25-0.59-0.25c-0.33,0-0.58,0.2-0.58,0.55
			c0,0.27,0.13,0.43,0.58,0.8l0.13,0.1c0.56,0.44,0.69,0.74,0.69,1.12c0,0.19-0.08,0.56-0.4,0.79c-0.2,0.14-0.46,0.2-0.72,0.2
			C77.56,32.59,77.34,32.55,77.14,32.46z"/>
		<path class="st0" d="M80.56,31.14c0,0.46,0,0.83,0.02,1.03c0.01,0.14,0.04,0.24,0.19,0.26c0.07,0.01,0.17,0.02,0.21,0.02
			c0.03,0,0.04,0.01,0.04,0.03c0,0.02-0.02,0.04-0.08,0.04c-0.26,0-0.56-0.01-0.58-0.01c-0.02,0-0.32,0.01-0.47,0.01
			c-0.05,0-0.08-0.01-0.08-0.04c0-0.01,0.01-0.03,0.04-0.03c0.04,0,0.1-0.01,0.14-0.02c0.1-0.02,0.12-0.12,0.14-0.26
			c0.02-0.2,0.02-0.58,0.02-1.03v-0.84c0-0.74,0-0.87-0.01-1.03c-0.01-0.16-0.06-0.24-0.16-0.27c-0.05-0.01-0.11-0.02-0.15-0.02
			c-0.02,0-0.04-0.01-0.04-0.03c0-0.03,0.02-0.04,0.08-0.04c0.16,0,0.46,0.01,0.48,0.01c0.02,0,0.32-0.01,0.47-0.01
			c0.05,0,0.08,0.01,0.08,0.04c0,0.02-0.02,0.03-0.04,0.03c-0.03,0-0.06,0-0.12,0.01c-0.13,0.02-0.17,0.1-0.18,0.27
			c-0.01,0.15-0.01,0.29-0.01,1.03V31.14z"/>
		<path class="st0" d="M82.28,30.31c0-0.74,0-0.87-0.01-1.03c-0.01-0.16-0.05-0.24-0.2-0.27c-0.04-0.01-0.12-0.01-0.16-0.01
			c-0.02,0-0.04-0.01-0.04-0.03c0-0.03,0.02-0.04,0.08-0.04c0.21,0,0.51,0.01,0.54,0.01c0.06,0,0.36-0.01,0.64-0.01
			c0.47,0,1.34-0.04,1.91,0.54c0.24,0.25,0.46,0.64,0.46,1.21c0,0.6-0.25,1.06-0.51,1.34c-0.2,0.21-0.63,0.55-1.44,0.55
			c-0.41,0-1.01-0.06-1.06-0.06c-0.02,0-0.32,0.01-0.47,0.01c-0.05,0-0.08-0.01-0.08-0.04c0-0.01,0.01-0.03,0.04-0.03
			c0.04,0,0.1-0.01,0.14-0.02c0.09-0.02,0.12-0.12,0.14-0.26c0.02-0.2,0.02-0.58,0.02-1.03V30.31z M82.68,30.82
			c0,0.5,0,0.94,0.01,1.03c0,0.12,0.01,0.31,0.05,0.36c0.06,0.09,0.25,0.19,0.81,0.19c0.44,0,0.85-0.16,1.13-0.44
			c0.25-0.24,0.38-0.7,0.38-1.14c0-0.6-0.26-0.99-0.46-1.2c-0.45-0.47-0.99-0.54-1.55-0.54c-0.1,0-0.27,0.01-0.31,0.03
			c-0.04,0.02-0.06,0.04-0.06,0.09c0,0.16,0,0.65,0,1.01V30.82z"/>
		<path class="st0" d="M87.32,29.05c0.06-0.16,0.08-0.19,0.1-0.19c0.03,0,0.05,0.02,0.1,0.17c0.07,0.18,0.82,2.14,1.11,2.87
			c0.17,0.42,0.31,0.5,0.41,0.53c0.07,0.02,0.14,0.03,0.19,0.03c0.03,0,0.05,0,0.05,0.03c0,0.03-0.04,0.04-0.1,0.04
			c-0.07,0-0.42,0-0.75-0.01c-0.09,0-0.14,0-0.14-0.03c0-0.02,0.01-0.03,0.03-0.03c0.03-0.01,0.06-0.05,0.03-0.13l-0.44-1.17
			c-0.01-0.02-0.02-0.03-0.04-0.03h-1.02c-0.02,0-0.04,0.01-0.05,0.04L86.52,32c-0.04,0.12-0.07,0.23-0.07,0.32
			c0,0.09,0.1,0.14,0.18,0.14h0.05c0.03,0,0.05,0.01,0.05,0.03c0,0.03-0.03,0.04-0.07,0.04c-0.11,0-0.32-0.01-0.37-0.01
			c-0.05,0-0.31,0.01-0.54,0.01c-0.06,0-0.09-0.01-0.09-0.04c0-0.02,0.02-0.03,0.04-0.03c0.03,0,0.1,0,0.14-0.01
			c0.22-0.03,0.31-0.21,0.4-0.45L87.32,29.05z M87.82,30.95c0.02,0,0.02-0.01,0.02-0.03l-0.45-1.28c-0.02-0.07-0.05-0.07-0.07,0
			l-0.42,1.28c-0.01,0.02,0,0.03,0.01,0.03H87.82z"/>
		<path class="st0" d="M90.27,30.31c0-0.74,0-0.87-0.01-1.03c-0.01-0.16-0.05-0.24-0.2-0.27c-0.04-0.01-0.12-0.01-0.16-0.01
			c-0.02,0-0.04-0.01-0.04-0.03c0-0.03,0.02-0.04,0.08-0.04c0.21,0,0.51,0.01,0.54,0.01c0.06,0,0.36-0.01,0.64-0.01
			c0.47,0,1.34-0.04,1.91,0.54c0.24,0.25,0.46,0.64,0.46,1.21c0,0.6-0.25,1.06-0.51,1.34c-0.2,0.21-0.63,0.55-1.44,0.55
			c-0.41,0-1.01-0.06-1.06-0.06c-0.02,0-0.32,0.01-0.47,0.01c-0.05,0-0.08-0.01-0.08-0.04c0-0.01,0.01-0.03,0.04-0.03
			c0.04,0,0.1-0.01,0.14-0.02c0.1-0.02,0.12-0.12,0.14-0.26c0.02-0.2,0.02-0.58,0.02-1.03V30.31z M90.67,30.82
			c0,0.5,0,0.94,0.01,1.03c0,0.12,0.01,0.31,0.05,0.36c0.06,0.09,0.25,0.19,0.81,0.19c0.44,0,0.85-0.16,1.13-0.44
			c0.25-0.24,0.38-0.7,0.38-1.14c0-0.6-0.26-0.99-0.46-1.2c-0.45-0.47-0.99-0.54-1.55-0.54c-0.1,0-0.27,0.01-0.31,0.03
			c-0.04,0.02-0.06,0.04-0.06,0.09c0,0.16,0,0.65,0,1.01V30.82z"/>
	</g>
	<g>
		<path class="st0" d="M55.62,38.68c-0.46-0.41-0.58-0.96-0.58-1.41c0-0.32,0.11-0.87,0.53-1.3c0.29-0.28,0.72-0.51,1.45-0.51
			c0.19,0,0.46,0.01,0.69,0.06c0.18,0.03,0.33,0.06,0.48,0.07c0.05,0,0.06,0.02,0.06,0.05c0,0.04-0.01,0.1-0.02,0.27
			c-0.01,0.16-0.01,0.42-0.01,0.49c0,0.07-0.01,0.1-0.04,0.1c-0.03,0-0.04-0.03-0.04-0.1c0-0.19-0.08-0.38-0.2-0.48
			c-0.17-0.14-0.53-0.27-0.95-0.27c-0.63,0-0.93,0.19-1.09,0.35c-0.35,0.33-0.43,0.76-0.43,1.24c0,0.91,0.7,1.74,1.72,1.74
			c0.36,0,0.64-0.04,0.83-0.24c0.1-0.1,0.16-0.31,0.18-0.4c0.01-0.05,0.02-0.07,0.05-0.07c0.02,0,0.03,0.03,0.03,0.07
			c0,0.03-0.06,0.45-0.1,0.61c-0.03,0.09-0.04,0.1-0.12,0.14c-0.19,0.08-0.55,0.11-0.86,0.11C56.48,39.19,56,39.02,55.62,38.68z"/>
		<path class="st0" d="M60.43,35.65c0.06-0.16,0.08-0.19,0.1-0.19c0.03,0,0.05,0.02,0.1,0.17c0.07,0.18,0.82,2.14,1.11,2.87
			c0.17,0.42,0.31,0.5,0.41,0.53c0.07,0.02,0.14,0.03,0.19,0.03c0.03,0,0.05,0,0.05,0.03c0,0.03-0.04,0.04-0.1,0.04
			c-0.07,0-0.42,0-0.75-0.01c-0.09,0-0.14,0-0.14-0.03c0-0.02,0.01-0.03,0.03-0.03c0.03-0.01,0.06-0.05,0.03-0.13l-0.44-1.17
			c-0.01-0.02-0.02-0.03-0.04-0.03h-1.02c-0.02,0-0.04,0.01-0.05,0.04l-0.29,0.84c-0.04,0.12-0.07,0.23-0.07,0.32
			c0,0.09,0.1,0.14,0.18,0.14h0.05c0.03,0,0.05,0.01,0.05,0.03c0,0.03-0.03,0.04-0.07,0.04c-0.11,0-0.32-0.01-0.37-0.01
			c-0.05,0-0.31,0.01-0.54,0.01c-0.06,0-0.09-0.01-0.09-0.04c0-0.02,0.02-0.03,0.04-0.03c0.03,0,0.1,0,0.14-0.01
			c0.22-0.03,0.31-0.21,0.4-0.45L60.43,35.65z M60.92,37.55c0.02,0,0.02-0.01,0.02-0.03l-0.45-1.28c-0.02-0.07-0.05-0.07-0.07,0
			L60,37.52c-0.01,0.02,0,0.03,0.01,0.03H60.92z"/>
		<path class="st0" d="M64.09,37.75c0,0.46,0,0.83,0.02,1.03c0.01,0.14,0.04,0.24,0.19,0.26c0.07,0.01,0.17,0.02,0.21,0.02
			c0.03,0,0.04,0.01,0.04,0.03c0,0.02-0.02,0.04-0.08,0.04c-0.26,0-0.56-0.01-0.58-0.01c-0.02,0-0.32,0.01-0.47,0.01
			c-0.05,0-0.08-0.01-0.08-0.04c0-0.01,0.01-0.03,0.04-0.03c0.04,0,0.1-0.01,0.14-0.02c0.09-0.02,0.12-0.12,0.14-0.26
			c0.02-0.2,0.02-0.58,0.02-1.03v-2.01l-0.7,0.01c-0.29,0-0.41,0.04-0.48,0.15c-0.05,0.08-0.07,0.11-0.08,0.15
			c-0.01,0.04-0.03,0.05-0.05,0.05c-0.01,0-0.02-0.01-0.02-0.04c0-0.05,0.1-0.46,0.1-0.49c0.01-0.03,0.03-0.09,0.05-0.09
			c0.03,0,0.08,0.05,0.21,0.06c0.14,0.01,0.32,0.02,0.38,0.02h1.78c0.3,0,0.43-0.05,0.47-0.05c0.02,0,0.02,0.03,0.02,0.06
			c0,0.14-0.01,0.47-0.01,0.52c0,0.04-0.01,0.06-0.03,0.06c-0.02,0-0.03-0.01-0.04-0.08l0-0.05c-0.02-0.14-0.13-0.25-0.58-0.26
			l-0.6-0.01V37.75z"/>
		<path class="st0" d="M67.75,35.47c1.07,0,1.87,0.67,1.87,1.78c0,1.06-0.75,1.94-1.9,1.94c-1.3,0-1.84-1.01-1.84-1.87
			C65.88,36.56,66.44,35.47,67.75,35.47z M67.85,39.01c0.43,0,1.31-0.25,1.31-1.63c0-1.14-0.69-1.75-1.44-1.75
			c-0.79,0-1.39,0.52-1.39,1.56C66.33,38.3,67,39.01,67.85,39.01z M68.48,34.89c0.02,0.04,0,0.06-0.02,0.06
			c-0.01,0-0.06-0.01-0.14,0c-0.23,0.02-0.57,0.13-0.72,0.2c-0.03,0.01-0.06,0.02-0.07,0.02c-0.01,0-0.02-0.01-0.02-0.03
			c0-0.01,0.01-0.02,0.03-0.04c0.17-0.12,0.61-0.38,0.65-0.4c0.08-0.05,0.11-0.06,0.13-0.06c0.01,0,0.02,0.01,0.05,0.04
			C68.39,34.73,68.42,34.79,68.48,34.89z"/>
		<path class="st0" d="M71.17,37.76c0,0.7,0.02,1,0.1,1.09c0.08,0.08,0.2,0.11,0.57,0.11c0.25,0,0.46,0,0.57-0.14
			c0.06-0.08,0.11-0.19,0.12-0.29c0-0.04,0.01-0.06,0.04-0.06c0.02,0,0.03,0.02,0.03,0.07c0,0.05-0.03,0.34-0.07,0.48
			c-0.03,0.11-0.05,0.13-0.3,0.13c-0.68,0-1-0.03-1.27-0.03c-0.04,0-0.32,0.01-0.47,0.01c-0.05,0-0.08-0.01-0.08-0.04
			c0-0.01,0.01-0.03,0.04-0.03c0.04,0,0.1-0.01,0.14-0.02c0.09-0.02,0.12-0.12,0.14-0.26c0.02-0.2,0.02-0.58,0.02-1.03v-0.84
			c0-0.74,0-0.87-0.01-1.03c-0.01-0.16-0.05-0.24-0.2-0.27c-0.04-0.01-0.12-0.01-0.16-0.01c-0.02,0-0.04-0.01-0.04-0.03
			c0-0.03,0.02-0.04,0.08-0.04c0.21,0,0.51,0.01,0.54,0.01c0.02,0,0.37-0.01,0.51-0.01c0.05,0,0.08,0.01,0.08,0.04
			c0,0.02-0.02,0.03-0.04,0.03c-0.03,0-0.1,0-0.16,0.01c-0.14,0.02-0.18,0.1-0.19,0.27c-0.01,0.15-0.01,0.29-0.01,1.03V37.76z"/>
		<path class="st0" d="M74.11,37.75c0,0.46,0,0.83,0.02,1.03c0.01,0.14,0.04,0.24,0.19,0.26c0.07,0.01,0.17,0.02,0.21,0.02
			c0.03,0,0.04,0.01,0.04,0.03c0,0.02-0.02,0.04-0.08,0.04c-0.26,0-0.56-0.01-0.58-0.01c-0.02,0-0.32,0.01-0.47,0.01
			c-0.05,0-0.08-0.01-0.08-0.04c0-0.01,0.01-0.03,0.04-0.03c0.04,0,0.1-0.01,0.14-0.02c0.09-0.02,0.12-0.12,0.14-0.26
			c0.02-0.2,0.02-0.58,0.02-1.03v-0.84c0-0.74,0-0.87-0.01-1.03c-0.01-0.16-0.06-0.24-0.16-0.27c-0.05-0.01-0.11-0.02-0.15-0.02
			c-0.02,0-0.04-0.01-0.04-0.03c0-0.03,0.02-0.04,0.08-0.04c0.16,0,0.46,0.01,0.48,0.01c0.02,0,0.32-0.01,0.47-0.01
			c0.05,0,0.08,0.01,0.08,0.04c0,0.02-0.02,0.03-0.04,0.03c-0.03,0-0.06,0-0.12,0.01c-0.13,0.02-0.17,0.1-0.18,0.27
			c-0.01,0.15-0.01,0.29-0.01,1.03V37.75z"/>
		<path class="st0" d="M75.82,38.68c-0.46-0.41-0.58-0.96-0.58-1.41c0-0.32,0.11-0.87,0.53-1.3c0.29-0.28,0.72-0.51,1.45-0.51
			c0.19,0,0.46,0.01,0.69,0.06c0.18,0.03,0.33,0.06,0.48,0.07c0.05,0,0.06,0.02,0.06,0.05c0,0.04-0.01,0.1-0.02,0.27
			c-0.01,0.16-0.01,0.42-0.01,0.49c0,0.07-0.01,0.1-0.04,0.1c-0.03,0-0.04-0.03-0.04-0.1c0-0.19-0.08-0.38-0.2-0.48
			c-0.17-0.14-0.53-0.27-0.95-0.27c-0.63,0-0.93,0.19-1.09,0.35c-0.35,0.33-0.43,0.76-0.43,1.24c0,0.91,0.7,1.74,1.72,1.74
			c0.36,0,0.64-0.04,0.83-0.24c0.1-0.1,0.16-0.31,0.18-0.4c0.01-0.05,0.02-0.07,0.05-0.07c0.02,0,0.03,0.03,0.03,0.07
			c0,0.03-0.06,0.45-0.1,0.61c-0.03,0.09-0.04,0.1-0.12,0.14c-0.19,0.08-0.55,0.11-0.86,0.11C76.67,39.19,76.19,39.02,75.82,38.68z"
			/>
		<path class="st0" d="M80.62,35.65c0.06-0.16,0.08-0.19,0.1-0.19c0.03,0,0.05,0.02,0.1,0.17c0.07,0.18,0.82,2.14,1.11,2.87
			c0.17,0.42,0.31,0.5,0.41,0.53c0.07,0.02,0.14,0.03,0.19,0.03c0.03,0,0.05,0,0.05,0.03c0,0.03-0.04,0.04-0.1,0.04
			c-0.07,0-0.42,0-0.75-0.01c-0.09,0-0.14,0-0.14-0.03c0-0.02,0.01-0.03,0.03-0.03c0.03-0.01,0.06-0.05,0.03-0.13l-0.44-1.17
			c-0.01-0.02-0.02-0.03-0.04-0.03h-1.02c-0.02,0-0.04,0.01-0.05,0.04l-0.29,0.84c-0.04,0.12-0.07,0.23-0.07,0.32
			c0,0.09,0.1,0.14,0.18,0.14h0.05c0.03,0,0.05,0.01,0.05,0.03c0,0.03-0.03,0.04-0.07,0.04c-0.11,0-0.32-0.01-0.37-0.01
			c-0.05,0-0.31,0.01-0.54,0.01c-0.06,0-0.09-0.01-0.09-0.04c0-0.02,0.02-0.03,0.04-0.03c0.03,0,0.1,0,0.14-0.01
			c0.22-0.03,0.31-0.21,0.4-0.45L80.62,35.65z M81.11,37.55c0.02,0,0.02-0.01,0.02-0.03l-0.45-1.28c-0.02-0.07-0.05-0.07-0.07,0
			l-0.42,1.28c-0.01,0.02,0,0.03,0.01,0.03H81.11z"/>
	</g>
	<g>
		<path class="st0" d="M55.46,43.93c0-0.74,0-0.87-0.01-1.03c-0.01-0.16-0.05-0.24-0.2-0.27c-0.04-0.01-0.12-0.01-0.16-0.01
			c-0.02,0-0.04-0.01-0.04-0.03c0-0.03,0.02-0.04,0.08-0.04c0.21,0,0.51,0.01,0.54,0.01c0.06,0,0.36-0.01,0.64-0.01
			c0.47,0,1.34-0.04,1.91,0.54c0.24,0.25,0.46,0.64,0.46,1.21c0,0.6-0.25,1.06-0.51,1.34c-0.2,0.21-0.63,0.55-1.44,0.55
			c-0.41,0-1.01-0.06-1.06-0.06c-0.02,0-0.32,0.01-0.47,0.01c-0.05,0-0.08-0.01-0.08-0.04c0-0.01,0.01-0.03,0.04-0.03
			c0.04,0,0.1-0.01,0.14-0.02c0.1-0.02,0.12-0.12,0.14-0.26c0.02-0.2,0.02-0.58,0.02-1.03V43.93z M55.86,44.44
			c0,0.5,0,0.94,0.01,1.03c0,0.12,0.01,0.31,0.05,0.36c0.06,0.09,0.25,0.19,0.81,0.19c0.44,0,0.85-0.16,1.13-0.44
			c0.25-0.24,0.38-0.7,0.38-1.14c0-0.6-0.26-0.99-0.46-1.2c-0.45-0.47-0.99-0.54-1.55-0.54c-0.1,0-0.27,0.01-0.31,0.03
			c-0.04,0.02-0.06,0.04-0.06,0.09c0,0.16,0,0.65,0,1.01V44.44z"/>
		<path class="st0" d="M59.8,43.93c0-0.74,0-0.87-0.01-1.03c-0.01-0.16-0.05-0.24-0.2-0.27c-0.04-0.01-0.12-0.01-0.16-0.01
			c-0.02,0-0.04-0.01-0.04-0.03c0-0.03,0.02-0.04,0.08-0.04c0.21,0,0.51,0.01,0.54,0.01c0.03,0,0.98,0,1.09,0
			c0.09,0,0.17-0.01,0.2-0.02c0.02,0,0.04-0.02,0.07-0.02c0.01,0,0.02,0.02,0.02,0.04c0,0.03-0.02,0.09-0.04,0.22
			c0,0.05-0.01,0.26-0.02,0.31c-0.01,0.02-0.01,0.05-0.03,0.05c-0.03,0-0.04-0.02-0.04-0.06c0-0.03,0-0.11-0.03-0.17
			c-0.03-0.08-0.08-0.13-0.34-0.16c-0.08-0.01-0.6-0.01-0.65-0.01c-0.02,0-0.03,0.01-0.03,0.05v1.31c0,0.03,0,0.05,0.03,0.05
			c0.06,0,0.65,0,0.76-0.01c0.11-0.01,0.18-0.02,0.22-0.07c0.03-0.04,0.05-0.06,0.07-0.06c0.01,0,0.02,0.01,0.02,0.04
			c0,0.03-0.02,0.11-0.04,0.27c-0.01,0.1-0.02,0.27-0.02,0.3c0,0.04,0,0.09-0.03,0.09c-0.02,0-0.03-0.02-0.03-0.04
			c0-0.05,0-0.1-0.02-0.16c-0.02-0.07-0.06-0.15-0.25-0.17c-0.13-0.01-0.6-0.02-0.68-0.02c-0.02,0-0.03,0.01-0.03,0.03v0.42
			c0,0.16,0,0.71,0,0.81c0.01,0.33,0.09,0.39,0.55,0.39c0.12,0,0.33,0,0.46-0.05c0.12-0.05,0.18-0.15,0.21-0.34
			c0.01-0.05,0.02-0.07,0.04-0.07c0.03,0,0.03,0.04,0.03,0.07c0,0.04-0.04,0.36-0.06,0.46c-0.03,0.12-0.07,0.12-0.26,0.12
			c-0.72,0-1.04-0.03-1.17-0.03c-0.02,0-0.32,0.01-0.47,0.01c-0.05,0-0.08-0.01-0.08-0.04c0-0.01,0.01-0.03,0.04-0.03
			c0.04,0,0.1-0.01,0.14-0.02c0.09-0.02,0.12-0.12,0.14-0.26c0.02-0.2,0.02-0.58,0.02-1.03V43.93z"/>
		<path class="st0" d="M64.51,45.69c-0.46-0.41-0.58-0.96-0.58-1.41c0-0.32,0.11-0.87,0.53-1.3c0.28-0.28,0.72-0.51,1.45-0.51
			c0.19,0,0.46,0.01,0.69,0.06c0.18,0.03,0.33,0.06,0.48,0.07c0.05,0,0.06,0.02,0.06,0.05c0,0.04-0.01,0.1-0.02,0.27
			c-0.01,0.16-0.01,0.42-0.01,0.49c0,0.07-0.01,0.1-0.04,0.1c-0.03,0-0.04-0.03-0.04-0.1c0-0.19-0.08-0.38-0.2-0.48
			c-0.17-0.14-0.53-0.27-0.95-0.27c-0.63,0-0.93,0.19-1.09,0.35c-0.35,0.33-0.43,0.76-0.43,1.24c0,0.91,0.7,1.74,1.72,1.74
			c0.36,0,0.64-0.04,0.83-0.24c0.1-0.1,0.16-0.31,0.18-0.4c0.01-0.05,0.02-0.07,0.05-0.07c0.02,0,0.03,0.03,0.03,0.07
			c0,0.03-0.06,0.45-0.1,0.61c-0.03,0.09-0.04,0.1-0.12,0.14c-0.19,0.08-0.55,0.11-0.86,0.11C65.37,46.21,64.89,46.03,64.51,45.69z"
			/>
		<path class="st0" d="M71.29,44.76c0,0.46,0,0.83,0.02,1.03c0.01,0.14,0.04,0.24,0.19,0.26c0.07,0.01,0.17,0.02,0.21,0.02
			c0.03,0,0.04,0.01,0.04,0.03c0,0.02-0.02,0.04-0.08,0.04c-0.26,0-0.56-0.01-0.58-0.01c-0.02,0-0.32,0.01-0.47,0.01
			c-0.05,0-0.08-0.01-0.08-0.04c0-0.01,0.01-0.03,0.04-0.03c0.04,0,0.1-0.01,0.14-0.02c0.09-0.02,0.12-0.12,0.14-0.26
			c0.02-0.2,0.02-0.58,0.02-1.03v-0.5c0-0.02-0.01-0.03-0.03-0.03h-2.02c-0.01,0-0.03,0-0.03,0.03v0.5c0,0.46,0,0.83,0.02,1.03
			c0.01,0.14,0.04,0.24,0.19,0.26c0.07,0.01,0.17,0.02,0.21,0.02c0.03,0,0.04,0.01,0.04,0.03c0,0.02-0.02,0.04-0.08,0.04
			c-0.26,0-0.56-0.01-0.58-0.01c-0.02,0-0.32,0.01-0.47,0.01c-0.05,0-0.08-0.01-0.08-0.04c0-0.01,0.01-0.03,0.04-0.03
			c0.04,0,0.1-0.01,0.14-0.02c0.1-0.02,0.12-0.12,0.14-0.26c0.02-0.2,0.02-0.58,0.02-1.03v-0.84c0-0.74,0-0.87-0.01-1.03
			c-0.01-0.16-0.05-0.24-0.2-0.27c-0.04-0.01-0.12-0.01-0.16-0.01c-0.02,0-0.04-0.01-0.04-0.03c0-0.03,0.02-0.04,0.08-0.04
			c0.21,0,0.51,0.01,0.54,0.01c0.02,0,0.32-0.01,0.47-0.01c0.05,0,0.08,0.01,0.08,0.04c0,0.02-0.02,0.03-0.04,0.03
			c-0.03,0-0.06,0-0.12,0.01c-0.13,0.02-0.17,0.1-0.18,0.27c-0.01,0.15-0.01,0.29-0.01,1.03v0.1c0,0.02,0.01,0.03,0.03,0.03h2.02
			c0.01,0,0.03,0,0.03-0.03v-0.1c0-0.74,0-0.87-0.01-1.03c-0.01-0.16-0.05-0.24-0.2-0.27c-0.04-0.01-0.12-0.01-0.16-0.01
			c-0.02,0-0.04-0.01-0.04-0.03c0-0.03,0.02-0.04,0.08-0.04c0.21,0,0.51,0.01,0.54,0.01c0.02,0,0.32-0.01,0.47-0.01
			c0.05,0,0.08,0.01,0.08,0.04c0,0.02-0.02,0.03-0.04,0.03c-0.03,0-0.06,0-0.12,0.01c-0.13,0.02-0.17,0.1-0.18,0.27
			c-0.01,0.15-0.01,0.29-0.01,1.03V44.76z"/>
		<path class="st0" d="M73.43,44.76c0,0.46,0,0.83,0.02,1.03c0.01,0.14,0.04,0.24,0.19,0.26c0.07,0.01,0.17,0.02,0.21,0.02
			c0.03,0,0.04,0.01,0.04,0.03c0,0.02-0.02,0.04-0.08,0.04c-0.26,0-0.56-0.01-0.58-0.01c-0.02,0-0.32,0.01-0.47,0.01
			c-0.05,0-0.08-0.01-0.08-0.04c0-0.01,0.01-0.03,0.04-0.03c0.04,0,0.1-0.01,0.14-0.02c0.09-0.02,0.12-0.12,0.14-0.26
			c0.02-0.2,0.02-0.58,0.02-1.03v-0.84c0-0.74,0-0.87-0.01-1.03c-0.01-0.16-0.06-0.24-0.16-0.27c-0.05-0.01-0.11-0.02-0.15-0.02
			c-0.02,0-0.04-0.01-0.04-0.03c0-0.03,0.02-0.04,0.08-0.04c0.16,0,0.46,0.01,0.48,0.01c0.02,0,0.32-0.01,0.47-0.01
			c0.05,0,0.08,0.01,0.08,0.04c0,0.02-0.02,0.03-0.04,0.03c-0.03,0-0.06,0-0.12,0.01c-0.13,0.02-0.17,0.1-0.18,0.27
			c-0.01,0.15-0.01,0.29-0.01,1.03V44.76z"/>
		<path class="st0" d="M75.55,44.77c0,0.7,0.02,1,0.1,1.09c0.08,0.08,0.2,0.11,0.57,0.11c0.25,0,0.46,0,0.58-0.14
			c0.06-0.08,0.11-0.19,0.12-0.29c0-0.04,0.01-0.06,0.04-0.06c0.02,0,0.03,0.02,0.03,0.07c0,0.05-0.03,0.34-0.07,0.48
			c-0.03,0.11-0.05,0.13-0.3,0.13c-0.68,0-1-0.03-1.27-0.03c-0.04,0-0.32,0.01-0.47,0.01c-0.05,0-0.08-0.01-0.08-0.04
			c0-0.01,0.01-0.03,0.04-0.03c0.04,0,0.1-0.01,0.14-0.02c0.1-0.02,0.12-0.12,0.14-0.26c0.02-0.2,0.02-0.58,0.02-1.03v-0.84
			c0-0.74,0-0.87-0.01-1.03c-0.01-0.16-0.05-0.24-0.2-0.27c-0.04-0.01-0.12-0.01-0.16-0.01c-0.02,0-0.04-0.01-0.04-0.03
			c0-0.03,0.02-0.04,0.08-0.04c0.21,0,0.51,0.01,0.54,0.01c0.02,0,0.37-0.01,0.51-0.01c0.05,0,0.08,0.01,0.08,0.04
			c0,0.02-0.02,0.03-0.04,0.03c-0.03,0-0.1,0-0.16,0.01c-0.14,0.02-0.18,0.1-0.19,0.27c-0.01,0.15-0.01,0.29-0.01,1.03V44.77z"/>
		<path class="st0" d="M78.1,43.93c0-0.74,0-0.87-0.01-1.03c-0.01-0.16-0.05-0.24-0.2-0.27c-0.04-0.01-0.12-0.01-0.16-0.01
			c-0.02,0-0.04-0.01-0.04-0.03c0-0.03,0.02-0.04,0.08-0.04c0.21,0,0.51,0.01,0.54,0.01c0.03,0,0.98,0,1.09,0
			c0.09,0,0.17-0.01,0.2-0.02c0.02,0,0.04-0.02,0.07-0.02c0.01,0,0.02,0.02,0.02,0.04c0,0.03-0.02,0.09-0.04,0.22
			c0,0.05-0.01,0.26-0.02,0.31c0,0.02-0.01,0.05-0.03,0.05c-0.03,0-0.04-0.02-0.04-0.06c0-0.03,0-0.11-0.03-0.17
			c-0.03-0.08-0.08-0.13-0.34-0.16c-0.08-0.01-0.6-0.01-0.65-0.01c-0.02,0-0.03,0.01-0.03,0.05v1.31c0,0.03,0,0.05,0.03,0.05
			c0.06,0,0.65,0,0.76-0.01c0.11-0.01,0.18-0.02,0.22-0.07c0.03-0.04,0.05-0.06,0.07-0.06c0.01,0,0.02,0.01,0.02,0.04
			c0,0.03-0.02,0.11-0.04,0.27c-0.01,0.1-0.02,0.27-0.02,0.3c0,0.04,0,0.09-0.03,0.09c-0.02,0-0.03-0.02-0.03-0.04
			c0-0.05,0-0.1-0.02-0.16c-0.02-0.07-0.06-0.15-0.25-0.17c-0.13-0.01-0.6-0.02-0.68-0.02c-0.02,0-0.03,0.01-0.03,0.03v0.42
			c0,0.16,0,0.71,0,0.81c0.01,0.33,0.09,0.39,0.55,0.39c0.12,0,0.33,0,0.46-0.05c0.12-0.05,0.18-0.15,0.21-0.34
			c0.01-0.05,0.02-0.07,0.04-0.07c0.03,0,0.03,0.04,0.03,0.07c0,0.04-0.04,0.36-0.06,0.46c-0.03,0.12-0.07,0.12-0.26,0.12
			c-0.72,0-1.04-0.03-1.17-0.03c-0.02,0-0.32,0.01-0.47,0.01c-0.05,0-0.08-0.01-0.08-0.04c0-0.01,0.01-0.03,0.04-0.03
			c0.04,0,0.1-0.01,0.14-0.02c0.1-0.02,0.12-0.12,0.14-0.26c0.02-0.2,0.02-0.58,0.02-1.03V43.93z"/>
	</g>
	<g>
		<path class="st0" d="M55.46,23.34c0-0.74,0-0.87-0.01-1.03c-0.01-0.16-0.05-0.24-0.2-0.27c-0.04-0.01-0.12-0.01-0.16-0.01
			c-0.02,0-0.04-0.01-0.04-0.03c0-0.03,0.02-0.04,0.08-0.04c0.21,0,0.5,0.01,0.54,0.01c0.1,0,0.38-0.01,0.6-0.01
			c0.59,0,0.81,0.2,0.88,0.27c0.1,0.1,0.24,0.31,0.24,0.57c0,0.68-0.49,1.13-1.17,1.13c-0.02,0-0.08,0-0.1,0
			c-0.02,0-0.05-0.01-0.05-0.03c0-0.04,0.03-0.04,0.13-0.04c0.46,0,0.82-0.34,0.82-0.77c0-0.16-0.01-0.48-0.27-0.73
			c-0.25-0.26-0.54-0.24-0.65-0.24c-0.08,0-0.16,0.01-0.2,0.03c-0.03,0.01-0.04,0.04-0.04,0.09v1.95c0,0.46,0,0.83,0.02,1.03
			c0.01,0.14,0.04,0.24,0.19,0.26c0.07,0.01,0.17,0.02,0.21,0.02c0.03,0,0.04,0.01,0.04,0.03c0,0.02-0.02,0.04-0.08,0.04
			c-0.26,0-0.56-0.01-0.58-0.01c-0.01,0-0.31,0.01-0.46,0.01c-0.05,0-0.08-0.01-0.08-0.04c0-0.01,0.01-0.03,0.04-0.03
			c0.04,0,0.1-0.01,0.14-0.02c0.09-0.02,0.12-0.12,0.14-0.26c0.02-0.2,0.02-0.58,0.02-1.03V23.34z"/>
		<path class="st0" d="M59.96,21.89c1.07,0,1.87,0.67,1.87,1.78c0,1.06-0.75,1.94-1.9,1.94c-1.3,0-1.84-1.01-1.84-1.87
			C58.09,22.98,58.65,21.89,59.96,21.89z M60.06,25.44c0.43,0,1.31-0.25,1.31-1.63c0-1.14-0.69-1.75-1.44-1.75
			c-0.79,0-1.39,0.52-1.39,1.56C58.54,24.73,59.21,25.44,60.06,25.44z"/>
		<path class="st0" d="M63.18,24.91c0.01,0.39,0.06,0.51,0.19,0.55c0.09,0.02,0.19,0.03,0.24,0.03c0.02,0,0.04,0.01,0.04,0.03
			c0,0.03-0.03,0.04-0.09,0.04c-0.27,0-0.46-0.01-0.5-0.01c-0.04,0-0.24,0.01-0.46,0.01c-0.05,0-0.08,0-0.08-0.04
			c0-0.02,0.01-0.03,0.04-0.03c0.04,0,0.12,0,0.19-0.03c0.12-0.03,0.14-0.17,0.14-0.6l0-2.72c0-0.19,0.01-0.24,0.05-0.24
			c0.04,0,0.12,0.1,0.17,0.15c0.07,0.08,0.78,0.85,1.51,1.63c0.47,0.5,0.99,1.08,1.14,1.24l-0.05-2.41c0-0.31-0.04-0.41-0.19-0.45
			c-0.09-0.02-0.19-0.02-0.23-0.02c-0.03,0-0.04-0.01-0.04-0.03c0-0.03,0.04-0.03,0.09-0.03c0.21,0,0.44,0.01,0.49,0.01
			c0.05,0,0.21-0.01,0.4-0.01c0.05,0,0.09,0,0.09,0.03c0,0.02-0.02,0.03-0.05,0.03c-0.02,0-0.06,0-0.11,0.01
			C66.02,22.07,66,22.18,66,22.46l-0.01,2.79c0,0.31-0.01,0.34-0.04,0.34c-0.04,0-0.1-0.05-0.35-0.3c-0.05-0.05-0.74-0.75-1.24-1.29
			c-0.55-0.59-1.09-1.19-1.24-1.36L63.18,24.91z"/>
		<path class="st0" d="M68.77,24.18c0,0.46,0,0.83,0.02,1.03c0.01,0.14,0.04,0.24,0.19,0.26c0.07,0.01,0.17,0.02,0.21,0.02
			c0.03,0,0.04,0.01,0.04,0.03c0,0.02-0.02,0.04-0.08,0.04c-0.26,0-0.56-0.01-0.58-0.01c-0.02,0-0.32,0.01-0.47,0.01
			c-0.05,0-0.08-0.01-0.08-0.04c0-0.01,0.01-0.03,0.04-0.03c0.04,0,0.1-0.01,0.14-0.02c0.09-0.02,0.12-0.12,0.14-0.26
			c0.02-0.2,0.02-0.58,0.02-1.03v-2.01l-0.7,0.01c-0.29,0-0.41,0.04-0.48,0.15c-0.05,0.08-0.07,0.11-0.08,0.15
			c-0.01,0.04-0.03,0.05-0.05,0.05c-0.01,0-0.02-0.01-0.02-0.04c0-0.05,0.1-0.46,0.1-0.49c0.01-0.03,0.03-0.09,0.05-0.09
			c0.03,0,0.08,0.05,0.21,0.06c0.14,0.01,0.32,0.02,0.38,0.02h1.78c0.3,0,0.43-0.05,0.47-0.05c0.02,0,0.02,0.03,0.02,0.06
			c0,0.14-0.01,0.47-0.01,0.52c0,0.04-0.01,0.06-0.03,0.06c-0.02,0-0.03-0.01-0.04-0.08l0-0.05c-0.02-0.14-0.13-0.25-0.58-0.26
			l-0.6-0.01V24.18z"/>
		<path class="st0" d="M71.6,24.18c0,0.46,0,0.83,0.02,1.03c0.01,0.14,0.04,0.24,0.19,0.26c0.07,0.01,0.17,0.02,0.21,0.02
			c0.03,0,0.04,0.01,0.04,0.03c0,0.02-0.02,0.04-0.08,0.04c-0.26,0-0.56-0.01-0.58-0.01c-0.02,0-0.32,0.01-0.47,0.01
			c-0.05,0-0.08-0.01-0.08-0.04c0-0.01,0.01-0.03,0.04-0.03c0.04,0,0.1-0.01,0.14-0.02c0.1-0.02,0.12-0.12,0.14-0.26
			c0.02-0.2,0.02-0.58,0.02-1.03v-0.84c0-0.74,0-0.87-0.01-1.03c-0.01-0.16-0.06-0.24-0.16-0.27c-0.05-0.01-0.11-0.02-0.15-0.02
			c-0.02,0-0.04-0.01-0.04-0.03c0-0.03,0.02-0.04,0.08-0.04c0.16,0,0.46,0.01,0.48,0.01c0.02,0,0.32-0.01,0.47-0.01
			c0.05,0,0.08,0.01,0.08,0.04c0,0.02-0.02,0.03-0.04,0.03c-0.03,0-0.06,0-0.12,0.01c-0.13,0.02-0.17,0.1-0.18,0.27
			c-0.01,0.15-0.01,0.29-0.01,1.03V24.18z"/>
		<path class="st0" d="M73.33,23.34c0-0.74,0-0.87-0.01-1.03c-0.01-0.16-0.05-0.24-0.2-0.27c-0.04-0.01-0.12-0.01-0.16-0.01
			c-0.02,0-0.04-0.01-0.04-0.03c0-0.03,0.02-0.04,0.08-0.04c0.21,0,0.51,0.01,0.54,0.01c0.1,0,1.06,0,1.17,0
			c0.09,0,0.17,0,0.21-0.02c0.03-0.01,0.05-0.03,0.07-0.03c0.02,0,0.03,0.02,0.03,0.04c0,0.03-0.02,0.09-0.04,0.22
			c0,0.05-0.01,0.26-0.02,0.31c0,0.02-0.01,0.05-0.04,0.05c-0.02,0-0.03-0.02-0.03-0.06c0-0.04-0.01-0.12-0.04-0.18
			c-0.03-0.06-0.14-0.15-0.32-0.15l-0.73-0.01c-0.03,0-0.04,0.01-0.04,0.05v1.31c0,0.03,0,0.04,0.03,0.04l0.61,0
			c0.08,0,0.15,0,0.21,0c0.11-0.01,0.18-0.02,0.22-0.09c0.02-0.02,0.03-0.05,0.05-0.05c0.02,0,0.02,0.01,0.02,0.04
			c0,0.03-0.02,0.11-0.04,0.27c-0.01,0.1-0.02,0.29-0.02,0.32c0,0.04,0,0.09-0.03,0.09c-0.02,0-0.03-0.02-0.03-0.04
			c0-0.05-0.01-0.11-0.03-0.17c-0.02-0.07-0.1-0.15-0.25-0.17c-0.12-0.01-0.64-0.01-0.72-0.01c-0.02,0-0.03,0.01-0.03,0.04v0.4
			c0,0.46,0,0.83,0.02,1.03c0.01,0.14,0.04,0.24,0.19,0.26c0.07,0.01,0.17,0.02,0.21,0.02c0.03,0,0.04,0.01,0.04,0.03
			c0,0.02-0.02,0.04-0.08,0.04c-0.26,0-0.56-0.01-0.58-0.01c-0.02,0-0.32,0.01-0.47,0.01c-0.05,0-0.08-0.01-0.08-0.04
			c0-0.01,0.01-0.03,0.04-0.03c0.04,0,0.1-0.01,0.14-0.02c0.1-0.02,0.12-0.12,0.14-0.26c0.02-0.2,0.02-0.58,0.02-1.03V23.34z"/>
		<path class="st0" d="M76.63,24.18c0,0.46,0,0.83,0.02,1.03c0.01,0.14,0.04,0.24,0.19,0.26c0.07,0.01,0.17,0.02,0.21,0.02
			c0.03,0,0.04,0.01,0.04,0.03c0,0.02-0.02,0.04-0.08,0.04c-0.26,0-0.56-0.01-0.58-0.01c-0.02,0-0.32,0.01-0.47,0.01
			c-0.05,0-0.08-0.01-0.08-0.04c0-0.01,0.01-0.03,0.04-0.03c0.04,0,0.1-0.01,0.14-0.02c0.1-0.02,0.12-0.12,0.14-0.26
			c0.02-0.2,0.02-0.58,0.02-1.03v-0.84c0-0.74,0-0.87-0.01-1.03c-0.01-0.16-0.06-0.24-0.16-0.27c-0.05-0.01-0.11-0.02-0.15-0.02
			c-0.02,0-0.04-0.01-0.04-0.03c0-0.03,0.02-0.04,0.08-0.04c0.16,0,0.46,0.01,0.48,0.01c0.02,0,0.32-0.01,0.47-0.01
			c0.05,0,0.08,0.01,0.08,0.04c0,0.02-0.02,0.03-0.04,0.03c-0.03,0-0.06,0-0.12,0.01c-0.13,0.02-0.17,0.1-0.18,0.27
			c-0.01,0.15-0.01,0.29-0.01,1.03V24.18z"/>
		<path class="st0" d="M78.33,25.11c-0.46-0.41-0.58-0.96-0.58-1.41c0-0.32,0.11-0.87,0.53-1.3c0.28-0.28,0.72-0.51,1.45-0.51
			c0.19,0,0.46,0.01,0.69,0.06c0.18,0.03,0.33,0.06,0.48,0.07c0.05,0,0.06,0.02,0.06,0.05c0,0.04-0.01,0.1-0.02,0.27
			c-0.01,0.16-0.01,0.42-0.01,0.49c0,0.07-0.01,0.1-0.04,0.1c-0.03,0-0.04-0.03-0.04-0.1c0-0.19-0.08-0.38-0.2-0.48
			c-0.17-0.14-0.53-0.27-0.95-0.27c-0.63,0-0.93,0.19-1.09,0.35c-0.35,0.33-0.43,0.76-0.43,1.24c0,0.91,0.7,1.74,1.72,1.74
			c0.36,0,0.64-0.04,0.83-0.24c0.1-0.1,0.16-0.31,0.18-0.4c0.01-0.05,0.02-0.07,0.05-0.07c0.02,0,0.03,0.03,0.03,0.07
			c0,0.03-0.06,0.45-0.1,0.61c-0.03,0.09-0.04,0.1-0.12,0.14c-0.19,0.08-0.55,0.11-0.86,0.11C79.19,25.62,78.71,25.44,78.33,25.11z"
			/>
		<path class="st0" d="M82.61,24.18c0,0.46,0,0.83,0.02,1.03c0.01,0.14,0.04,0.24,0.19,0.26c0.07,0.01,0.17,0.02,0.21,0.02
			c0.03,0,0.04,0.01,0.04,0.03c0,0.02-0.02,0.04-0.08,0.04c-0.26,0-0.56-0.01-0.58-0.01c-0.02,0-0.32,0.01-0.47,0.01
			c-0.05,0-0.08-0.01-0.08-0.04c0-0.01,0.01-0.03,0.04-0.03c0.04,0,0.1-0.01,0.14-0.02c0.09-0.02,0.12-0.12,0.14-0.26
			c0.02-0.2,0.02-0.58,0.02-1.03v-0.84c0-0.74,0-0.87-0.01-1.03c-0.01-0.16-0.06-0.24-0.16-0.27c-0.05-0.01-0.11-0.02-0.15-0.02
			c-0.02,0-0.04-0.01-0.04-0.03c0-0.03,0.02-0.04,0.08-0.04c0.16,0,0.46,0.01,0.48,0.01c0.02,0,0.32-0.01,0.47-0.01
			c0.05,0,0.08,0.01,0.08,0.04c0,0.02-0.02,0.03-0.04,0.03c-0.03,0-0.06,0-0.12,0.01c-0.13,0.02-0.17,0.1-0.18,0.27
			c-0.01,0.15-0.01,0.29-0.01,1.03V24.18z"/>
		<path class="st0" d="M85.33,22.08c0.06-0.16,0.08-0.19,0.1-0.19c0.03,0,0.05,0.02,0.1,0.17c0.07,0.18,0.82,2.14,1.11,2.87
			c0.17,0.42,0.31,0.5,0.41,0.53c0.07,0.02,0.14,0.03,0.19,0.03c0.03,0,0.05,0,0.05,0.03c0,0.03-0.04,0.04-0.1,0.04
			c-0.07,0-0.42,0-0.75-0.01c-0.09,0-0.14,0-0.14-0.03c0-0.02,0.01-0.03,0.03-0.03c0.03-0.01,0.06-0.05,0.03-0.13l-0.44-1.17
			c-0.01-0.02-0.02-0.03-0.04-0.03h-1.02c-0.02,0-0.04,0.01-0.05,0.04l-0.29,0.84c-0.04,0.12-0.07,0.23-0.07,0.32
			c0,0.09,0.1,0.14,0.18,0.14h0.05c0.03,0,0.05,0.01,0.05,0.03c0,0.03-0.03,0.04-0.07,0.04c-0.11,0-0.32-0.01-0.37-0.01
			c-0.05,0-0.31,0.01-0.54,0.01c-0.06,0-0.09-0.01-0.09-0.04c0-0.02,0.02-0.03,0.04-0.03c0.03,0,0.1,0,0.14-0.01
			c0.22-0.03,0.31-0.21,0.4-0.45L85.33,22.08z M85.82,23.98c0.02,0,0.02-0.01,0.02-0.03l-0.45-1.28c-0.02-0.07-0.05-0.07-0.07,0
			l-0.42,1.28c-0.01,0.02,0,0.03,0.01,0.03H85.82z"/>
	</g>
</g>
</svg>
